G04 #@! TF.GenerationSoftware,KiCad,Pcbnew,(5.0.2-5)-5*
G04 #@! TF.CreationDate,2019-11-21T15:56:31-05:00*
G04 #@! TF.ProjectId,NEMA0183,4e454d41-3031-4383-932e-6b696361645f,rev?*
G04 #@! TF.SameCoordinates,Original*
G04 #@! TF.FileFunction,Soldermask,Bot*
G04 #@! TF.FilePolarity,Negative*
%FSLAX46Y46*%
G04 Gerber Fmt 4.6, Leading zero omitted, Abs format (unit mm)*
G04 Created by KiCad (PCBNEW (5.0.2-5)-5) date Thursday, November 21, 2019 at 03:56:31 PM*
%MOMM*%
%LPD*%
G01*
G04 APERTURE LIST*
%ADD10C,0.100000*%
G04 APERTURE END LIST*
D10*
G36*
X53037636Y-47818213D02*
X53284041Y-47867226D01*
X53476325Y-47946873D01*
X53748256Y-48059510D01*
X54166043Y-48338666D01*
X54521334Y-48693957D01*
X54800490Y-49111744D01*
X54913127Y-49383675D01*
X54992774Y-49575959D01*
X55090800Y-50068768D01*
X55090800Y-50571232D01*
X54992774Y-51064041D01*
X54913127Y-51256325D01*
X54800490Y-51528256D01*
X54521334Y-51946043D01*
X54166043Y-52301334D01*
X53748256Y-52580490D01*
X53476325Y-52693127D01*
X53284041Y-52772774D01*
X52791233Y-52870800D01*
X52288767Y-52870800D01*
X52042364Y-52821787D01*
X51795959Y-52772774D01*
X51603675Y-52693127D01*
X51331744Y-52580490D01*
X50913957Y-52301334D01*
X50558666Y-51946043D01*
X50279510Y-51528256D01*
X50166873Y-51256325D01*
X50087226Y-51064041D01*
X49989200Y-50571232D01*
X49989200Y-50068768D01*
X50087226Y-49575959D01*
X50166873Y-49383675D01*
X50279510Y-49111744D01*
X50558666Y-48693957D01*
X50913957Y-48338666D01*
X51331744Y-48059510D01*
X51603675Y-47946873D01*
X51795959Y-47867226D01*
X52288767Y-47769200D01*
X52791233Y-47769200D01*
X53037636Y-47818213D01*
X53037636Y-47818213D01*
G37*
G36*
X61518362Y-50693545D02*
X61606588Y-50702234D01*
X61719789Y-50736573D01*
X61776390Y-50753743D01*
X61914980Y-50827822D01*
X61932879Y-50837389D01*
X61968609Y-50866712D01*
X62070044Y-50949956D01*
X62153288Y-51051391D01*
X62182611Y-51087121D01*
X62182612Y-51087123D01*
X62266257Y-51243610D01*
X62266257Y-51243611D01*
X62317766Y-51413412D01*
X62335158Y-51590000D01*
X62317766Y-51766588D01*
X62283427Y-51879789D01*
X62266257Y-51936390D01*
X62261097Y-51946043D01*
X62182611Y-52092879D01*
X62153288Y-52128609D01*
X62070044Y-52230044D01*
X61983175Y-52301334D01*
X61932879Y-52342611D01*
X61932877Y-52342612D01*
X61776390Y-52426257D01*
X61719789Y-52443427D01*
X61606588Y-52477766D01*
X61518362Y-52486455D01*
X61474250Y-52490800D01*
X61385750Y-52490800D01*
X61341638Y-52486455D01*
X61253412Y-52477766D01*
X61140211Y-52443427D01*
X61083610Y-52426257D01*
X60927123Y-52342612D01*
X60927121Y-52342611D01*
X60876825Y-52301334D01*
X60789956Y-52230044D01*
X60706712Y-52128609D01*
X60677389Y-52092879D01*
X60598903Y-51946043D01*
X60593743Y-51936390D01*
X60576573Y-51879789D01*
X60542234Y-51766588D01*
X60524842Y-51590000D01*
X60542234Y-51413412D01*
X60593743Y-51243611D01*
X60593743Y-51243610D01*
X60677388Y-51087123D01*
X60677389Y-51087121D01*
X60706712Y-51051391D01*
X60789956Y-50949956D01*
X60891391Y-50866712D01*
X60927121Y-50837389D01*
X60945020Y-50827822D01*
X61083610Y-50753743D01*
X61140211Y-50736573D01*
X61253412Y-50702234D01*
X61341638Y-50693545D01*
X61385750Y-50689200D01*
X61474250Y-50689200D01*
X61518362Y-50693545D01*
X61518362Y-50693545D01*
G37*
G36*
X58978362Y-50693545D02*
X59066588Y-50702234D01*
X59179789Y-50736573D01*
X59236390Y-50753743D01*
X59374980Y-50827822D01*
X59392879Y-50837389D01*
X59428609Y-50866712D01*
X59530044Y-50949956D01*
X59613288Y-51051391D01*
X59642611Y-51087121D01*
X59642612Y-51087123D01*
X59726257Y-51243610D01*
X59726257Y-51243611D01*
X59777766Y-51413412D01*
X59795158Y-51590000D01*
X59777766Y-51766588D01*
X59743427Y-51879789D01*
X59726257Y-51936390D01*
X59721097Y-51946043D01*
X59642611Y-52092879D01*
X59613288Y-52128609D01*
X59530044Y-52230044D01*
X59443175Y-52301334D01*
X59392879Y-52342611D01*
X59392877Y-52342612D01*
X59236390Y-52426257D01*
X59179789Y-52443427D01*
X59066588Y-52477766D01*
X58978362Y-52486455D01*
X58934250Y-52490800D01*
X58845750Y-52490800D01*
X58801638Y-52486455D01*
X58713412Y-52477766D01*
X58600211Y-52443427D01*
X58543610Y-52426257D01*
X58387123Y-52342612D01*
X58387121Y-52342611D01*
X58336825Y-52301334D01*
X58249956Y-52230044D01*
X58166712Y-52128609D01*
X58137389Y-52092879D01*
X58058903Y-51946043D01*
X58053743Y-51936390D01*
X58036573Y-51879789D01*
X58002234Y-51766588D01*
X57984842Y-51590000D01*
X58002234Y-51413412D01*
X58053743Y-51243611D01*
X58053743Y-51243610D01*
X58137388Y-51087123D01*
X58137389Y-51087121D01*
X58166712Y-51051391D01*
X58249956Y-50949956D01*
X58351391Y-50866712D01*
X58387121Y-50837389D01*
X58405020Y-50827822D01*
X58543610Y-50753743D01*
X58600211Y-50736573D01*
X58713412Y-50702234D01*
X58801638Y-50693545D01*
X58845750Y-50689200D01*
X58934250Y-50689200D01*
X58978362Y-50693545D01*
X58978362Y-50693545D01*
G37*
G36*
X57250800Y-52490800D02*
X55449200Y-52490800D01*
X55449200Y-50689200D01*
X57250800Y-50689200D01*
X57250800Y-52490800D01*
X57250800Y-52490800D01*
G37*
G36*
X64058362Y-50693545D02*
X64146588Y-50702234D01*
X64259789Y-50736573D01*
X64316390Y-50753743D01*
X64454980Y-50827822D01*
X64472879Y-50837389D01*
X64508609Y-50866712D01*
X64610044Y-50949956D01*
X64693288Y-51051391D01*
X64722611Y-51087121D01*
X64722612Y-51087123D01*
X64806257Y-51243610D01*
X64806257Y-51243611D01*
X64857766Y-51413412D01*
X64875158Y-51590000D01*
X64857766Y-51766588D01*
X64823427Y-51879789D01*
X64806257Y-51936390D01*
X64801097Y-51946043D01*
X64722611Y-52092879D01*
X64693288Y-52128609D01*
X64610044Y-52230044D01*
X64523175Y-52301334D01*
X64472879Y-52342611D01*
X64472877Y-52342612D01*
X64316390Y-52426257D01*
X64259789Y-52443427D01*
X64146588Y-52477766D01*
X64058362Y-52486455D01*
X64014250Y-52490800D01*
X63925750Y-52490800D01*
X63881638Y-52486455D01*
X63793412Y-52477766D01*
X63680211Y-52443427D01*
X63623610Y-52426257D01*
X63467123Y-52342612D01*
X63467121Y-52342611D01*
X63416825Y-52301334D01*
X63329956Y-52230044D01*
X63246712Y-52128609D01*
X63217389Y-52092879D01*
X63138903Y-51946043D01*
X63133743Y-51936390D01*
X63116573Y-51879789D01*
X63082234Y-51766588D01*
X63064842Y-51590000D01*
X63082234Y-51413412D01*
X63133743Y-51243611D01*
X63133743Y-51243610D01*
X63217388Y-51087123D01*
X63217389Y-51087121D01*
X63246712Y-51051391D01*
X63329956Y-50949956D01*
X63431391Y-50866712D01*
X63467121Y-50837389D01*
X63485020Y-50827822D01*
X63623610Y-50753743D01*
X63680211Y-50736573D01*
X63793412Y-50702234D01*
X63881638Y-50693545D01*
X63925750Y-50689200D01*
X64014250Y-50689200D01*
X64058362Y-50693545D01*
X64058362Y-50693545D01*
G37*
G36*
X87225800Y-50225800D02*
X85774200Y-50225800D01*
X85774200Y-48774200D01*
X87225800Y-48774200D01*
X87225800Y-50225800D01*
X87225800Y-50225800D01*
G37*
G36*
X86642283Y-46784702D02*
X86779095Y-46826204D01*
X86905184Y-46893599D01*
X87015701Y-46984299D01*
X87106401Y-47094816D01*
X87173796Y-47220905D01*
X87215298Y-47357717D01*
X87229311Y-47500000D01*
X87215298Y-47642283D01*
X87173796Y-47779095D01*
X87106401Y-47905184D01*
X87015701Y-48015701D01*
X86905184Y-48106401D01*
X86779095Y-48173796D01*
X86642283Y-48215298D01*
X86535650Y-48225800D01*
X86464350Y-48225800D01*
X86357717Y-48215298D01*
X86220905Y-48173796D01*
X86094816Y-48106401D01*
X85984299Y-48015701D01*
X85893599Y-47905184D01*
X85826204Y-47779095D01*
X85784702Y-47642283D01*
X85770689Y-47500000D01*
X85784702Y-47357717D01*
X85826204Y-47220905D01*
X85893599Y-47094816D01*
X85984299Y-46984299D01*
X86094816Y-46893599D01*
X86220905Y-46826204D01*
X86357717Y-46784702D01*
X86464350Y-46774200D01*
X86535650Y-46774200D01*
X86642283Y-46784702D01*
X86642283Y-46784702D01*
G37*
G36*
X84726005Y-35039280D02*
X84763684Y-35050710D01*
X84798401Y-35069267D01*
X84833613Y-35098164D01*
X85601836Y-35866387D01*
X85630733Y-35901599D01*
X85649290Y-35936316D01*
X85660720Y-35973995D01*
X85664578Y-36013172D01*
X85660720Y-36052349D01*
X85649290Y-36090028D01*
X85630733Y-36124745D01*
X85601836Y-36159957D01*
X85010389Y-36751404D01*
X84975177Y-36780301D01*
X84940460Y-36798858D01*
X84902781Y-36810288D01*
X84863604Y-36814146D01*
X84824427Y-36810288D01*
X84786748Y-36798858D01*
X84752031Y-36780301D01*
X84716819Y-36751404D01*
X83948596Y-35983181D01*
X83919699Y-35947969D01*
X83901142Y-35913252D01*
X83889712Y-35875573D01*
X83885854Y-35836396D01*
X83889712Y-35797219D01*
X83901142Y-35759540D01*
X83919699Y-35724823D01*
X83948596Y-35689611D01*
X84540043Y-35098164D01*
X84575255Y-35069267D01*
X84609972Y-35050710D01*
X84647651Y-35039280D01*
X84686828Y-35035422D01*
X84726005Y-35039280D01*
X84726005Y-35039280D01*
G37*
G36*
X81726005Y-34639280D02*
X81763684Y-34650710D01*
X81798401Y-34669267D01*
X81833613Y-34698164D01*
X82601836Y-35466387D01*
X82630733Y-35501599D01*
X82649290Y-35536316D01*
X82660720Y-35573995D01*
X82664578Y-35613172D01*
X82660720Y-35652349D01*
X82649290Y-35690028D01*
X82630733Y-35724745D01*
X82601836Y-35759957D01*
X82010389Y-36351404D01*
X81975177Y-36380301D01*
X81940460Y-36398858D01*
X81902781Y-36410288D01*
X81863604Y-36414146D01*
X81824427Y-36410288D01*
X81786748Y-36398858D01*
X81752031Y-36380301D01*
X81716819Y-36351404D01*
X80948596Y-35583181D01*
X80919699Y-35547969D01*
X80901142Y-35513252D01*
X80889712Y-35475573D01*
X80885854Y-35436396D01*
X80889712Y-35397219D01*
X80901142Y-35359540D01*
X80919699Y-35324823D01*
X80948596Y-35289611D01*
X81540043Y-34698164D01*
X81575255Y-34669267D01*
X81609972Y-34650710D01*
X81647651Y-34639280D01*
X81686828Y-34635422D01*
X81726005Y-34639280D01*
X81726005Y-34639280D01*
G37*
G36*
X86175573Y-33589712D02*
X86213252Y-33601142D01*
X86247969Y-33619699D01*
X86283181Y-33648596D01*
X87051404Y-34416819D01*
X87080301Y-34452031D01*
X87098858Y-34486748D01*
X87110288Y-34524427D01*
X87114146Y-34563604D01*
X87110288Y-34602781D01*
X87098858Y-34640460D01*
X87080301Y-34675177D01*
X87051404Y-34710389D01*
X86459957Y-35301836D01*
X86424745Y-35330733D01*
X86390028Y-35349290D01*
X86352349Y-35360720D01*
X86313172Y-35364578D01*
X86273995Y-35360720D01*
X86236316Y-35349290D01*
X86201599Y-35330733D01*
X86166387Y-35301836D01*
X85398164Y-34533613D01*
X85369267Y-34498401D01*
X85350710Y-34463684D01*
X85339280Y-34426005D01*
X85335422Y-34386828D01*
X85339280Y-34347651D01*
X85350710Y-34309972D01*
X85369267Y-34275255D01*
X85398164Y-34240043D01*
X85989611Y-33648596D01*
X86024823Y-33619699D01*
X86059540Y-33601142D01*
X86097219Y-33589712D01*
X86136396Y-33585854D01*
X86175573Y-33589712D01*
X86175573Y-33589712D01*
G37*
G36*
X53284041Y-30087226D02*
X53476325Y-30166873D01*
X53748256Y-30279510D01*
X54166043Y-30558666D01*
X54521334Y-30913957D01*
X54800490Y-31331744D01*
X54913127Y-31603675D01*
X54992774Y-31795959D01*
X55090800Y-32288768D01*
X55090800Y-32791232D01*
X55006604Y-33214515D01*
X54992774Y-33284040D01*
X54800490Y-33748256D01*
X54521334Y-34166043D01*
X54166043Y-34521334D01*
X53748256Y-34800490D01*
X53613699Y-34856225D01*
X53284041Y-34992774D01*
X53069635Y-35035422D01*
X52791233Y-35090800D01*
X52288767Y-35090800D01*
X52010365Y-35035422D01*
X51795959Y-34992774D01*
X51466301Y-34856225D01*
X51331744Y-34800490D01*
X50913957Y-34521334D01*
X50558666Y-34166043D01*
X50279510Y-33748256D01*
X50087226Y-33284040D01*
X50073397Y-33214515D01*
X49989200Y-32791232D01*
X49989200Y-32288768D01*
X50087226Y-31795959D01*
X50166873Y-31603675D01*
X50279510Y-31331744D01*
X50558666Y-30913957D01*
X50913957Y-30558666D01*
X51331744Y-30279510D01*
X51603675Y-30166873D01*
X51795959Y-30087226D01*
X52288767Y-29989200D01*
X52791233Y-29989200D01*
X53284041Y-30087226D01*
X53284041Y-30087226D01*
G37*
G36*
X83175573Y-33189712D02*
X83213252Y-33201142D01*
X83247969Y-33219699D01*
X83283181Y-33248596D01*
X84051404Y-34016819D01*
X84080301Y-34052031D01*
X84098858Y-34086748D01*
X84110288Y-34124427D01*
X84114146Y-34163604D01*
X84110288Y-34202781D01*
X84098858Y-34240460D01*
X84080301Y-34275177D01*
X84051404Y-34310389D01*
X83459957Y-34901836D01*
X83424745Y-34930733D01*
X83390028Y-34949290D01*
X83352349Y-34960720D01*
X83313172Y-34964578D01*
X83273995Y-34960720D01*
X83236316Y-34949290D01*
X83201599Y-34930733D01*
X83166387Y-34901836D01*
X82398164Y-34133613D01*
X82369267Y-34098401D01*
X82350710Y-34063684D01*
X82339280Y-34026005D01*
X82335422Y-33986828D01*
X82339280Y-33947651D01*
X82350710Y-33909972D01*
X82369267Y-33875255D01*
X82398164Y-33840043D01*
X82989611Y-33248596D01*
X83024823Y-33219699D01*
X83059540Y-33201142D01*
X83097219Y-33189712D01*
X83136396Y-33185854D01*
X83175573Y-33189712D01*
X83175573Y-33189712D01*
G37*
G36*
X79298362Y-30373545D02*
X79386588Y-30382234D01*
X79499789Y-30416573D01*
X79556390Y-30433743D01*
X79694980Y-30507822D01*
X79712879Y-30517389D01*
X79748609Y-30546712D01*
X79850044Y-30629956D01*
X79933288Y-30731391D01*
X79962611Y-30767121D01*
X79962612Y-30767123D01*
X80046257Y-30923610D01*
X80046257Y-30923611D01*
X80097766Y-31093412D01*
X80115158Y-31270000D01*
X80097766Y-31446588D01*
X80063427Y-31559789D01*
X80046257Y-31616390D01*
X79972178Y-31754980D01*
X79962611Y-31772879D01*
X79943669Y-31795960D01*
X79850044Y-31910044D01*
X79748609Y-31993288D01*
X79712879Y-32022611D01*
X79712877Y-32022612D01*
X79556390Y-32106257D01*
X79499789Y-32123427D01*
X79386588Y-32157766D01*
X79298362Y-32166455D01*
X79254250Y-32170800D01*
X79165750Y-32170800D01*
X79121638Y-32166455D01*
X79033412Y-32157766D01*
X78920211Y-32123427D01*
X78863610Y-32106257D01*
X78707123Y-32022612D01*
X78707121Y-32022611D01*
X78671391Y-31993288D01*
X78569956Y-31910044D01*
X78476331Y-31795960D01*
X78457389Y-31772879D01*
X78447822Y-31754980D01*
X78373743Y-31616390D01*
X78356573Y-31559789D01*
X78322234Y-31446588D01*
X78304842Y-31270000D01*
X78322234Y-31093412D01*
X78373743Y-30923611D01*
X78373743Y-30923610D01*
X78457388Y-30767123D01*
X78457389Y-30767121D01*
X78486712Y-30731391D01*
X78569956Y-30629956D01*
X78671391Y-30546712D01*
X78707121Y-30517389D01*
X78725020Y-30507822D01*
X78863610Y-30433743D01*
X78920211Y-30416573D01*
X79033412Y-30382234D01*
X79121638Y-30373545D01*
X79165750Y-30369200D01*
X79254250Y-30369200D01*
X79298362Y-30373545D01*
X79298362Y-30373545D01*
G37*
G36*
X76758362Y-30373545D02*
X76846588Y-30382234D01*
X76959789Y-30416573D01*
X77016390Y-30433743D01*
X77154980Y-30507822D01*
X77172879Y-30517389D01*
X77208609Y-30546712D01*
X77310044Y-30629956D01*
X77393288Y-30731391D01*
X77422611Y-30767121D01*
X77422612Y-30767123D01*
X77506257Y-30923610D01*
X77506257Y-30923611D01*
X77557766Y-31093412D01*
X77575158Y-31270000D01*
X77557766Y-31446588D01*
X77523427Y-31559789D01*
X77506257Y-31616390D01*
X77432178Y-31754980D01*
X77422611Y-31772879D01*
X77403669Y-31795960D01*
X77310044Y-31910044D01*
X77208609Y-31993288D01*
X77172879Y-32022611D01*
X77172877Y-32022612D01*
X77016390Y-32106257D01*
X76959789Y-32123427D01*
X76846588Y-32157766D01*
X76758362Y-32166455D01*
X76714250Y-32170800D01*
X76625750Y-32170800D01*
X76581638Y-32166455D01*
X76493412Y-32157766D01*
X76380211Y-32123427D01*
X76323610Y-32106257D01*
X76167123Y-32022612D01*
X76167121Y-32022611D01*
X76131391Y-31993288D01*
X76029956Y-31910044D01*
X75936331Y-31795960D01*
X75917389Y-31772879D01*
X75907822Y-31754980D01*
X75833743Y-31616390D01*
X75816573Y-31559789D01*
X75782234Y-31446588D01*
X75764842Y-31270000D01*
X75782234Y-31093412D01*
X75833743Y-30923611D01*
X75833743Y-30923610D01*
X75917388Y-30767123D01*
X75917389Y-30767121D01*
X75946712Y-30731391D01*
X76029956Y-30629956D01*
X76131391Y-30546712D01*
X76167121Y-30517389D01*
X76185020Y-30507822D01*
X76323610Y-30433743D01*
X76380211Y-30416573D01*
X76493412Y-30382234D01*
X76581638Y-30373545D01*
X76625750Y-30369200D01*
X76714250Y-30369200D01*
X76758362Y-30373545D01*
X76758362Y-30373545D01*
G37*
G36*
X74218362Y-30373545D02*
X74306588Y-30382234D01*
X74419789Y-30416573D01*
X74476390Y-30433743D01*
X74614980Y-30507822D01*
X74632879Y-30517389D01*
X74668609Y-30546712D01*
X74770044Y-30629956D01*
X74853288Y-30731391D01*
X74882611Y-30767121D01*
X74882612Y-30767123D01*
X74966257Y-30923610D01*
X74966257Y-30923611D01*
X75017766Y-31093412D01*
X75035158Y-31270000D01*
X75017766Y-31446588D01*
X74983427Y-31559789D01*
X74966257Y-31616390D01*
X74892178Y-31754980D01*
X74882611Y-31772879D01*
X74863669Y-31795960D01*
X74770044Y-31910044D01*
X74668609Y-31993288D01*
X74632879Y-32022611D01*
X74632877Y-32022612D01*
X74476390Y-32106257D01*
X74419789Y-32123427D01*
X74306588Y-32157766D01*
X74218362Y-32166455D01*
X74174250Y-32170800D01*
X74085750Y-32170800D01*
X74041638Y-32166455D01*
X73953412Y-32157766D01*
X73840211Y-32123427D01*
X73783610Y-32106257D01*
X73627123Y-32022612D01*
X73627121Y-32022611D01*
X73591391Y-31993288D01*
X73489956Y-31910044D01*
X73396331Y-31795960D01*
X73377389Y-31772879D01*
X73367822Y-31754980D01*
X73293743Y-31616390D01*
X73276573Y-31559789D01*
X73242234Y-31446588D01*
X73224842Y-31270000D01*
X73242234Y-31093412D01*
X73293743Y-30923611D01*
X73293743Y-30923610D01*
X73377388Y-30767123D01*
X73377389Y-30767121D01*
X73406712Y-30731391D01*
X73489956Y-30629956D01*
X73591391Y-30546712D01*
X73627121Y-30517389D01*
X73645020Y-30507822D01*
X73783610Y-30433743D01*
X73840211Y-30416573D01*
X73953412Y-30382234D01*
X74041638Y-30373545D01*
X74085750Y-30369200D01*
X74174250Y-30369200D01*
X74218362Y-30373545D01*
X74218362Y-30373545D01*
G37*
G36*
X71678362Y-30373545D02*
X71766588Y-30382234D01*
X71879789Y-30416573D01*
X71936390Y-30433743D01*
X72074980Y-30507822D01*
X72092879Y-30517389D01*
X72128609Y-30546712D01*
X72230044Y-30629956D01*
X72313288Y-30731391D01*
X72342611Y-30767121D01*
X72342612Y-30767123D01*
X72426257Y-30923610D01*
X72426257Y-30923611D01*
X72477766Y-31093412D01*
X72495158Y-31270000D01*
X72477766Y-31446588D01*
X72443427Y-31559789D01*
X72426257Y-31616390D01*
X72352178Y-31754980D01*
X72342611Y-31772879D01*
X72323669Y-31795960D01*
X72230044Y-31910044D01*
X72128609Y-31993288D01*
X72092879Y-32022611D01*
X72092877Y-32022612D01*
X71936390Y-32106257D01*
X71879789Y-32123427D01*
X71766588Y-32157766D01*
X71678362Y-32166455D01*
X71634250Y-32170800D01*
X71545750Y-32170800D01*
X71501638Y-32166455D01*
X71413412Y-32157766D01*
X71300211Y-32123427D01*
X71243610Y-32106257D01*
X71087123Y-32022612D01*
X71087121Y-32022611D01*
X71051391Y-31993288D01*
X70949956Y-31910044D01*
X70856331Y-31795960D01*
X70837389Y-31772879D01*
X70827822Y-31754980D01*
X70753743Y-31616390D01*
X70736573Y-31559789D01*
X70702234Y-31446588D01*
X70684842Y-31270000D01*
X70702234Y-31093412D01*
X70753743Y-30923611D01*
X70753743Y-30923610D01*
X70837388Y-30767123D01*
X70837389Y-30767121D01*
X70866712Y-30731391D01*
X70949956Y-30629956D01*
X71051391Y-30546712D01*
X71087121Y-30517389D01*
X71105020Y-30507822D01*
X71243610Y-30433743D01*
X71300211Y-30416573D01*
X71413412Y-30382234D01*
X71501638Y-30373545D01*
X71545750Y-30369200D01*
X71634250Y-30369200D01*
X71678362Y-30373545D01*
X71678362Y-30373545D01*
G37*
G36*
X69138362Y-30373545D02*
X69226588Y-30382234D01*
X69339789Y-30416573D01*
X69396390Y-30433743D01*
X69534980Y-30507822D01*
X69552879Y-30517389D01*
X69588609Y-30546712D01*
X69690044Y-30629956D01*
X69773288Y-30731391D01*
X69802611Y-30767121D01*
X69802612Y-30767123D01*
X69886257Y-30923610D01*
X69886257Y-30923611D01*
X69937766Y-31093412D01*
X69955158Y-31270000D01*
X69937766Y-31446588D01*
X69903427Y-31559789D01*
X69886257Y-31616390D01*
X69812178Y-31754980D01*
X69802611Y-31772879D01*
X69783669Y-31795960D01*
X69690044Y-31910044D01*
X69588609Y-31993288D01*
X69552879Y-32022611D01*
X69552877Y-32022612D01*
X69396390Y-32106257D01*
X69339789Y-32123427D01*
X69226588Y-32157766D01*
X69138362Y-32166455D01*
X69094250Y-32170800D01*
X69005750Y-32170800D01*
X68961638Y-32166455D01*
X68873412Y-32157766D01*
X68760211Y-32123427D01*
X68703610Y-32106257D01*
X68547123Y-32022612D01*
X68547121Y-32022611D01*
X68511391Y-31993288D01*
X68409956Y-31910044D01*
X68316331Y-31795960D01*
X68297389Y-31772879D01*
X68287822Y-31754980D01*
X68213743Y-31616390D01*
X68196573Y-31559789D01*
X68162234Y-31446588D01*
X68144842Y-31270000D01*
X68162234Y-31093412D01*
X68213743Y-30923611D01*
X68213743Y-30923610D01*
X68297388Y-30767123D01*
X68297389Y-30767121D01*
X68326712Y-30731391D01*
X68409956Y-30629956D01*
X68511391Y-30546712D01*
X68547121Y-30517389D01*
X68565020Y-30507822D01*
X68703610Y-30433743D01*
X68760211Y-30416573D01*
X68873412Y-30382234D01*
X68961638Y-30373545D01*
X69005750Y-30369200D01*
X69094250Y-30369200D01*
X69138362Y-30373545D01*
X69138362Y-30373545D01*
G37*
G36*
X67410800Y-32170800D02*
X65609200Y-32170800D01*
X65609200Y-30369200D01*
X67410800Y-30369200D01*
X67410800Y-32170800D01*
X67410800Y-32170800D01*
G37*
G36*
X84378362Y-30373545D02*
X84466588Y-30382234D01*
X84579789Y-30416573D01*
X84636390Y-30433743D01*
X84774980Y-30507822D01*
X84792879Y-30517389D01*
X84828609Y-30546712D01*
X84930044Y-30629956D01*
X85013288Y-30731391D01*
X85042611Y-30767121D01*
X85042612Y-30767123D01*
X85126257Y-30923610D01*
X85126257Y-30923611D01*
X85177766Y-31093412D01*
X85195158Y-31270000D01*
X85177766Y-31446588D01*
X85143427Y-31559789D01*
X85126257Y-31616390D01*
X85052178Y-31754980D01*
X85042611Y-31772879D01*
X85023669Y-31795960D01*
X84930044Y-31910044D01*
X84828609Y-31993288D01*
X84792879Y-32022611D01*
X84792877Y-32022612D01*
X84636390Y-32106257D01*
X84579789Y-32123427D01*
X84466588Y-32157766D01*
X84378362Y-32166455D01*
X84334250Y-32170800D01*
X84245750Y-32170800D01*
X84201638Y-32166455D01*
X84113412Y-32157766D01*
X84000211Y-32123427D01*
X83943610Y-32106257D01*
X83787123Y-32022612D01*
X83787121Y-32022611D01*
X83751391Y-31993288D01*
X83649956Y-31910044D01*
X83556331Y-31795960D01*
X83537389Y-31772879D01*
X83527822Y-31754980D01*
X83453743Y-31616390D01*
X83436573Y-31559789D01*
X83402234Y-31446588D01*
X83384842Y-31270000D01*
X83402234Y-31093412D01*
X83453743Y-30923611D01*
X83453743Y-30923610D01*
X83537388Y-30767123D01*
X83537389Y-30767121D01*
X83566712Y-30731391D01*
X83649956Y-30629956D01*
X83751391Y-30546712D01*
X83787121Y-30517389D01*
X83805020Y-30507822D01*
X83943610Y-30433743D01*
X84000211Y-30416573D01*
X84113412Y-30382234D01*
X84201638Y-30373545D01*
X84245750Y-30369200D01*
X84334250Y-30369200D01*
X84378362Y-30373545D01*
X84378362Y-30373545D01*
G37*
G36*
X86918362Y-30373545D02*
X87006588Y-30382234D01*
X87119789Y-30416573D01*
X87176390Y-30433743D01*
X87314980Y-30507822D01*
X87332879Y-30517389D01*
X87368609Y-30546712D01*
X87470044Y-30629956D01*
X87553288Y-30731391D01*
X87582611Y-30767121D01*
X87582612Y-30767123D01*
X87666257Y-30923610D01*
X87666257Y-30923611D01*
X87717766Y-31093412D01*
X87735158Y-31270000D01*
X87717766Y-31446588D01*
X87683427Y-31559789D01*
X87666257Y-31616390D01*
X87592178Y-31754980D01*
X87582611Y-31772879D01*
X87563669Y-31795960D01*
X87470044Y-31910044D01*
X87368609Y-31993288D01*
X87332879Y-32022611D01*
X87332877Y-32022612D01*
X87176390Y-32106257D01*
X87119789Y-32123427D01*
X87006588Y-32157766D01*
X86918362Y-32166455D01*
X86874250Y-32170800D01*
X86785750Y-32170800D01*
X86741638Y-32166455D01*
X86653412Y-32157766D01*
X86540211Y-32123427D01*
X86483610Y-32106257D01*
X86327123Y-32022612D01*
X86327121Y-32022611D01*
X86291391Y-31993288D01*
X86189956Y-31910044D01*
X86096331Y-31795960D01*
X86077389Y-31772879D01*
X86067822Y-31754980D01*
X85993743Y-31616390D01*
X85976573Y-31559789D01*
X85942234Y-31446588D01*
X85924842Y-31270000D01*
X85942234Y-31093412D01*
X85993743Y-30923611D01*
X85993743Y-30923610D01*
X86077388Y-30767123D01*
X86077389Y-30767121D01*
X86106712Y-30731391D01*
X86189956Y-30629956D01*
X86291391Y-30546712D01*
X86327121Y-30517389D01*
X86345020Y-30507822D01*
X86483610Y-30433743D01*
X86540211Y-30416573D01*
X86653412Y-30382234D01*
X86741638Y-30373545D01*
X86785750Y-30369200D01*
X86874250Y-30369200D01*
X86918362Y-30373545D01*
X86918362Y-30373545D01*
G37*
G36*
X89458362Y-30373545D02*
X89546588Y-30382234D01*
X89659789Y-30416573D01*
X89716390Y-30433743D01*
X89854980Y-30507822D01*
X89872879Y-30517389D01*
X89908609Y-30546712D01*
X90010044Y-30629956D01*
X90093288Y-30731391D01*
X90122611Y-30767121D01*
X90122612Y-30767123D01*
X90206257Y-30923610D01*
X90206257Y-30923611D01*
X90257766Y-31093412D01*
X90275158Y-31270000D01*
X90257766Y-31446588D01*
X90223427Y-31559789D01*
X90206257Y-31616390D01*
X90132178Y-31754980D01*
X90122611Y-31772879D01*
X90103669Y-31795960D01*
X90010044Y-31910044D01*
X89908609Y-31993288D01*
X89872879Y-32022611D01*
X89872877Y-32022612D01*
X89716390Y-32106257D01*
X89659789Y-32123427D01*
X89546588Y-32157766D01*
X89458362Y-32166455D01*
X89414250Y-32170800D01*
X89325750Y-32170800D01*
X89281638Y-32166455D01*
X89193412Y-32157766D01*
X89080211Y-32123427D01*
X89023610Y-32106257D01*
X88867123Y-32022612D01*
X88867121Y-32022611D01*
X88831391Y-31993288D01*
X88729956Y-31910044D01*
X88636331Y-31795960D01*
X88617389Y-31772879D01*
X88607822Y-31754980D01*
X88533743Y-31616390D01*
X88516573Y-31559789D01*
X88482234Y-31446588D01*
X88464842Y-31270000D01*
X88482234Y-31093412D01*
X88533743Y-30923611D01*
X88533743Y-30923610D01*
X88617388Y-30767123D01*
X88617389Y-30767121D01*
X88646712Y-30731391D01*
X88729956Y-30629956D01*
X88831391Y-30546712D01*
X88867121Y-30517389D01*
X88885020Y-30507822D01*
X89023610Y-30433743D01*
X89080211Y-30416573D01*
X89193412Y-30382234D01*
X89281638Y-30373545D01*
X89325750Y-30369200D01*
X89414250Y-30369200D01*
X89458362Y-30373545D01*
X89458362Y-30373545D01*
G37*
G36*
X81838362Y-30373545D02*
X81926588Y-30382234D01*
X82039789Y-30416573D01*
X82096390Y-30433743D01*
X82234980Y-30507822D01*
X82252879Y-30517389D01*
X82288609Y-30546712D01*
X82390044Y-30629956D01*
X82473288Y-30731391D01*
X82502611Y-30767121D01*
X82502612Y-30767123D01*
X82586257Y-30923610D01*
X82586257Y-30923611D01*
X82637766Y-31093412D01*
X82655158Y-31270000D01*
X82637766Y-31446588D01*
X82603427Y-31559789D01*
X82586257Y-31616390D01*
X82512178Y-31754980D01*
X82502611Y-31772879D01*
X82483669Y-31795960D01*
X82390044Y-31910044D01*
X82288609Y-31993288D01*
X82252879Y-32022611D01*
X82252877Y-32022612D01*
X82096390Y-32106257D01*
X82039789Y-32123427D01*
X81926588Y-32157766D01*
X81838362Y-32166455D01*
X81794250Y-32170800D01*
X81705750Y-32170800D01*
X81661638Y-32166455D01*
X81573412Y-32157766D01*
X81460211Y-32123427D01*
X81403610Y-32106257D01*
X81247123Y-32022612D01*
X81247121Y-32022611D01*
X81211391Y-31993288D01*
X81109956Y-31910044D01*
X81016331Y-31795960D01*
X80997389Y-31772879D01*
X80987822Y-31754980D01*
X80913743Y-31616390D01*
X80896573Y-31559789D01*
X80862234Y-31446588D01*
X80844842Y-31270000D01*
X80862234Y-31093412D01*
X80913743Y-30923611D01*
X80913743Y-30923610D01*
X80997388Y-30767123D01*
X80997389Y-30767121D01*
X81026712Y-30731391D01*
X81109956Y-30629956D01*
X81211391Y-30546712D01*
X81247121Y-30517389D01*
X81265020Y-30507822D01*
X81403610Y-30433743D01*
X81460211Y-30416573D01*
X81573412Y-30382234D01*
X81661638Y-30373545D01*
X81705750Y-30369200D01*
X81794250Y-30369200D01*
X81838362Y-30373545D01*
X81838362Y-30373545D01*
G37*
G36*
X91998362Y-30373545D02*
X92086588Y-30382234D01*
X92199789Y-30416573D01*
X92256390Y-30433743D01*
X92394980Y-30507822D01*
X92412879Y-30517389D01*
X92448609Y-30546712D01*
X92550044Y-30629956D01*
X92633288Y-30731391D01*
X92662611Y-30767121D01*
X92662612Y-30767123D01*
X92746257Y-30923610D01*
X92746257Y-30923611D01*
X92797766Y-31093412D01*
X92815158Y-31270000D01*
X92797766Y-31446588D01*
X92763427Y-31559789D01*
X92746257Y-31616390D01*
X92672178Y-31754980D01*
X92662611Y-31772879D01*
X92643669Y-31795960D01*
X92550044Y-31910044D01*
X92448609Y-31993288D01*
X92412879Y-32022611D01*
X92412877Y-32022612D01*
X92256390Y-32106257D01*
X92199789Y-32123427D01*
X92086588Y-32157766D01*
X91998362Y-32166455D01*
X91954250Y-32170800D01*
X91865750Y-32170800D01*
X91821638Y-32166455D01*
X91733412Y-32157766D01*
X91620211Y-32123427D01*
X91563610Y-32106257D01*
X91407123Y-32022612D01*
X91407121Y-32022611D01*
X91371391Y-31993288D01*
X91269956Y-31910044D01*
X91176331Y-31795960D01*
X91157389Y-31772879D01*
X91147822Y-31754980D01*
X91073743Y-31616390D01*
X91056573Y-31559789D01*
X91022234Y-31446588D01*
X91004842Y-31270000D01*
X91022234Y-31093412D01*
X91073743Y-30923611D01*
X91073743Y-30923610D01*
X91157388Y-30767123D01*
X91157389Y-30767121D01*
X91186712Y-30731391D01*
X91269956Y-30629956D01*
X91371391Y-30546712D01*
X91407121Y-30517389D01*
X91425020Y-30507822D01*
X91563610Y-30433743D01*
X91620211Y-30416573D01*
X91733412Y-30382234D01*
X91821638Y-30373545D01*
X91865750Y-30369200D01*
X91954250Y-30369200D01*
X91998362Y-30373545D01*
X91998362Y-30373545D01*
G37*
G36*
X94538362Y-30373545D02*
X94626588Y-30382234D01*
X94739789Y-30416573D01*
X94796390Y-30433743D01*
X94934980Y-30507822D01*
X94952879Y-30517389D01*
X94988609Y-30546712D01*
X95090044Y-30629956D01*
X95173288Y-30731391D01*
X95202611Y-30767121D01*
X95202612Y-30767123D01*
X95286257Y-30923610D01*
X95286257Y-30923611D01*
X95337766Y-31093412D01*
X95355158Y-31270000D01*
X95337766Y-31446588D01*
X95303427Y-31559789D01*
X95286257Y-31616390D01*
X95212178Y-31754980D01*
X95202611Y-31772879D01*
X95183669Y-31795960D01*
X95090044Y-31910044D01*
X94988609Y-31993288D01*
X94952879Y-32022611D01*
X94952877Y-32022612D01*
X94796390Y-32106257D01*
X94739789Y-32123427D01*
X94626588Y-32157766D01*
X94538362Y-32166455D01*
X94494250Y-32170800D01*
X94405750Y-32170800D01*
X94361638Y-32166455D01*
X94273412Y-32157766D01*
X94160211Y-32123427D01*
X94103610Y-32106257D01*
X93947123Y-32022612D01*
X93947121Y-32022611D01*
X93911391Y-31993288D01*
X93809956Y-31910044D01*
X93716331Y-31795960D01*
X93697389Y-31772879D01*
X93687822Y-31754980D01*
X93613743Y-31616390D01*
X93596573Y-31559789D01*
X93562234Y-31446588D01*
X93544842Y-31270000D01*
X93562234Y-31093412D01*
X93613743Y-30923611D01*
X93613743Y-30923610D01*
X93697388Y-30767123D01*
X93697389Y-30767121D01*
X93726712Y-30731391D01*
X93809956Y-30629956D01*
X93911391Y-30546712D01*
X93947121Y-30517389D01*
X93965020Y-30507822D01*
X94103610Y-30433743D01*
X94160211Y-30416573D01*
X94273412Y-30382234D01*
X94361638Y-30373545D01*
X94405750Y-30369200D01*
X94494250Y-30369200D01*
X94538362Y-30373545D01*
X94538362Y-30373545D01*
G37*
M02*
