G04 #@! TF.GenerationSoftware,KiCad,Pcbnew,(5.0.2-5)-5*
G04 #@! TF.CreationDate,2019-11-21T15:56:31-05:00*
G04 #@! TF.ProjectId,NEMA0183,4e454d41-3031-4383-932e-6b696361645f,rev?*
G04 #@! TF.SameCoordinates,Original*
G04 #@! TF.FileFunction,Paste,Top*
G04 #@! TF.FilePolarity,Positive*
%FSLAX46Y46*%
G04 Gerber Fmt 4.6, Leading zero omitted, Abs format (unit mm)*
G04 Created by KiCad (PCBNEW (5.0.2-5)-5) date Thursday, November 21, 2019 at 03:56:31 PM*
%MOMM*%
%LPD*%
G01*
G04 APERTURE LIST*
%ADD10C,0.100000*%
%ADD11C,1.150000*%
%ADD12C,0.800000*%
%ADD13R,1.000000X0.400000*%
%ADD14R,1.400000X0.300000*%
%ADD15R,0.900000X1.400000*%
%ADD16C,0.975000*%
%ADD17R,1.200000X1.400000*%
%ADD18C,1.250000*%
G04 APERTURE END LIST*
D10*
G04 #@! TO.C,R3*
G36*
X56574506Y-41301204D02*
X56598774Y-41304804D01*
X56622573Y-41310765D01*
X56645672Y-41319030D01*
X56667851Y-41329520D01*
X56688894Y-41342132D01*
X56708600Y-41356747D01*
X56726778Y-41373223D01*
X56743254Y-41391401D01*
X56757869Y-41411107D01*
X56770481Y-41432150D01*
X56780971Y-41454329D01*
X56789236Y-41477428D01*
X56795197Y-41501227D01*
X56798797Y-41525495D01*
X56800001Y-41549999D01*
X56800001Y-42450001D01*
X56798797Y-42474505D01*
X56795197Y-42498773D01*
X56789236Y-42522572D01*
X56780971Y-42545671D01*
X56770481Y-42567850D01*
X56757869Y-42588893D01*
X56743254Y-42608599D01*
X56726778Y-42626777D01*
X56708600Y-42643253D01*
X56688894Y-42657868D01*
X56667851Y-42670480D01*
X56645672Y-42680970D01*
X56622573Y-42689235D01*
X56598774Y-42695196D01*
X56574506Y-42698796D01*
X56550002Y-42700000D01*
X55900000Y-42700000D01*
X55875496Y-42698796D01*
X55851228Y-42695196D01*
X55827429Y-42689235D01*
X55804330Y-42680970D01*
X55782151Y-42670480D01*
X55761108Y-42657868D01*
X55741402Y-42643253D01*
X55723224Y-42626777D01*
X55706748Y-42608599D01*
X55692133Y-42588893D01*
X55679521Y-42567850D01*
X55669031Y-42545671D01*
X55660766Y-42522572D01*
X55654805Y-42498773D01*
X55651205Y-42474505D01*
X55650001Y-42450001D01*
X55650001Y-41549999D01*
X55651205Y-41525495D01*
X55654805Y-41501227D01*
X55660766Y-41477428D01*
X55669031Y-41454329D01*
X55679521Y-41432150D01*
X55692133Y-41411107D01*
X55706748Y-41391401D01*
X55723224Y-41373223D01*
X55741402Y-41356747D01*
X55761108Y-41342132D01*
X55782151Y-41329520D01*
X55804330Y-41319030D01*
X55827429Y-41310765D01*
X55851228Y-41304804D01*
X55875496Y-41301204D01*
X55900000Y-41300000D01*
X56550002Y-41300000D01*
X56574506Y-41301204D01*
X56574506Y-41301204D01*
G37*
D11*
X56225001Y-42000000D03*
D10*
G36*
X58624504Y-41301204D02*
X58648772Y-41304804D01*
X58672571Y-41310765D01*
X58695670Y-41319030D01*
X58717849Y-41329520D01*
X58738892Y-41342132D01*
X58758598Y-41356747D01*
X58776776Y-41373223D01*
X58793252Y-41391401D01*
X58807867Y-41411107D01*
X58820479Y-41432150D01*
X58830969Y-41454329D01*
X58839234Y-41477428D01*
X58845195Y-41501227D01*
X58848795Y-41525495D01*
X58849999Y-41549999D01*
X58849999Y-42450001D01*
X58848795Y-42474505D01*
X58845195Y-42498773D01*
X58839234Y-42522572D01*
X58830969Y-42545671D01*
X58820479Y-42567850D01*
X58807867Y-42588893D01*
X58793252Y-42608599D01*
X58776776Y-42626777D01*
X58758598Y-42643253D01*
X58738892Y-42657868D01*
X58717849Y-42670480D01*
X58695670Y-42680970D01*
X58672571Y-42689235D01*
X58648772Y-42695196D01*
X58624504Y-42698796D01*
X58600000Y-42700000D01*
X57949998Y-42700000D01*
X57925494Y-42698796D01*
X57901226Y-42695196D01*
X57877427Y-42689235D01*
X57854328Y-42680970D01*
X57832149Y-42670480D01*
X57811106Y-42657868D01*
X57791400Y-42643253D01*
X57773222Y-42626777D01*
X57756746Y-42608599D01*
X57742131Y-42588893D01*
X57729519Y-42567850D01*
X57719029Y-42545671D01*
X57710764Y-42522572D01*
X57704803Y-42498773D01*
X57701203Y-42474505D01*
X57699999Y-42450001D01*
X57699999Y-41549999D01*
X57701203Y-41525495D01*
X57704803Y-41501227D01*
X57710764Y-41477428D01*
X57719029Y-41454329D01*
X57729519Y-41432150D01*
X57742131Y-41411107D01*
X57756746Y-41391401D01*
X57773222Y-41373223D01*
X57791400Y-41356747D01*
X57811106Y-41342132D01*
X57832149Y-41329520D01*
X57854328Y-41319030D01*
X57877427Y-41310765D01*
X57901226Y-41304804D01*
X57925494Y-41301204D01*
X57949998Y-41300000D01*
X58600000Y-41300000D01*
X58624504Y-41301204D01*
X58624504Y-41301204D01*
G37*
D11*
X58274999Y-42000000D03*
G04 #@! TD*
D10*
G04 #@! TO.C,R2*
G36*
X56574505Y-43301204D02*
X56598773Y-43304804D01*
X56622572Y-43310765D01*
X56645671Y-43319030D01*
X56667850Y-43329520D01*
X56688893Y-43342132D01*
X56708599Y-43356747D01*
X56726777Y-43373223D01*
X56743253Y-43391401D01*
X56757868Y-43411107D01*
X56770480Y-43432150D01*
X56780970Y-43454329D01*
X56789235Y-43477428D01*
X56795196Y-43501227D01*
X56798796Y-43525495D01*
X56800000Y-43549999D01*
X56800000Y-44450001D01*
X56798796Y-44474505D01*
X56795196Y-44498773D01*
X56789235Y-44522572D01*
X56780970Y-44545671D01*
X56770480Y-44567850D01*
X56757868Y-44588893D01*
X56743253Y-44608599D01*
X56726777Y-44626777D01*
X56708599Y-44643253D01*
X56688893Y-44657868D01*
X56667850Y-44670480D01*
X56645671Y-44680970D01*
X56622572Y-44689235D01*
X56598773Y-44695196D01*
X56574505Y-44698796D01*
X56550001Y-44700000D01*
X55899999Y-44700000D01*
X55875495Y-44698796D01*
X55851227Y-44695196D01*
X55827428Y-44689235D01*
X55804329Y-44680970D01*
X55782150Y-44670480D01*
X55761107Y-44657868D01*
X55741401Y-44643253D01*
X55723223Y-44626777D01*
X55706747Y-44608599D01*
X55692132Y-44588893D01*
X55679520Y-44567850D01*
X55669030Y-44545671D01*
X55660765Y-44522572D01*
X55654804Y-44498773D01*
X55651204Y-44474505D01*
X55650000Y-44450001D01*
X55650000Y-43549999D01*
X55651204Y-43525495D01*
X55654804Y-43501227D01*
X55660765Y-43477428D01*
X55669030Y-43454329D01*
X55679520Y-43432150D01*
X55692132Y-43411107D01*
X55706747Y-43391401D01*
X55723223Y-43373223D01*
X55741401Y-43356747D01*
X55761107Y-43342132D01*
X55782150Y-43329520D01*
X55804329Y-43319030D01*
X55827428Y-43310765D01*
X55851227Y-43304804D01*
X55875495Y-43301204D01*
X55899999Y-43300000D01*
X56550001Y-43300000D01*
X56574505Y-43301204D01*
X56574505Y-43301204D01*
G37*
D11*
X56225000Y-44000000D03*
D10*
G36*
X58624505Y-43301204D02*
X58648773Y-43304804D01*
X58672572Y-43310765D01*
X58695671Y-43319030D01*
X58717850Y-43329520D01*
X58738893Y-43342132D01*
X58758599Y-43356747D01*
X58776777Y-43373223D01*
X58793253Y-43391401D01*
X58807868Y-43411107D01*
X58820480Y-43432150D01*
X58830970Y-43454329D01*
X58839235Y-43477428D01*
X58845196Y-43501227D01*
X58848796Y-43525495D01*
X58850000Y-43549999D01*
X58850000Y-44450001D01*
X58848796Y-44474505D01*
X58845196Y-44498773D01*
X58839235Y-44522572D01*
X58830970Y-44545671D01*
X58820480Y-44567850D01*
X58807868Y-44588893D01*
X58793253Y-44608599D01*
X58776777Y-44626777D01*
X58758599Y-44643253D01*
X58738893Y-44657868D01*
X58717850Y-44670480D01*
X58695671Y-44680970D01*
X58672572Y-44689235D01*
X58648773Y-44695196D01*
X58624505Y-44698796D01*
X58600001Y-44700000D01*
X57949999Y-44700000D01*
X57925495Y-44698796D01*
X57901227Y-44695196D01*
X57877428Y-44689235D01*
X57854329Y-44680970D01*
X57832150Y-44670480D01*
X57811107Y-44657868D01*
X57791401Y-44643253D01*
X57773223Y-44626777D01*
X57756747Y-44608599D01*
X57742132Y-44588893D01*
X57729520Y-44567850D01*
X57719030Y-44545671D01*
X57710765Y-44522572D01*
X57704804Y-44498773D01*
X57701204Y-44474505D01*
X57700000Y-44450001D01*
X57700000Y-43549999D01*
X57701204Y-43525495D01*
X57704804Y-43501227D01*
X57710765Y-43477428D01*
X57719030Y-43454329D01*
X57729520Y-43432150D01*
X57742132Y-43411107D01*
X57756747Y-43391401D01*
X57773223Y-43373223D01*
X57791401Y-43356747D01*
X57811107Y-43342132D01*
X57832150Y-43329520D01*
X57854329Y-43319030D01*
X57877428Y-43310765D01*
X57901227Y-43304804D01*
X57925495Y-43301204D01*
X57949999Y-43300000D01*
X58600001Y-43300000D01*
X58624505Y-43301204D01*
X58624505Y-43301204D01*
G37*
D11*
X58275000Y-44000000D03*
G04 #@! TD*
D10*
G04 #@! TO.C,R1*
G36*
X71224505Y-35851204D02*
X71248773Y-35854804D01*
X71272572Y-35860765D01*
X71295671Y-35869030D01*
X71317850Y-35879520D01*
X71338893Y-35892132D01*
X71358599Y-35906747D01*
X71376777Y-35923223D01*
X71393253Y-35941401D01*
X71407868Y-35961107D01*
X71420480Y-35982150D01*
X71430970Y-36004329D01*
X71439235Y-36027428D01*
X71445196Y-36051227D01*
X71448796Y-36075495D01*
X71450000Y-36099999D01*
X71450000Y-36750001D01*
X71448796Y-36774505D01*
X71445196Y-36798773D01*
X71439235Y-36822572D01*
X71430970Y-36845671D01*
X71420480Y-36867850D01*
X71407868Y-36888893D01*
X71393253Y-36908599D01*
X71376777Y-36926777D01*
X71358599Y-36943253D01*
X71338893Y-36957868D01*
X71317850Y-36970480D01*
X71295671Y-36980970D01*
X71272572Y-36989235D01*
X71248773Y-36995196D01*
X71224505Y-36998796D01*
X71200001Y-37000000D01*
X70299999Y-37000000D01*
X70275495Y-36998796D01*
X70251227Y-36995196D01*
X70227428Y-36989235D01*
X70204329Y-36980970D01*
X70182150Y-36970480D01*
X70161107Y-36957868D01*
X70141401Y-36943253D01*
X70123223Y-36926777D01*
X70106747Y-36908599D01*
X70092132Y-36888893D01*
X70079520Y-36867850D01*
X70069030Y-36845671D01*
X70060765Y-36822572D01*
X70054804Y-36798773D01*
X70051204Y-36774505D01*
X70050000Y-36750001D01*
X70050000Y-36099999D01*
X70051204Y-36075495D01*
X70054804Y-36051227D01*
X70060765Y-36027428D01*
X70069030Y-36004329D01*
X70079520Y-35982150D01*
X70092132Y-35961107D01*
X70106747Y-35941401D01*
X70123223Y-35923223D01*
X70141401Y-35906747D01*
X70161107Y-35892132D01*
X70182150Y-35879520D01*
X70204329Y-35869030D01*
X70227428Y-35860765D01*
X70251227Y-35854804D01*
X70275495Y-35851204D01*
X70299999Y-35850000D01*
X71200001Y-35850000D01*
X71224505Y-35851204D01*
X71224505Y-35851204D01*
G37*
D11*
X70750000Y-36425000D03*
D10*
G36*
X71224505Y-33801204D02*
X71248773Y-33804804D01*
X71272572Y-33810765D01*
X71295671Y-33819030D01*
X71317850Y-33829520D01*
X71338893Y-33842132D01*
X71358599Y-33856747D01*
X71376777Y-33873223D01*
X71393253Y-33891401D01*
X71407868Y-33911107D01*
X71420480Y-33932150D01*
X71430970Y-33954329D01*
X71439235Y-33977428D01*
X71445196Y-34001227D01*
X71448796Y-34025495D01*
X71450000Y-34049999D01*
X71450000Y-34700001D01*
X71448796Y-34724505D01*
X71445196Y-34748773D01*
X71439235Y-34772572D01*
X71430970Y-34795671D01*
X71420480Y-34817850D01*
X71407868Y-34838893D01*
X71393253Y-34858599D01*
X71376777Y-34876777D01*
X71358599Y-34893253D01*
X71338893Y-34907868D01*
X71317850Y-34920480D01*
X71295671Y-34930970D01*
X71272572Y-34939235D01*
X71248773Y-34945196D01*
X71224505Y-34948796D01*
X71200001Y-34950000D01*
X70299999Y-34950000D01*
X70275495Y-34948796D01*
X70251227Y-34945196D01*
X70227428Y-34939235D01*
X70204329Y-34930970D01*
X70182150Y-34920480D01*
X70161107Y-34907868D01*
X70141401Y-34893253D01*
X70123223Y-34876777D01*
X70106747Y-34858599D01*
X70092132Y-34838893D01*
X70079520Y-34817850D01*
X70069030Y-34795671D01*
X70060765Y-34772572D01*
X70054804Y-34748773D01*
X70051204Y-34724505D01*
X70050000Y-34700001D01*
X70050000Y-34049999D01*
X70051204Y-34025495D01*
X70054804Y-34001227D01*
X70060765Y-33977428D01*
X70069030Y-33954329D01*
X70079520Y-33932150D01*
X70092132Y-33911107D01*
X70106747Y-33891401D01*
X70123223Y-33873223D01*
X70141401Y-33856747D01*
X70161107Y-33842132D01*
X70182150Y-33829520D01*
X70204329Y-33819030D01*
X70227428Y-33810765D01*
X70251227Y-33804804D01*
X70275495Y-33801204D01*
X70299999Y-33800000D01*
X71200001Y-33800000D01*
X71224505Y-33801204D01*
X71224505Y-33801204D01*
G37*
D11*
X70750000Y-34375000D03*
G04 #@! TD*
D10*
G04 #@! TO.C,F2*
G36*
X59477841Y-39200385D02*
X59485607Y-39201537D01*
X59493223Y-39203445D01*
X59500615Y-39206090D01*
X59507712Y-39209446D01*
X59514446Y-39213482D01*
X59520751Y-39218159D01*
X59526569Y-39223431D01*
X59531841Y-39229249D01*
X59536518Y-39235554D01*
X59540554Y-39242288D01*
X59543910Y-39249385D01*
X59546555Y-39256777D01*
X59548463Y-39264393D01*
X59549615Y-39272159D01*
X59550000Y-39280000D01*
X59550000Y-40470000D01*
X59549615Y-40477841D01*
X59548463Y-40485607D01*
X59546555Y-40493223D01*
X59543910Y-40500615D01*
X59540554Y-40507712D01*
X59536518Y-40514446D01*
X59531841Y-40520751D01*
X59526569Y-40526569D01*
X59520751Y-40531841D01*
X59514446Y-40536518D01*
X59507712Y-40540554D01*
X59500615Y-40543910D01*
X59493223Y-40546555D01*
X59485607Y-40548463D01*
X59477841Y-40549615D01*
X59470000Y-40550000D01*
X58830000Y-40550000D01*
X58822159Y-40549615D01*
X58814393Y-40548463D01*
X58806777Y-40546555D01*
X58799385Y-40543910D01*
X58792288Y-40540554D01*
X58785554Y-40536518D01*
X58779249Y-40531841D01*
X58773431Y-40526569D01*
X58768159Y-40520751D01*
X58763482Y-40514446D01*
X58759446Y-40507712D01*
X58756090Y-40500615D01*
X58753445Y-40493223D01*
X58751537Y-40485607D01*
X58750385Y-40477841D01*
X58750000Y-40470000D01*
X58750000Y-39280000D01*
X58750385Y-39272159D01*
X58751537Y-39264393D01*
X58753445Y-39256777D01*
X58756090Y-39249385D01*
X58759446Y-39242288D01*
X58763482Y-39235554D01*
X58768159Y-39229249D01*
X58773431Y-39223431D01*
X58779249Y-39218159D01*
X58785554Y-39213482D01*
X58792288Y-39209446D01*
X58799385Y-39206090D01*
X58806777Y-39203445D01*
X58814393Y-39201537D01*
X58822159Y-39200385D01*
X58830000Y-39200000D01*
X59470000Y-39200000D01*
X59477841Y-39200385D01*
X59477841Y-39200385D01*
G37*
D12*
X59150000Y-39875000D03*
D10*
G36*
X56677841Y-39200385D02*
X56685607Y-39201537D01*
X56693223Y-39203445D01*
X56700615Y-39206090D01*
X56707712Y-39209446D01*
X56714446Y-39213482D01*
X56720751Y-39218159D01*
X56726569Y-39223431D01*
X56731841Y-39229249D01*
X56736518Y-39235554D01*
X56740554Y-39242288D01*
X56743910Y-39249385D01*
X56746555Y-39256777D01*
X56748463Y-39264393D01*
X56749615Y-39272159D01*
X56750000Y-39280000D01*
X56750000Y-40470000D01*
X56749615Y-40477841D01*
X56748463Y-40485607D01*
X56746555Y-40493223D01*
X56743910Y-40500615D01*
X56740554Y-40507712D01*
X56736518Y-40514446D01*
X56731841Y-40520751D01*
X56726569Y-40526569D01*
X56720751Y-40531841D01*
X56714446Y-40536518D01*
X56707712Y-40540554D01*
X56700615Y-40543910D01*
X56693223Y-40546555D01*
X56685607Y-40548463D01*
X56677841Y-40549615D01*
X56670000Y-40550000D01*
X56030000Y-40550000D01*
X56022159Y-40549615D01*
X56014393Y-40548463D01*
X56006777Y-40546555D01*
X55999385Y-40543910D01*
X55992288Y-40540554D01*
X55985554Y-40536518D01*
X55979249Y-40531841D01*
X55973431Y-40526569D01*
X55968159Y-40520751D01*
X55963482Y-40514446D01*
X55959446Y-40507712D01*
X55956090Y-40500615D01*
X55953445Y-40493223D01*
X55951537Y-40485607D01*
X55950385Y-40477841D01*
X55950000Y-40470000D01*
X55950000Y-39280000D01*
X55950385Y-39272159D01*
X55951537Y-39264393D01*
X55953445Y-39256777D01*
X55956090Y-39249385D01*
X55959446Y-39242288D01*
X55963482Y-39235554D01*
X55968159Y-39229249D01*
X55973431Y-39223431D01*
X55979249Y-39218159D01*
X55985554Y-39213482D01*
X55992288Y-39209446D01*
X55999385Y-39206090D01*
X56006777Y-39203445D01*
X56014393Y-39201537D01*
X56022159Y-39200385D01*
X56030000Y-39200000D01*
X56670000Y-39200000D01*
X56677841Y-39200385D01*
X56677841Y-39200385D01*
G37*
D12*
X56350000Y-39875000D03*
D10*
G36*
X58077841Y-39200385D02*
X58085607Y-39201537D01*
X58093223Y-39203445D01*
X58100615Y-39206090D01*
X58107712Y-39209446D01*
X58114446Y-39213482D01*
X58120751Y-39218159D01*
X58126569Y-39223431D01*
X58131841Y-39229249D01*
X58136518Y-39235554D01*
X58140554Y-39242288D01*
X58143910Y-39249385D01*
X58146555Y-39256777D01*
X58148463Y-39264393D01*
X58149615Y-39272159D01*
X58150000Y-39280000D01*
X58150000Y-40470000D01*
X58149615Y-40477841D01*
X58148463Y-40485607D01*
X58146555Y-40493223D01*
X58143910Y-40500615D01*
X58140554Y-40507712D01*
X58136518Y-40514446D01*
X58131841Y-40520751D01*
X58126569Y-40526569D01*
X58120751Y-40531841D01*
X58114446Y-40536518D01*
X58107712Y-40540554D01*
X58100615Y-40543910D01*
X58093223Y-40546555D01*
X58085607Y-40548463D01*
X58077841Y-40549615D01*
X58070000Y-40550000D01*
X57430000Y-40550000D01*
X57422159Y-40549615D01*
X57414393Y-40548463D01*
X57406777Y-40546555D01*
X57399385Y-40543910D01*
X57392288Y-40540554D01*
X57385554Y-40536518D01*
X57379249Y-40531841D01*
X57373431Y-40526569D01*
X57368159Y-40520751D01*
X57363482Y-40514446D01*
X57359446Y-40507712D01*
X57356090Y-40500615D01*
X57353445Y-40493223D01*
X57351537Y-40485607D01*
X57350385Y-40477841D01*
X57350000Y-40470000D01*
X57350000Y-39280000D01*
X57350385Y-39272159D01*
X57351537Y-39264393D01*
X57353445Y-39256777D01*
X57356090Y-39249385D01*
X57359446Y-39242288D01*
X57363482Y-39235554D01*
X57368159Y-39229249D01*
X57373431Y-39223431D01*
X57379249Y-39218159D01*
X57385554Y-39213482D01*
X57392288Y-39209446D01*
X57399385Y-39206090D01*
X57406777Y-39203445D01*
X57414393Y-39201537D01*
X57422159Y-39200385D01*
X57430000Y-39200000D01*
X58070000Y-39200000D01*
X58077841Y-39200385D01*
X58077841Y-39200385D01*
G37*
D12*
X57750000Y-39875000D03*
D10*
G36*
X59477841Y-36450385D02*
X59485607Y-36451537D01*
X59493223Y-36453445D01*
X59500615Y-36456090D01*
X59507712Y-36459446D01*
X59514446Y-36463482D01*
X59520751Y-36468159D01*
X59526569Y-36473431D01*
X59531841Y-36479249D01*
X59536518Y-36485554D01*
X59540554Y-36492288D01*
X59543910Y-36499385D01*
X59546555Y-36506777D01*
X59548463Y-36514393D01*
X59549615Y-36522159D01*
X59550000Y-36530000D01*
X59550000Y-37720000D01*
X59549615Y-37727841D01*
X59548463Y-37735607D01*
X59546555Y-37743223D01*
X59543910Y-37750615D01*
X59540554Y-37757712D01*
X59536518Y-37764446D01*
X59531841Y-37770751D01*
X59526569Y-37776569D01*
X59520751Y-37781841D01*
X59514446Y-37786518D01*
X59507712Y-37790554D01*
X59500615Y-37793910D01*
X59493223Y-37796555D01*
X59485607Y-37798463D01*
X59477841Y-37799615D01*
X59470000Y-37800000D01*
X58830000Y-37800000D01*
X58822159Y-37799615D01*
X58814393Y-37798463D01*
X58806777Y-37796555D01*
X58799385Y-37793910D01*
X58792288Y-37790554D01*
X58785554Y-37786518D01*
X58779249Y-37781841D01*
X58773431Y-37776569D01*
X58768159Y-37770751D01*
X58763482Y-37764446D01*
X58759446Y-37757712D01*
X58756090Y-37750615D01*
X58753445Y-37743223D01*
X58751537Y-37735607D01*
X58750385Y-37727841D01*
X58750000Y-37720000D01*
X58750000Y-36530000D01*
X58750385Y-36522159D01*
X58751537Y-36514393D01*
X58753445Y-36506777D01*
X58756090Y-36499385D01*
X58759446Y-36492288D01*
X58763482Y-36485554D01*
X58768159Y-36479249D01*
X58773431Y-36473431D01*
X58779249Y-36468159D01*
X58785554Y-36463482D01*
X58792288Y-36459446D01*
X58799385Y-36456090D01*
X58806777Y-36453445D01*
X58814393Y-36451537D01*
X58822159Y-36450385D01*
X58830000Y-36450000D01*
X59470000Y-36450000D01*
X59477841Y-36450385D01*
X59477841Y-36450385D01*
G37*
D12*
X59150000Y-37125000D03*
D10*
G36*
X56677841Y-36450385D02*
X56685607Y-36451537D01*
X56693223Y-36453445D01*
X56700615Y-36456090D01*
X56707712Y-36459446D01*
X56714446Y-36463482D01*
X56720751Y-36468159D01*
X56726569Y-36473431D01*
X56731841Y-36479249D01*
X56736518Y-36485554D01*
X56740554Y-36492288D01*
X56743910Y-36499385D01*
X56746555Y-36506777D01*
X56748463Y-36514393D01*
X56749615Y-36522159D01*
X56750000Y-36530000D01*
X56750000Y-37720000D01*
X56749615Y-37727841D01*
X56748463Y-37735607D01*
X56746555Y-37743223D01*
X56743910Y-37750615D01*
X56740554Y-37757712D01*
X56736518Y-37764446D01*
X56731841Y-37770751D01*
X56726569Y-37776569D01*
X56720751Y-37781841D01*
X56714446Y-37786518D01*
X56707712Y-37790554D01*
X56700615Y-37793910D01*
X56693223Y-37796555D01*
X56685607Y-37798463D01*
X56677841Y-37799615D01*
X56670000Y-37800000D01*
X56030000Y-37800000D01*
X56022159Y-37799615D01*
X56014393Y-37798463D01*
X56006777Y-37796555D01*
X55999385Y-37793910D01*
X55992288Y-37790554D01*
X55985554Y-37786518D01*
X55979249Y-37781841D01*
X55973431Y-37776569D01*
X55968159Y-37770751D01*
X55963482Y-37764446D01*
X55959446Y-37757712D01*
X55956090Y-37750615D01*
X55953445Y-37743223D01*
X55951537Y-37735607D01*
X55950385Y-37727841D01*
X55950000Y-37720000D01*
X55950000Y-36530000D01*
X55950385Y-36522159D01*
X55951537Y-36514393D01*
X55953445Y-36506777D01*
X55956090Y-36499385D01*
X55959446Y-36492288D01*
X55963482Y-36485554D01*
X55968159Y-36479249D01*
X55973431Y-36473431D01*
X55979249Y-36468159D01*
X55985554Y-36463482D01*
X55992288Y-36459446D01*
X55999385Y-36456090D01*
X56006777Y-36453445D01*
X56014393Y-36451537D01*
X56022159Y-36450385D01*
X56030000Y-36450000D01*
X56670000Y-36450000D01*
X56677841Y-36450385D01*
X56677841Y-36450385D01*
G37*
D12*
X56350000Y-37125000D03*
D10*
G36*
X58077841Y-36450385D02*
X58085607Y-36451537D01*
X58093223Y-36453445D01*
X58100615Y-36456090D01*
X58107712Y-36459446D01*
X58114446Y-36463482D01*
X58120751Y-36468159D01*
X58126569Y-36473431D01*
X58131841Y-36479249D01*
X58136518Y-36485554D01*
X58140554Y-36492288D01*
X58143910Y-36499385D01*
X58146555Y-36506777D01*
X58148463Y-36514393D01*
X58149615Y-36522159D01*
X58150000Y-36530000D01*
X58150000Y-37720000D01*
X58149615Y-37727841D01*
X58148463Y-37735607D01*
X58146555Y-37743223D01*
X58143910Y-37750615D01*
X58140554Y-37757712D01*
X58136518Y-37764446D01*
X58131841Y-37770751D01*
X58126569Y-37776569D01*
X58120751Y-37781841D01*
X58114446Y-37786518D01*
X58107712Y-37790554D01*
X58100615Y-37793910D01*
X58093223Y-37796555D01*
X58085607Y-37798463D01*
X58077841Y-37799615D01*
X58070000Y-37800000D01*
X57430000Y-37800000D01*
X57422159Y-37799615D01*
X57414393Y-37798463D01*
X57406777Y-37796555D01*
X57399385Y-37793910D01*
X57392288Y-37790554D01*
X57385554Y-37786518D01*
X57379249Y-37781841D01*
X57373431Y-37776569D01*
X57368159Y-37770751D01*
X57363482Y-37764446D01*
X57359446Y-37757712D01*
X57356090Y-37750615D01*
X57353445Y-37743223D01*
X57351537Y-37735607D01*
X57350385Y-37727841D01*
X57350000Y-37720000D01*
X57350000Y-36530000D01*
X57350385Y-36522159D01*
X57351537Y-36514393D01*
X57353445Y-36506777D01*
X57356090Y-36499385D01*
X57359446Y-36492288D01*
X57363482Y-36485554D01*
X57368159Y-36479249D01*
X57373431Y-36473431D01*
X57379249Y-36468159D01*
X57385554Y-36463482D01*
X57392288Y-36459446D01*
X57399385Y-36456090D01*
X57406777Y-36453445D01*
X57414393Y-36451537D01*
X57422159Y-36450385D01*
X57430000Y-36450000D01*
X58070000Y-36450000D01*
X58077841Y-36450385D01*
X58077841Y-36450385D01*
G37*
D12*
X57750000Y-37125000D03*
G04 #@! TD*
D13*
G04 #@! TO.C,U1*
X68650000Y-44175000D03*
X68650000Y-43525000D03*
X68650000Y-42875000D03*
X68650000Y-42225000D03*
X68650000Y-41575000D03*
X68650000Y-40925000D03*
X68650000Y-40275000D03*
X68650000Y-39625000D03*
X68650000Y-38975000D03*
X68650000Y-38325000D03*
X62850000Y-38325000D03*
X62850000Y-38975000D03*
X62850000Y-39625000D03*
X62850000Y-40275000D03*
X62850000Y-40925000D03*
X62850000Y-41575000D03*
X62850000Y-42225000D03*
X62850000Y-42875000D03*
X62850000Y-43525000D03*
X62850000Y-44175000D03*
G04 #@! TD*
D10*
G04 #@! TO.C,F1*
G36*
X64977841Y-46600385D02*
X64985607Y-46601537D01*
X64993223Y-46603445D01*
X65000615Y-46606090D01*
X65007712Y-46609446D01*
X65014446Y-46613482D01*
X65020751Y-46618159D01*
X65026569Y-46623431D01*
X65031841Y-46629249D01*
X65036518Y-46635554D01*
X65040554Y-46642288D01*
X65043910Y-46649385D01*
X65046555Y-46656777D01*
X65048463Y-46664393D01*
X65049615Y-46672159D01*
X65050000Y-46680000D01*
X65050000Y-47320000D01*
X65049615Y-47327841D01*
X65048463Y-47335607D01*
X65046555Y-47343223D01*
X65043910Y-47350615D01*
X65040554Y-47357712D01*
X65036518Y-47364446D01*
X65031841Y-47370751D01*
X65026569Y-47376569D01*
X65020751Y-47381841D01*
X65014446Y-47386518D01*
X65007712Y-47390554D01*
X65000615Y-47393910D01*
X64993223Y-47396555D01*
X64985607Y-47398463D01*
X64977841Y-47399615D01*
X64970000Y-47400000D01*
X63780000Y-47400000D01*
X63772159Y-47399615D01*
X63764393Y-47398463D01*
X63756777Y-47396555D01*
X63749385Y-47393910D01*
X63742288Y-47390554D01*
X63735554Y-47386518D01*
X63729249Y-47381841D01*
X63723431Y-47376569D01*
X63718159Y-47370751D01*
X63713482Y-47364446D01*
X63709446Y-47357712D01*
X63706090Y-47350615D01*
X63703445Y-47343223D01*
X63701537Y-47335607D01*
X63700385Y-47327841D01*
X63700000Y-47320000D01*
X63700000Y-46680000D01*
X63700385Y-46672159D01*
X63701537Y-46664393D01*
X63703445Y-46656777D01*
X63706090Y-46649385D01*
X63709446Y-46642288D01*
X63713482Y-46635554D01*
X63718159Y-46629249D01*
X63723431Y-46623431D01*
X63729249Y-46618159D01*
X63735554Y-46613482D01*
X63742288Y-46609446D01*
X63749385Y-46606090D01*
X63756777Y-46603445D01*
X63764393Y-46601537D01*
X63772159Y-46600385D01*
X63780000Y-46600000D01*
X64970000Y-46600000D01*
X64977841Y-46600385D01*
X64977841Y-46600385D01*
G37*
D12*
X64375000Y-47000000D03*
D10*
G36*
X64977841Y-45200385D02*
X64985607Y-45201537D01*
X64993223Y-45203445D01*
X65000615Y-45206090D01*
X65007712Y-45209446D01*
X65014446Y-45213482D01*
X65020751Y-45218159D01*
X65026569Y-45223431D01*
X65031841Y-45229249D01*
X65036518Y-45235554D01*
X65040554Y-45242288D01*
X65043910Y-45249385D01*
X65046555Y-45256777D01*
X65048463Y-45264393D01*
X65049615Y-45272159D01*
X65050000Y-45280000D01*
X65050000Y-45920000D01*
X65049615Y-45927841D01*
X65048463Y-45935607D01*
X65046555Y-45943223D01*
X65043910Y-45950615D01*
X65040554Y-45957712D01*
X65036518Y-45964446D01*
X65031841Y-45970751D01*
X65026569Y-45976569D01*
X65020751Y-45981841D01*
X65014446Y-45986518D01*
X65007712Y-45990554D01*
X65000615Y-45993910D01*
X64993223Y-45996555D01*
X64985607Y-45998463D01*
X64977841Y-45999615D01*
X64970000Y-46000000D01*
X63780000Y-46000000D01*
X63772159Y-45999615D01*
X63764393Y-45998463D01*
X63756777Y-45996555D01*
X63749385Y-45993910D01*
X63742288Y-45990554D01*
X63735554Y-45986518D01*
X63729249Y-45981841D01*
X63723431Y-45976569D01*
X63718159Y-45970751D01*
X63713482Y-45964446D01*
X63709446Y-45957712D01*
X63706090Y-45950615D01*
X63703445Y-45943223D01*
X63701537Y-45935607D01*
X63700385Y-45927841D01*
X63700000Y-45920000D01*
X63700000Y-45280000D01*
X63700385Y-45272159D01*
X63701537Y-45264393D01*
X63703445Y-45256777D01*
X63706090Y-45249385D01*
X63709446Y-45242288D01*
X63713482Y-45235554D01*
X63718159Y-45229249D01*
X63723431Y-45223431D01*
X63729249Y-45218159D01*
X63735554Y-45213482D01*
X63742288Y-45209446D01*
X63749385Y-45206090D01*
X63756777Y-45203445D01*
X63764393Y-45201537D01*
X63772159Y-45200385D01*
X63780000Y-45200000D01*
X64970000Y-45200000D01*
X64977841Y-45200385D01*
X64977841Y-45200385D01*
G37*
D12*
X64375000Y-45600000D03*
D10*
G36*
X64977841Y-48000385D02*
X64985607Y-48001537D01*
X64993223Y-48003445D01*
X65000615Y-48006090D01*
X65007712Y-48009446D01*
X65014446Y-48013482D01*
X65020751Y-48018159D01*
X65026569Y-48023431D01*
X65031841Y-48029249D01*
X65036518Y-48035554D01*
X65040554Y-48042288D01*
X65043910Y-48049385D01*
X65046555Y-48056777D01*
X65048463Y-48064393D01*
X65049615Y-48072159D01*
X65050000Y-48080000D01*
X65050000Y-48720000D01*
X65049615Y-48727841D01*
X65048463Y-48735607D01*
X65046555Y-48743223D01*
X65043910Y-48750615D01*
X65040554Y-48757712D01*
X65036518Y-48764446D01*
X65031841Y-48770751D01*
X65026569Y-48776569D01*
X65020751Y-48781841D01*
X65014446Y-48786518D01*
X65007712Y-48790554D01*
X65000615Y-48793910D01*
X64993223Y-48796555D01*
X64985607Y-48798463D01*
X64977841Y-48799615D01*
X64970000Y-48800000D01*
X63780000Y-48800000D01*
X63772159Y-48799615D01*
X63764393Y-48798463D01*
X63756777Y-48796555D01*
X63749385Y-48793910D01*
X63742288Y-48790554D01*
X63735554Y-48786518D01*
X63729249Y-48781841D01*
X63723431Y-48776569D01*
X63718159Y-48770751D01*
X63713482Y-48764446D01*
X63709446Y-48757712D01*
X63706090Y-48750615D01*
X63703445Y-48743223D01*
X63701537Y-48735607D01*
X63700385Y-48727841D01*
X63700000Y-48720000D01*
X63700000Y-48080000D01*
X63700385Y-48072159D01*
X63701537Y-48064393D01*
X63703445Y-48056777D01*
X63706090Y-48049385D01*
X63709446Y-48042288D01*
X63713482Y-48035554D01*
X63718159Y-48029249D01*
X63723431Y-48023431D01*
X63729249Y-48018159D01*
X63735554Y-48013482D01*
X63742288Y-48009446D01*
X63749385Y-48006090D01*
X63756777Y-48003445D01*
X63764393Y-48001537D01*
X63772159Y-48000385D01*
X63780000Y-48000000D01*
X64970000Y-48000000D01*
X64977841Y-48000385D01*
X64977841Y-48000385D01*
G37*
D12*
X64375000Y-48400000D03*
D10*
G36*
X62227841Y-46600385D02*
X62235607Y-46601537D01*
X62243223Y-46603445D01*
X62250615Y-46606090D01*
X62257712Y-46609446D01*
X62264446Y-46613482D01*
X62270751Y-46618159D01*
X62276569Y-46623431D01*
X62281841Y-46629249D01*
X62286518Y-46635554D01*
X62290554Y-46642288D01*
X62293910Y-46649385D01*
X62296555Y-46656777D01*
X62298463Y-46664393D01*
X62299615Y-46672159D01*
X62300000Y-46680000D01*
X62300000Y-47320000D01*
X62299615Y-47327841D01*
X62298463Y-47335607D01*
X62296555Y-47343223D01*
X62293910Y-47350615D01*
X62290554Y-47357712D01*
X62286518Y-47364446D01*
X62281841Y-47370751D01*
X62276569Y-47376569D01*
X62270751Y-47381841D01*
X62264446Y-47386518D01*
X62257712Y-47390554D01*
X62250615Y-47393910D01*
X62243223Y-47396555D01*
X62235607Y-47398463D01*
X62227841Y-47399615D01*
X62220000Y-47400000D01*
X61030000Y-47400000D01*
X61022159Y-47399615D01*
X61014393Y-47398463D01*
X61006777Y-47396555D01*
X60999385Y-47393910D01*
X60992288Y-47390554D01*
X60985554Y-47386518D01*
X60979249Y-47381841D01*
X60973431Y-47376569D01*
X60968159Y-47370751D01*
X60963482Y-47364446D01*
X60959446Y-47357712D01*
X60956090Y-47350615D01*
X60953445Y-47343223D01*
X60951537Y-47335607D01*
X60950385Y-47327841D01*
X60950000Y-47320000D01*
X60950000Y-46680000D01*
X60950385Y-46672159D01*
X60951537Y-46664393D01*
X60953445Y-46656777D01*
X60956090Y-46649385D01*
X60959446Y-46642288D01*
X60963482Y-46635554D01*
X60968159Y-46629249D01*
X60973431Y-46623431D01*
X60979249Y-46618159D01*
X60985554Y-46613482D01*
X60992288Y-46609446D01*
X60999385Y-46606090D01*
X61006777Y-46603445D01*
X61014393Y-46601537D01*
X61022159Y-46600385D01*
X61030000Y-46600000D01*
X62220000Y-46600000D01*
X62227841Y-46600385D01*
X62227841Y-46600385D01*
G37*
D12*
X61625000Y-47000000D03*
D10*
G36*
X62227841Y-45200385D02*
X62235607Y-45201537D01*
X62243223Y-45203445D01*
X62250615Y-45206090D01*
X62257712Y-45209446D01*
X62264446Y-45213482D01*
X62270751Y-45218159D01*
X62276569Y-45223431D01*
X62281841Y-45229249D01*
X62286518Y-45235554D01*
X62290554Y-45242288D01*
X62293910Y-45249385D01*
X62296555Y-45256777D01*
X62298463Y-45264393D01*
X62299615Y-45272159D01*
X62300000Y-45280000D01*
X62300000Y-45920000D01*
X62299615Y-45927841D01*
X62298463Y-45935607D01*
X62296555Y-45943223D01*
X62293910Y-45950615D01*
X62290554Y-45957712D01*
X62286518Y-45964446D01*
X62281841Y-45970751D01*
X62276569Y-45976569D01*
X62270751Y-45981841D01*
X62264446Y-45986518D01*
X62257712Y-45990554D01*
X62250615Y-45993910D01*
X62243223Y-45996555D01*
X62235607Y-45998463D01*
X62227841Y-45999615D01*
X62220000Y-46000000D01*
X61030000Y-46000000D01*
X61022159Y-45999615D01*
X61014393Y-45998463D01*
X61006777Y-45996555D01*
X60999385Y-45993910D01*
X60992288Y-45990554D01*
X60985554Y-45986518D01*
X60979249Y-45981841D01*
X60973431Y-45976569D01*
X60968159Y-45970751D01*
X60963482Y-45964446D01*
X60959446Y-45957712D01*
X60956090Y-45950615D01*
X60953445Y-45943223D01*
X60951537Y-45935607D01*
X60950385Y-45927841D01*
X60950000Y-45920000D01*
X60950000Y-45280000D01*
X60950385Y-45272159D01*
X60951537Y-45264393D01*
X60953445Y-45256777D01*
X60956090Y-45249385D01*
X60959446Y-45242288D01*
X60963482Y-45235554D01*
X60968159Y-45229249D01*
X60973431Y-45223431D01*
X60979249Y-45218159D01*
X60985554Y-45213482D01*
X60992288Y-45209446D01*
X60999385Y-45206090D01*
X61006777Y-45203445D01*
X61014393Y-45201537D01*
X61022159Y-45200385D01*
X61030000Y-45200000D01*
X62220000Y-45200000D01*
X62227841Y-45200385D01*
X62227841Y-45200385D01*
G37*
D12*
X61625000Y-45600000D03*
D10*
G36*
X62227841Y-48000385D02*
X62235607Y-48001537D01*
X62243223Y-48003445D01*
X62250615Y-48006090D01*
X62257712Y-48009446D01*
X62264446Y-48013482D01*
X62270751Y-48018159D01*
X62276569Y-48023431D01*
X62281841Y-48029249D01*
X62286518Y-48035554D01*
X62290554Y-48042288D01*
X62293910Y-48049385D01*
X62296555Y-48056777D01*
X62298463Y-48064393D01*
X62299615Y-48072159D01*
X62300000Y-48080000D01*
X62300000Y-48720000D01*
X62299615Y-48727841D01*
X62298463Y-48735607D01*
X62296555Y-48743223D01*
X62293910Y-48750615D01*
X62290554Y-48757712D01*
X62286518Y-48764446D01*
X62281841Y-48770751D01*
X62276569Y-48776569D01*
X62270751Y-48781841D01*
X62264446Y-48786518D01*
X62257712Y-48790554D01*
X62250615Y-48793910D01*
X62243223Y-48796555D01*
X62235607Y-48798463D01*
X62227841Y-48799615D01*
X62220000Y-48800000D01*
X61030000Y-48800000D01*
X61022159Y-48799615D01*
X61014393Y-48798463D01*
X61006777Y-48796555D01*
X60999385Y-48793910D01*
X60992288Y-48790554D01*
X60985554Y-48786518D01*
X60979249Y-48781841D01*
X60973431Y-48776569D01*
X60968159Y-48770751D01*
X60963482Y-48764446D01*
X60959446Y-48757712D01*
X60956090Y-48750615D01*
X60953445Y-48743223D01*
X60951537Y-48735607D01*
X60950385Y-48727841D01*
X60950000Y-48720000D01*
X60950000Y-48080000D01*
X60950385Y-48072159D01*
X60951537Y-48064393D01*
X60953445Y-48056777D01*
X60956090Y-48049385D01*
X60959446Y-48042288D01*
X60963482Y-48035554D01*
X60968159Y-48029249D01*
X60973431Y-48023431D01*
X60979249Y-48018159D01*
X60985554Y-48013482D01*
X60992288Y-48009446D01*
X60999385Y-48006090D01*
X61006777Y-48003445D01*
X61014393Y-48001537D01*
X61022159Y-48000385D01*
X61030000Y-48000000D01*
X62220000Y-48000000D01*
X62227841Y-48000385D01*
X62227841Y-48000385D01*
G37*
D12*
X61625000Y-48400000D03*
G04 #@! TD*
D14*
G04 #@! TO.C,LO_U1*
X93200000Y-39500000D03*
X93200000Y-39000000D03*
X93200000Y-38500000D03*
X93200000Y-38000000D03*
X93200000Y-37500000D03*
X88800000Y-37500000D03*
X88800000Y-38000000D03*
X88800000Y-38500000D03*
X88800000Y-39000000D03*
X88800000Y-39500000D03*
G04 #@! TD*
D15*
G04 #@! TO.C,LOTRIM1*
X77150000Y-42350000D03*
X81050000Y-42350000D03*
G04 #@! TD*
G04 #@! TO.C,QTRIM1*
X63450000Y-32250000D03*
X59550000Y-32250000D03*
G04 #@! TD*
G04 #@! TO.C,RFTRIM1*
X83450000Y-50800000D03*
X79550000Y-50800000D03*
G04 #@! TD*
D10*
G04 #@! TO.C,C16*
G36*
X67055142Y-33951174D02*
X67078803Y-33954684D01*
X67102007Y-33960496D01*
X67124529Y-33968554D01*
X67146153Y-33978782D01*
X67166670Y-33991079D01*
X67185883Y-34005329D01*
X67203607Y-34021393D01*
X67219671Y-34039117D01*
X67233921Y-34058330D01*
X67246218Y-34078847D01*
X67256446Y-34100471D01*
X67264504Y-34122993D01*
X67270316Y-34146197D01*
X67273826Y-34169858D01*
X67275000Y-34193750D01*
X67275000Y-35106250D01*
X67273826Y-35130142D01*
X67270316Y-35153803D01*
X67264504Y-35177007D01*
X67256446Y-35199529D01*
X67246218Y-35221153D01*
X67233921Y-35241670D01*
X67219671Y-35260883D01*
X67203607Y-35278607D01*
X67185883Y-35294671D01*
X67166670Y-35308921D01*
X67146153Y-35321218D01*
X67124529Y-35331446D01*
X67102007Y-35339504D01*
X67078803Y-35345316D01*
X67055142Y-35348826D01*
X67031250Y-35350000D01*
X66543750Y-35350000D01*
X66519858Y-35348826D01*
X66496197Y-35345316D01*
X66472993Y-35339504D01*
X66450471Y-35331446D01*
X66428847Y-35321218D01*
X66408330Y-35308921D01*
X66389117Y-35294671D01*
X66371393Y-35278607D01*
X66355329Y-35260883D01*
X66341079Y-35241670D01*
X66328782Y-35221153D01*
X66318554Y-35199529D01*
X66310496Y-35177007D01*
X66304684Y-35153803D01*
X66301174Y-35130142D01*
X66300000Y-35106250D01*
X66300000Y-34193750D01*
X66301174Y-34169858D01*
X66304684Y-34146197D01*
X66310496Y-34122993D01*
X66318554Y-34100471D01*
X66328782Y-34078847D01*
X66341079Y-34058330D01*
X66355329Y-34039117D01*
X66371393Y-34021393D01*
X66389117Y-34005329D01*
X66408330Y-33991079D01*
X66428847Y-33978782D01*
X66450471Y-33968554D01*
X66472993Y-33960496D01*
X66496197Y-33954684D01*
X66519858Y-33951174D01*
X66543750Y-33950000D01*
X67031250Y-33950000D01*
X67055142Y-33951174D01*
X67055142Y-33951174D01*
G37*
D16*
X66787500Y-34650000D03*
D10*
G36*
X65180142Y-33951174D02*
X65203803Y-33954684D01*
X65227007Y-33960496D01*
X65249529Y-33968554D01*
X65271153Y-33978782D01*
X65291670Y-33991079D01*
X65310883Y-34005329D01*
X65328607Y-34021393D01*
X65344671Y-34039117D01*
X65358921Y-34058330D01*
X65371218Y-34078847D01*
X65381446Y-34100471D01*
X65389504Y-34122993D01*
X65395316Y-34146197D01*
X65398826Y-34169858D01*
X65400000Y-34193750D01*
X65400000Y-35106250D01*
X65398826Y-35130142D01*
X65395316Y-35153803D01*
X65389504Y-35177007D01*
X65381446Y-35199529D01*
X65371218Y-35221153D01*
X65358921Y-35241670D01*
X65344671Y-35260883D01*
X65328607Y-35278607D01*
X65310883Y-35294671D01*
X65291670Y-35308921D01*
X65271153Y-35321218D01*
X65249529Y-35331446D01*
X65227007Y-35339504D01*
X65203803Y-35345316D01*
X65180142Y-35348826D01*
X65156250Y-35350000D01*
X64668750Y-35350000D01*
X64644858Y-35348826D01*
X64621197Y-35345316D01*
X64597993Y-35339504D01*
X64575471Y-35331446D01*
X64553847Y-35321218D01*
X64533330Y-35308921D01*
X64514117Y-35294671D01*
X64496393Y-35278607D01*
X64480329Y-35260883D01*
X64466079Y-35241670D01*
X64453782Y-35221153D01*
X64443554Y-35199529D01*
X64435496Y-35177007D01*
X64429684Y-35153803D01*
X64426174Y-35130142D01*
X64425000Y-35106250D01*
X64425000Y-34193750D01*
X64426174Y-34169858D01*
X64429684Y-34146197D01*
X64435496Y-34122993D01*
X64443554Y-34100471D01*
X64453782Y-34078847D01*
X64466079Y-34058330D01*
X64480329Y-34039117D01*
X64496393Y-34021393D01*
X64514117Y-34005329D01*
X64533330Y-33991079D01*
X64553847Y-33978782D01*
X64575471Y-33968554D01*
X64597993Y-33960496D01*
X64621197Y-33954684D01*
X64644858Y-33951174D01*
X64668750Y-33950000D01*
X65156250Y-33950000D01*
X65180142Y-33951174D01*
X65180142Y-33951174D01*
G37*
D16*
X64912500Y-34650000D03*
G04 #@! TD*
D10*
G04 #@! TO.C,C17*
G36*
X66580142Y-45551174D02*
X66603803Y-45554684D01*
X66627007Y-45560496D01*
X66649529Y-45568554D01*
X66671153Y-45578782D01*
X66691670Y-45591079D01*
X66710883Y-45605329D01*
X66728607Y-45621393D01*
X66744671Y-45639117D01*
X66758921Y-45658330D01*
X66771218Y-45678847D01*
X66781446Y-45700471D01*
X66789504Y-45722993D01*
X66795316Y-45746197D01*
X66798826Y-45769858D01*
X66800000Y-45793750D01*
X66800000Y-46706250D01*
X66798826Y-46730142D01*
X66795316Y-46753803D01*
X66789504Y-46777007D01*
X66781446Y-46799529D01*
X66771218Y-46821153D01*
X66758921Y-46841670D01*
X66744671Y-46860883D01*
X66728607Y-46878607D01*
X66710883Y-46894671D01*
X66691670Y-46908921D01*
X66671153Y-46921218D01*
X66649529Y-46931446D01*
X66627007Y-46939504D01*
X66603803Y-46945316D01*
X66580142Y-46948826D01*
X66556250Y-46950000D01*
X66068750Y-46950000D01*
X66044858Y-46948826D01*
X66021197Y-46945316D01*
X65997993Y-46939504D01*
X65975471Y-46931446D01*
X65953847Y-46921218D01*
X65933330Y-46908921D01*
X65914117Y-46894671D01*
X65896393Y-46878607D01*
X65880329Y-46860883D01*
X65866079Y-46841670D01*
X65853782Y-46821153D01*
X65843554Y-46799529D01*
X65835496Y-46777007D01*
X65829684Y-46753803D01*
X65826174Y-46730142D01*
X65825000Y-46706250D01*
X65825000Y-45793750D01*
X65826174Y-45769858D01*
X65829684Y-45746197D01*
X65835496Y-45722993D01*
X65843554Y-45700471D01*
X65853782Y-45678847D01*
X65866079Y-45658330D01*
X65880329Y-45639117D01*
X65896393Y-45621393D01*
X65914117Y-45605329D01*
X65933330Y-45591079D01*
X65953847Y-45578782D01*
X65975471Y-45568554D01*
X65997993Y-45560496D01*
X66021197Y-45554684D01*
X66044858Y-45551174D01*
X66068750Y-45550000D01*
X66556250Y-45550000D01*
X66580142Y-45551174D01*
X66580142Y-45551174D01*
G37*
D16*
X66312500Y-46250000D03*
D10*
G36*
X68455142Y-45551174D02*
X68478803Y-45554684D01*
X68502007Y-45560496D01*
X68524529Y-45568554D01*
X68546153Y-45578782D01*
X68566670Y-45591079D01*
X68585883Y-45605329D01*
X68603607Y-45621393D01*
X68619671Y-45639117D01*
X68633921Y-45658330D01*
X68646218Y-45678847D01*
X68656446Y-45700471D01*
X68664504Y-45722993D01*
X68670316Y-45746197D01*
X68673826Y-45769858D01*
X68675000Y-45793750D01*
X68675000Y-46706250D01*
X68673826Y-46730142D01*
X68670316Y-46753803D01*
X68664504Y-46777007D01*
X68656446Y-46799529D01*
X68646218Y-46821153D01*
X68633921Y-46841670D01*
X68619671Y-46860883D01*
X68603607Y-46878607D01*
X68585883Y-46894671D01*
X68566670Y-46908921D01*
X68546153Y-46921218D01*
X68524529Y-46931446D01*
X68502007Y-46939504D01*
X68478803Y-46945316D01*
X68455142Y-46948826D01*
X68431250Y-46950000D01*
X67943750Y-46950000D01*
X67919858Y-46948826D01*
X67896197Y-46945316D01*
X67872993Y-46939504D01*
X67850471Y-46931446D01*
X67828847Y-46921218D01*
X67808330Y-46908921D01*
X67789117Y-46894671D01*
X67771393Y-46878607D01*
X67755329Y-46860883D01*
X67741079Y-46841670D01*
X67728782Y-46821153D01*
X67718554Y-46799529D01*
X67710496Y-46777007D01*
X67704684Y-46753803D01*
X67701174Y-46730142D01*
X67700000Y-46706250D01*
X67700000Y-45793750D01*
X67701174Y-45769858D01*
X67704684Y-45746197D01*
X67710496Y-45722993D01*
X67718554Y-45700471D01*
X67728782Y-45678847D01*
X67741079Y-45658330D01*
X67755329Y-45639117D01*
X67771393Y-45621393D01*
X67789117Y-45605329D01*
X67808330Y-45591079D01*
X67828847Y-45578782D01*
X67850471Y-45568554D01*
X67872993Y-45560496D01*
X67896197Y-45554684D01*
X67919858Y-45551174D01*
X67943750Y-45550000D01*
X68431250Y-45550000D01*
X68455142Y-45551174D01*
X68455142Y-45551174D01*
G37*
D16*
X68187500Y-46250000D03*
G04 #@! TD*
D10*
G04 #@! TO.C,C18*
G36*
X65180142Y-35951174D02*
X65203803Y-35954684D01*
X65227007Y-35960496D01*
X65249529Y-35968554D01*
X65271153Y-35978782D01*
X65291670Y-35991079D01*
X65310883Y-36005329D01*
X65328607Y-36021393D01*
X65344671Y-36039117D01*
X65358921Y-36058330D01*
X65371218Y-36078847D01*
X65381446Y-36100471D01*
X65389504Y-36122993D01*
X65395316Y-36146197D01*
X65398826Y-36169858D01*
X65400000Y-36193750D01*
X65400000Y-37106250D01*
X65398826Y-37130142D01*
X65395316Y-37153803D01*
X65389504Y-37177007D01*
X65381446Y-37199529D01*
X65371218Y-37221153D01*
X65358921Y-37241670D01*
X65344671Y-37260883D01*
X65328607Y-37278607D01*
X65310883Y-37294671D01*
X65291670Y-37308921D01*
X65271153Y-37321218D01*
X65249529Y-37331446D01*
X65227007Y-37339504D01*
X65203803Y-37345316D01*
X65180142Y-37348826D01*
X65156250Y-37350000D01*
X64668750Y-37350000D01*
X64644858Y-37348826D01*
X64621197Y-37345316D01*
X64597993Y-37339504D01*
X64575471Y-37331446D01*
X64553847Y-37321218D01*
X64533330Y-37308921D01*
X64514117Y-37294671D01*
X64496393Y-37278607D01*
X64480329Y-37260883D01*
X64466079Y-37241670D01*
X64453782Y-37221153D01*
X64443554Y-37199529D01*
X64435496Y-37177007D01*
X64429684Y-37153803D01*
X64426174Y-37130142D01*
X64425000Y-37106250D01*
X64425000Y-36193750D01*
X64426174Y-36169858D01*
X64429684Y-36146197D01*
X64435496Y-36122993D01*
X64443554Y-36100471D01*
X64453782Y-36078847D01*
X64466079Y-36058330D01*
X64480329Y-36039117D01*
X64496393Y-36021393D01*
X64514117Y-36005329D01*
X64533330Y-35991079D01*
X64553847Y-35978782D01*
X64575471Y-35968554D01*
X64597993Y-35960496D01*
X64621197Y-35954684D01*
X64644858Y-35951174D01*
X64668750Y-35950000D01*
X65156250Y-35950000D01*
X65180142Y-35951174D01*
X65180142Y-35951174D01*
G37*
D16*
X64912500Y-36650000D03*
D10*
G36*
X67055142Y-35951174D02*
X67078803Y-35954684D01*
X67102007Y-35960496D01*
X67124529Y-35968554D01*
X67146153Y-35978782D01*
X67166670Y-35991079D01*
X67185883Y-36005329D01*
X67203607Y-36021393D01*
X67219671Y-36039117D01*
X67233921Y-36058330D01*
X67246218Y-36078847D01*
X67256446Y-36100471D01*
X67264504Y-36122993D01*
X67270316Y-36146197D01*
X67273826Y-36169858D01*
X67275000Y-36193750D01*
X67275000Y-37106250D01*
X67273826Y-37130142D01*
X67270316Y-37153803D01*
X67264504Y-37177007D01*
X67256446Y-37199529D01*
X67246218Y-37221153D01*
X67233921Y-37241670D01*
X67219671Y-37260883D01*
X67203607Y-37278607D01*
X67185883Y-37294671D01*
X67166670Y-37308921D01*
X67146153Y-37321218D01*
X67124529Y-37331446D01*
X67102007Y-37339504D01*
X67078803Y-37345316D01*
X67055142Y-37348826D01*
X67031250Y-37350000D01*
X66543750Y-37350000D01*
X66519858Y-37348826D01*
X66496197Y-37345316D01*
X66472993Y-37339504D01*
X66450471Y-37331446D01*
X66428847Y-37321218D01*
X66408330Y-37308921D01*
X66389117Y-37294671D01*
X66371393Y-37278607D01*
X66355329Y-37260883D01*
X66341079Y-37241670D01*
X66328782Y-37221153D01*
X66318554Y-37199529D01*
X66310496Y-37177007D01*
X66304684Y-37153803D01*
X66301174Y-37130142D01*
X66300000Y-37106250D01*
X66300000Y-36193750D01*
X66301174Y-36169858D01*
X66304684Y-36146197D01*
X66310496Y-36122993D01*
X66318554Y-36100471D01*
X66328782Y-36078847D01*
X66341079Y-36058330D01*
X66355329Y-36039117D01*
X66371393Y-36021393D01*
X66389117Y-36005329D01*
X66408330Y-35991079D01*
X66428847Y-35978782D01*
X66450471Y-35968554D01*
X66472993Y-35960496D01*
X66496197Y-35954684D01*
X66519858Y-35951174D01*
X66543750Y-35950000D01*
X67031250Y-35950000D01*
X67055142Y-35951174D01*
X67055142Y-35951174D01*
G37*
D16*
X66787500Y-36650000D03*
G04 #@! TD*
D10*
G04 #@! TO.C,C19*
G36*
X58080142Y-47551174D02*
X58103803Y-47554684D01*
X58127007Y-47560496D01*
X58149529Y-47568554D01*
X58171153Y-47578782D01*
X58191670Y-47591079D01*
X58210883Y-47605329D01*
X58228607Y-47621393D01*
X58244671Y-47639117D01*
X58258921Y-47658330D01*
X58271218Y-47678847D01*
X58281446Y-47700471D01*
X58289504Y-47722993D01*
X58295316Y-47746197D01*
X58298826Y-47769858D01*
X58300000Y-47793750D01*
X58300000Y-48706250D01*
X58298826Y-48730142D01*
X58295316Y-48753803D01*
X58289504Y-48777007D01*
X58281446Y-48799529D01*
X58271218Y-48821153D01*
X58258921Y-48841670D01*
X58244671Y-48860883D01*
X58228607Y-48878607D01*
X58210883Y-48894671D01*
X58191670Y-48908921D01*
X58171153Y-48921218D01*
X58149529Y-48931446D01*
X58127007Y-48939504D01*
X58103803Y-48945316D01*
X58080142Y-48948826D01*
X58056250Y-48950000D01*
X57568750Y-48950000D01*
X57544858Y-48948826D01*
X57521197Y-48945316D01*
X57497993Y-48939504D01*
X57475471Y-48931446D01*
X57453847Y-48921218D01*
X57433330Y-48908921D01*
X57414117Y-48894671D01*
X57396393Y-48878607D01*
X57380329Y-48860883D01*
X57366079Y-48841670D01*
X57353782Y-48821153D01*
X57343554Y-48799529D01*
X57335496Y-48777007D01*
X57329684Y-48753803D01*
X57326174Y-48730142D01*
X57325000Y-48706250D01*
X57325000Y-47793750D01*
X57326174Y-47769858D01*
X57329684Y-47746197D01*
X57335496Y-47722993D01*
X57343554Y-47700471D01*
X57353782Y-47678847D01*
X57366079Y-47658330D01*
X57380329Y-47639117D01*
X57396393Y-47621393D01*
X57414117Y-47605329D01*
X57433330Y-47591079D01*
X57453847Y-47578782D01*
X57475471Y-47568554D01*
X57497993Y-47560496D01*
X57521197Y-47554684D01*
X57544858Y-47551174D01*
X57568750Y-47550000D01*
X58056250Y-47550000D01*
X58080142Y-47551174D01*
X58080142Y-47551174D01*
G37*
D16*
X57812500Y-48250000D03*
D10*
G36*
X59955142Y-47551174D02*
X59978803Y-47554684D01*
X60002007Y-47560496D01*
X60024529Y-47568554D01*
X60046153Y-47578782D01*
X60066670Y-47591079D01*
X60085883Y-47605329D01*
X60103607Y-47621393D01*
X60119671Y-47639117D01*
X60133921Y-47658330D01*
X60146218Y-47678847D01*
X60156446Y-47700471D01*
X60164504Y-47722993D01*
X60170316Y-47746197D01*
X60173826Y-47769858D01*
X60175000Y-47793750D01*
X60175000Y-48706250D01*
X60173826Y-48730142D01*
X60170316Y-48753803D01*
X60164504Y-48777007D01*
X60156446Y-48799529D01*
X60146218Y-48821153D01*
X60133921Y-48841670D01*
X60119671Y-48860883D01*
X60103607Y-48878607D01*
X60085883Y-48894671D01*
X60066670Y-48908921D01*
X60046153Y-48921218D01*
X60024529Y-48931446D01*
X60002007Y-48939504D01*
X59978803Y-48945316D01*
X59955142Y-48948826D01*
X59931250Y-48950000D01*
X59443750Y-48950000D01*
X59419858Y-48948826D01*
X59396197Y-48945316D01*
X59372993Y-48939504D01*
X59350471Y-48931446D01*
X59328847Y-48921218D01*
X59308330Y-48908921D01*
X59289117Y-48894671D01*
X59271393Y-48878607D01*
X59255329Y-48860883D01*
X59241079Y-48841670D01*
X59228782Y-48821153D01*
X59218554Y-48799529D01*
X59210496Y-48777007D01*
X59204684Y-48753803D01*
X59201174Y-48730142D01*
X59200000Y-48706250D01*
X59200000Y-47793750D01*
X59201174Y-47769858D01*
X59204684Y-47746197D01*
X59210496Y-47722993D01*
X59218554Y-47700471D01*
X59228782Y-47678847D01*
X59241079Y-47658330D01*
X59255329Y-47639117D01*
X59271393Y-47621393D01*
X59289117Y-47605329D01*
X59308330Y-47591079D01*
X59328847Y-47578782D01*
X59350471Y-47568554D01*
X59372993Y-47560496D01*
X59396197Y-47554684D01*
X59419858Y-47551174D01*
X59443750Y-47550000D01*
X59931250Y-47550000D01*
X59955142Y-47551174D01*
X59955142Y-47551174D01*
G37*
D16*
X59687500Y-48250000D03*
G04 #@! TD*
D10*
G04 #@! TO.C,C20*
G36*
X58705142Y-45551174D02*
X58728803Y-45554684D01*
X58752007Y-45560496D01*
X58774529Y-45568554D01*
X58796153Y-45578782D01*
X58816670Y-45591079D01*
X58835883Y-45605329D01*
X58853607Y-45621393D01*
X58869671Y-45639117D01*
X58883921Y-45658330D01*
X58896218Y-45678847D01*
X58906446Y-45700471D01*
X58914504Y-45722993D01*
X58920316Y-45746197D01*
X58923826Y-45769858D01*
X58925000Y-45793750D01*
X58925000Y-46706250D01*
X58923826Y-46730142D01*
X58920316Y-46753803D01*
X58914504Y-46777007D01*
X58906446Y-46799529D01*
X58896218Y-46821153D01*
X58883921Y-46841670D01*
X58869671Y-46860883D01*
X58853607Y-46878607D01*
X58835883Y-46894671D01*
X58816670Y-46908921D01*
X58796153Y-46921218D01*
X58774529Y-46931446D01*
X58752007Y-46939504D01*
X58728803Y-46945316D01*
X58705142Y-46948826D01*
X58681250Y-46950000D01*
X58193750Y-46950000D01*
X58169858Y-46948826D01*
X58146197Y-46945316D01*
X58122993Y-46939504D01*
X58100471Y-46931446D01*
X58078847Y-46921218D01*
X58058330Y-46908921D01*
X58039117Y-46894671D01*
X58021393Y-46878607D01*
X58005329Y-46860883D01*
X57991079Y-46841670D01*
X57978782Y-46821153D01*
X57968554Y-46799529D01*
X57960496Y-46777007D01*
X57954684Y-46753803D01*
X57951174Y-46730142D01*
X57950000Y-46706250D01*
X57950000Y-45793750D01*
X57951174Y-45769858D01*
X57954684Y-45746197D01*
X57960496Y-45722993D01*
X57968554Y-45700471D01*
X57978782Y-45678847D01*
X57991079Y-45658330D01*
X58005329Y-45639117D01*
X58021393Y-45621393D01*
X58039117Y-45605329D01*
X58058330Y-45591079D01*
X58078847Y-45578782D01*
X58100471Y-45568554D01*
X58122993Y-45560496D01*
X58146197Y-45554684D01*
X58169858Y-45551174D01*
X58193750Y-45550000D01*
X58681250Y-45550000D01*
X58705142Y-45551174D01*
X58705142Y-45551174D01*
G37*
D16*
X58437500Y-46250000D03*
D10*
G36*
X56830142Y-45551174D02*
X56853803Y-45554684D01*
X56877007Y-45560496D01*
X56899529Y-45568554D01*
X56921153Y-45578782D01*
X56941670Y-45591079D01*
X56960883Y-45605329D01*
X56978607Y-45621393D01*
X56994671Y-45639117D01*
X57008921Y-45658330D01*
X57021218Y-45678847D01*
X57031446Y-45700471D01*
X57039504Y-45722993D01*
X57045316Y-45746197D01*
X57048826Y-45769858D01*
X57050000Y-45793750D01*
X57050000Y-46706250D01*
X57048826Y-46730142D01*
X57045316Y-46753803D01*
X57039504Y-46777007D01*
X57031446Y-46799529D01*
X57021218Y-46821153D01*
X57008921Y-46841670D01*
X56994671Y-46860883D01*
X56978607Y-46878607D01*
X56960883Y-46894671D01*
X56941670Y-46908921D01*
X56921153Y-46921218D01*
X56899529Y-46931446D01*
X56877007Y-46939504D01*
X56853803Y-46945316D01*
X56830142Y-46948826D01*
X56806250Y-46950000D01*
X56318750Y-46950000D01*
X56294858Y-46948826D01*
X56271197Y-46945316D01*
X56247993Y-46939504D01*
X56225471Y-46931446D01*
X56203847Y-46921218D01*
X56183330Y-46908921D01*
X56164117Y-46894671D01*
X56146393Y-46878607D01*
X56130329Y-46860883D01*
X56116079Y-46841670D01*
X56103782Y-46821153D01*
X56093554Y-46799529D01*
X56085496Y-46777007D01*
X56079684Y-46753803D01*
X56076174Y-46730142D01*
X56075000Y-46706250D01*
X56075000Y-45793750D01*
X56076174Y-45769858D01*
X56079684Y-45746197D01*
X56085496Y-45722993D01*
X56093554Y-45700471D01*
X56103782Y-45678847D01*
X56116079Y-45658330D01*
X56130329Y-45639117D01*
X56146393Y-45621393D01*
X56164117Y-45605329D01*
X56183330Y-45591079D01*
X56203847Y-45578782D01*
X56225471Y-45568554D01*
X56247993Y-45560496D01*
X56271197Y-45554684D01*
X56294858Y-45551174D01*
X56318750Y-45550000D01*
X56806250Y-45550000D01*
X56830142Y-45551174D01*
X56830142Y-45551174D01*
G37*
D16*
X56562500Y-46250000D03*
G04 #@! TD*
D10*
G04 #@! TO.C,C21*
G36*
X58705142Y-34301174D02*
X58728803Y-34304684D01*
X58752007Y-34310496D01*
X58774529Y-34318554D01*
X58796153Y-34328782D01*
X58816670Y-34341079D01*
X58835883Y-34355329D01*
X58853607Y-34371393D01*
X58869671Y-34389117D01*
X58883921Y-34408330D01*
X58896218Y-34428847D01*
X58906446Y-34450471D01*
X58914504Y-34472993D01*
X58920316Y-34496197D01*
X58923826Y-34519858D01*
X58925000Y-34543750D01*
X58925000Y-35456250D01*
X58923826Y-35480142D01*
X58920316Y-35503803D01*
X58914504Y-35527007D01*
X58906446Y-35549529D01*
X58896218Y-35571153D01*
X58883921Y-35591670D01*
X58869671Y-35610883D01*
X58853607Y-35628607D01*
X58835883Y-35644671D01*
X58816670Y-35658921D01*
X58796153Y-35671218D01*
X58774529Y-35681446D01*
X58752007Y-35689504D01*
X58728803Y-35695316D01*
X58705142Y-35698826D01*
X58681250Y-35700000D01*
X58193750Y-35700000D01*
X58169858Y-35698826D01*
X58146197Y-35695316D01*
X58122993Y-35689504D01*
X58100471Y-35681446D01*
X58078847Y-35671218D01*
X58058330Y-35658921D01*
X58039117Y-35644671D01*
X58021393Y-35628607D01*
X58005329Y-35610883D01*
X57991079Y-35591670D01*
X57978782Y-35571153D01*
X57968554Y-35549529D01*
X57960496Y-35527007D01*
X57954684Y-35503803D01*
X57951174Y-35480142D01*
X57950000Y-35456250D01*
X57950000Y-34543750D01*
X57951174Y-34519858D01*
X57954684Y-34496197D01*
X57960496Y-34472993D01*
X57968554Y-34450471D01*
X57978782Y-34428847D01*
X57991079Y-34408330D01*
X58005329Y-34389117D01*
X58021393Y-34371393D01*
X58039117Y-34355329D01*
X58058330Y-34341079D01*
X58078847Y-34328782D01*
X58100471Y-34318554D01*
X58122993Y-34310496D01*
X58146197Y-34304684D01*
X58169858Y-34301174D01*
X58193750Y-34300000D01*
X58681250Y-34300000D01*
X58705142Y-34301174D01*
X58705142Y-34301174D01*
G37*
D16*
X58437500Y-35000000D03*
D10*
G36*
X56830142Y-34301174D02*
X56853803Y-34304684D01*
X56877007Y-34310496D01*
X56899529Y-34318554D01*
X56921153Y-34328782D01*
X56941670Y-34341079D01*
X56960883Y-34355329D01*
X56978607Y-34371393D01*
X56994671Y-34389117D01*
X57008921Y-34408330D01*
X57021218Y-34428847D01*
X57031446Y-34450471D01*
X57039504Y-34472993D01*
X57045316Y-34496197D01*
X57048826Y-34519858D01*
X57050000Y-34543750D01*
X57050000Y-35456250D01*
X57048826Y-35480142D01*
X57045316Y-35503803D01*
X57039504Y-35527007D01*
X57031446Y-35549529D01*
X57021218Y-35571153D01*
X57008921Y-35591670D01*
X56994671Y-35610883D01*
X56978607Y-35628607D01*
X56960883Y-35644671D01*
X56941670Y-35658921D01*
X56921153Y-35671218D01*
X56899529Y-35681446D01*
X56877007Y-35689504D01*
X56853803Y-35695316D01*
X56830142Y-35698826D01*
X56806250Y-35700000D01*
X56318750Y-35700000D01*
X56294858Y-35698826D01*
X56271197Y-35695316D01*
X56247993Y-35689504D01*
X56225471Y-35681446D01*
X56203847Y-35671218D01*
X56183330Y-35658921D01*
X56164117Y-35644671D01*
X56146393Y-35628607D01*
X56130329Y-35610883D01*
X56116079Y-35591670D01*
X56103782Y-35571153D01*
X56093554Y-35549529D01*
X56085496Y-35527007D01*
X56079684Y-35503803D01*
X56076174Y-35480142D01*
X56075000Y-35456250D01*
X56075000Y-34543750D01*
X56076174Y-34519858D01*
X56079684Y-34496197D01*
X56085496Y-34472993D01*
X56093554Y-34450471D01*
X56103782Y-34428847D01*
X56116079Y-34408330D01*
X56130329Y-34389117D01*
X56146393Y-34371393D01*
X56164117Y-34355329D01*
X56183330Y-34341079D01*
X56203847Y-34328782D01*
X56225471Y-34318554D01*
X56247993Y-34310496D01*
X56271197Y-34304684D01*
X56294858Y-34301174D01*
X56318750Y-34300000D01*
X56806250Y-34300000D01*
X56830142Y-34301174D01*
X56830142Y-34301174D01*
G37*
D16*
X56562500Y-35000000D03*
G04 #@! TD*
D10*
G04 #@! TO.C,C22*
G36*
X62230142Y-36451174D02*
X62253803Y-36454684D01*
X62277007Y-36460496D01*
X62299529Y-36468554D01*
X62321153Y-36478782D01*
X62341670Y-36491079D01*
X62360883Y-36505329D01*
X62378607Y-36521393D01*
X62394671Y-36539117D01*
X62408921Y-36558330D01*
X62421218Y-36578847D01*
X62431446Y-36600471D01*
X62439504Y-36622993D01*
X62445316Y-36646197D01*
X62448826Y-36669858D01*
X62450000Y-36693750D01*
X62450000Y-37181250D01*
X62448826Y-37205142D01*
X62445316Y-37228803D01*
X62439504Y-37252007D01*
X62431446Y-37274529D01*
X62421218Y-37296153D01*
X62408921Y-37316670D01*
X62394671Y-37335883D01*
X62378607Y-37353607D01*
X62360883Y-37369671D01*
X62341670Y-37383921D01*
X62321153Y-37396218D01*
X62299529Y-37406446D01*
X62277007Y-37414504D01*
X62253803Y-37420316D01*
X62230142Y-37423826D01*
X62206250Y-37425000D01*
X61293750Y-37425000D01*
X61269858Y-37423826D01*
X61246197Y-37420316D01*
X61222993Y-37414504D01*
X61200471Y-37406446D01*
X61178847Y-37396218D01*
X61158330Y-37383921D01*
X61139117Y-37369671D01*
X61121393Y-37353607D01*
X61105329Y-37335883D01*
X61091079Y-37316670D01*
X61078782Y-37296153D01*
X61068554Y-37274529D01*
X61060496Y-37252007D01*
X61054684Y-37228803D01*
X61051174Y-37205142D01*
X61050000Y-37181250D01*
X61050000Y-36693750D01*
X61051174Y-36669858D01*
X61054684Y-36646197D01*
X61060496Y-36622993D01*
X61068554Y-36600471D01*
X61078782Y-36578847D01*
X61091079Y-36558330D01*
X61105329Y-36539117D01*
X61121393Y-36521393D01*
X61139117Y-36505329D01*
X61158330Y-36491079D01*
X61178847Y-36478782D01*
X61200471Y-36468554D01*
X61222993Y-36460496D01*
X61246197Y-36454684D01*
X61269858Y-36451174D01*
X61293750Y-36450000D01*
X62206250Y-36450000D01*
X62230142Y-36451174D01*
X62230142Y-36451174D01*
G37*
D16*
X61750000Y-36937500D03*
D10*
G36*
X62230142Y-34576174D02*
X62253803Y-34579684D01*
X62277007Y-34585496D01*
X62299529Y-34593554D01*
X62321153Y-34603782D01*
X62341670Y-34616079D01*
X62360883Y-34630329D01*
X62378607Y-34646393D01*
X62394671Y-34664117D01*
X62408921Y-34683330D01*
X62421218Y-34703847D01*
X62431446Y-34725471D01*
X62439504Y-34747993D01*
X62445316Y-34771197D01*
X62448826Y-34794858D01*
X62450000Y-34818750D01*
X62450000Y-35306250D01*
X62448826Y-35330142D01*
X62445316Y-35353803D01*
X62439504Y-35377007D01*
X62431446Y-35399529D01*
X62421218Y-35421153D01*
X62408921Y-35441670D01*
X62394671Y-35460883D01*
X62378607Y-35478607D01*
X62360883Y-35494671D01*
X62341670Y-35508921D01*
X62321153Y-35521218D01*
X62299529Y-35531446D01*
X62277007Y-35539504D01*
X62253803Y-35545316D01*
X62230142Y-35548826D01*
X62206250Y-35550000D01*
X61293750Y-35550000D01*
X61269858Y-35548826D01*
X61246197Y-35545316D01*
X61222993Y-35539504D01*
X61200471Y-35531446D01*
X61178847Y-35521218D01*
X61158330Y-35508921D01*
X61139117Y-35494671D01*
X61121393Y-35478607D01*
X61105329Y-35460883D01*
X61091079Y-35441670D01*
X61078782Y-35421153D01*
X61068554Y-35399529D01*
X61060496Y-35377007D01*
X61054684Y-35353803D01*
X61051174Y-35330142D01*
X61050000Y-35306250D01*
X61050000Y-34818750D01*
X61051174Y-34794858D01*
X61054684Y-34771197D01*
X61060496Y-34747993D01*
X61068554Y-34725471D01*
X61078782Y-34703847D01*
X61091079Y-34683330D01*
X61105329Y-34664117D01*
X61121393Y-34646393D01*
X61139117Y-34630329D01*
X61158330Y-34616079D01*
X61178847Y-34603782D01*
X61200471Y-34593554D01*
X61222993Y-34585496D01*
X61246197Y-34579684D01*
X61269858Y-34576174D01*
X61293750Y-34575000D01*
X62206250Y-34575000D01*
X62230142Y-34576174D01*
X62230142Y-34576174D01*
G37*
D16*
X61750000Y-35062500D03*
G04 #@! TD*
D10*
G04 #@! TO.C,C23*
G36*
X90705142Y-34801174D02*
X90728803Y-34804684D01*
X90752007Y-34810496D01*
X90774529Y-34818554D01*
X90796153Y-34828782D01*
X90816670Y-34841079D01*
X90835883Y-34855329D01*
X90853607Y-34871393D01*
X90869671Y-34889117D01*
X90883921Y-34908330D01*
X90896218Y-34928847D01*
X90906446Y-34950471D01*
X90914504Y-34972993D01*
X90920316Y-34996197D01*
X90923826Y-35019858D01*
X90925000Y-35043750D01*
X90925000Y-35956250D01*
X90923826Y-35980142D01*
X90920316Y-36003803D01*
X90914504Y-36027007D01*
X90906446Y-36049529D01*
X90896218Y-36071153D01*
X90883921Y-36091670D01*
X90869671Y-36110883D01*
X90853607Y-36128607D01*
X90835883Y-36144671D01*
X90816670Y-36158921D01*
X90796153Y-36171218D01*
X90774529Y-36181446D01*
X90752007Y-36189504D01*
X90728803Y-36195316D01*
X90705142Y-36198826D01*
X90681250Y-36200000D01*
X90193750Y-36200000D01*
X90169858Y-36198826D01*
X90146197Y-36195316D01*
X90122993Y-36189504D01*
X90100471Y-36181446D01*
X90078847Y-36171218D01*
X90058330Y-36158921D01*
X90039117Y-36144671D01*
X90021393Y-36128607D01*
X90005329Y-36110883D01*
X89991079Y-36091670D01*
X89978782Y-36071153D01*
X89968554Y-36049529D01*
X89960496Y-36027007D01*
X89954684Y-36003803D01*
X89951174Y-35980142D01*
X89950000Y-35956250D01*
X89950000Y-35043750D01*
X89951174Y-35019858D01*
X89954684Y-34996197D01*
X89960496Y-34972993D01*
X89968554Y-34950471D01*
X89978782Y-34928847D01*
X89991079Y-34908330D01*
X90005329Y-34889117D01*
X90021393Y-34871393D01*
X90039117Y-34855329D01*
X90058330Y-34841079D01*
X90078847Y-34828782D01*
X90100471Y-34818554D01*
X90122993Y-34810496D01*
X90146197Y-34804684D01*
X90169858Y-34801174D01*
X90193750Y-34800000D01*
X90681250Y-34800000D01*
X90705142Y-34801174D01*
X90705142Y-34801174D01*
G37*
D16*
X90437500Y-35500000D03*
D10*
G36*
X88830142Y-34801174D02*
X88853803Y-34804684D01*
X88877007Y-34810496D01*
X88899529Y-34818554D01*
X88921153Y-34828782D01*
X88941670Y-34841079D01*
X88960883Y-34855329D01*
X88978607Y-34871393D01*
X88994671Y-34889117D01*
X89008921Y-34908330D01*
X89021218Y-34928847D01*
X89031446Y-34950471D01*
X89039504Y-34972993D01*
X89045316Y-34996197D01*
X89048826Y-35019858D01*
X89050000Y-35043750D01*
X89050000Y-35956250D01*
X89048826Y-35980142D01*
X89045316Y-36003803D01*
X89039504Y-36027007D01*
X89031446Y-36049529D01*
X89021218Y-36071153D01*
X89008921Y-36091670D01*
X88994671Y-36110883D01*
X88978607Y-36128607D01*
X88960883Y-36144671D01*
X88941670Y-36158921D01*
X88921153Y-36171218D01*
X88899529Y-36181446D01*
X88877007Y-36189504D01*
X88853803Y-36195316D01*
X88830142Y-36198826D01*
X88806250Y-36200000D01*
X88318750Y-36200000D01*
X88294858Y-36198826D01*
X88271197Y-36195316D01*
X88247993Y-36189504D01*
X88225471Y-36181446D01*
X88203847Y-36171218D01*
X88183330Y-36158921D01*
X88164117Y-36144671D01*
X88146393Y-36128607D01*
X88130329Y-36110883D01*
X88116079Y-36091670D01*
X88103782Y-36071153D01*
X88093554Y-36049529D01*
X88085496Y-36027007D01*
X88079684Y-36003803D01*
X88076174Y-35980142D01*
X88075000Y-35956250D01*
X88075000Y-35043750D01*
X88076174Y-35019858D01*
X88079684Y-34996197D01*
X88085496Y-34972993D01*
X88093554Y-34950471D01*
X88103782Y-34928847D01*
X88116079Y-34908330D01*
X88130329Y-34889117D01*
X88146393Y-34871393D01*
X88164117Y-34855329D01*
X88183330Y-34841079D01*
X88203847Y-34828782D01*
X88225471Y-34818554D01*
X88247993Y-34810496D01*
X88271197Y-34804684D01*
X88294858Y-34801174D01*
X88318750Y-34800000D01*
X88806250Y-34800000D01*
X88830142Y-34801174D01*
X88830142Y-34801174D01*
G37*
D16*
X88562500Y-35500000D03*
G04 #@! TD*
D10*
G04 #@! TO.C,C24*
G36*
X87230142Y-38201174D02*
X87253803Y-38204684D01*
X87277007Y-38210496D01*
X87299529Y-38218554D01*
X87321153Y-38228782D01*
X87341670Y-38241079D01*
X87360883Y-38255329D01*
X87378607Y-38271393D01*
X87394671Y-38289117D01*
X87408921Y-38308330D01*
X87421218Y-38328847D01*
X87431446Y-38350471D01*
X87439504Y-38372993D01*
X87445316Y-38396197D01*
X87448826Y-38419858D01*
X87450000Y-38443750D01*
X87450000Y-38931250D01*
X87448826Y-38955142D01*
X87445316Y-38978803D01*
X87439504Y-39002007D01*
X87431446Y-39024529D01*
X87421218Y-39046153D01*
X87408921Y-39066670D01*
X87394671Y-39085883D01*
X87378607Y-39103607D01*
X87360883Y-39119671D01*
X87341670Y-39133921D01*
X87321153Y-39146218D01*
X87299529Y-39156446D01*
X87277007Y-39164504D01*
X87253803Y-39170316D01*
X87230142Y-39173826D01*
X87206250Y-39175000D01*
X86293750Y-39175000D01*
X86269858Y-39173826D01*
X86246197Y-39170316D01*
X86222993Y-39164504D01*
X86200471Y-39156446D01*
X86178847Y-39146218D01*
X86158330Y-39133921D01*
X86139117Y-39119671D01*
X86121393Y-39103607D01*
X86105329Y-39085883D01*
X86091079Y-39066670D01*
X86078782Y-39046153D01*
X86068554Y-39024529D01*
X86060496Y-39002007D01*
X86054684Y-38978803D01*
X86051174Y-38955142D01*
X86050000Y-38931250D01*
X86050000Y-38443750D01*
X86051174Y-38419858D01*
X86054684Y-38396197D01*
X86060496Y-38372993D01*
X86068554Y-38350471D01*
X86078782Y-38328847D01*
X86091079Y-38308330D01*
X86105329Y-38289117D01*
X86121393Y-38271393D01*
X86139117Y-38255329D01*
X86158330Y-38241079D01*
X86178847Y-38228782D01*
X86200471Y-38218554D01*
X86222993Y-38210496D01*
X86246197Y-38204684D01*
X86269858Y-38201174D01*
X86293750Y-38200000D01*
X87206250Y-38200000D01*
X87230142Y-38201174D01*
X87230142Y-38201174D01*
G37*
D16*
X86750000Y-38687500D03*
D10*
G36*
X87230142Y-36326174D02*
X87253803Y-36329684D01*
X87277007Y-36335496D01*
X87299529Y-36343554D01*
X87321153Y-36353782D01*
X87341670Y-36366079D01*
X87360883Y-36380329D01*
X87378607Y-36396393D01*
X87394671Y-36414117D01*
X87408921Y-36433330D01*
X87421218Y-36453847D01*
X87431446Y-36475471D01*
X87439504Y-36497993D01*
X87445316Y-36521197D01*
X87448826Y-36544858D01*
X87450000Y-36568750D01*
X87450000Y-37056250D01*
X87448826Y-37080142D01*
X87445316Y-37103803D01*
X87439504Y-37127007D01*
X87431446Y-37149529D01*
X87421218Y-37171153D01*
X87408921Y-37191670D01*
X87394671Y-37210883D01*
X87378607Y-37228607D01*
X87360883Y-37244671D01*
X87341670Y-37258921D01*
X87321153Y-37271218D01*
X87299529Y-37281446D01*
X87277007Y-37289504D01*
X87253803Y-37295316D01*
X87230142Y-37298826D01*
X87206250Y-37300000D01*
X86293750Y-37300000D01*
X86269858Y-37298826D01*
X86246197Y-37295316D01*
X86222993Y-37289504D01*
X86200471Y-37281446D01*
X86178847Y-37271218D01*
X86158330Y-37258921D01*
X86139117Y-37244671D01*
X86121393Y-37228607D01*
X86105329Y-37210883D01*
X86091079Y-37191670D01*
X86078782Y-37171153D01*
X86068554Y-37149529D01*
X86060496Y-37127007D01*
X86054684Y-37103803D01*
X86051174Y-37080142D01*
X86050000Y-37056250D01*
X86050000Y-36568750D01*
X86051174Y-36544858D01*
X86054684Y-36521197D01*
X86060496Y-36497993D01*
X86068554Y-36475471D01*
X86078782Y-36453847D01*
X86091079Y-36433330D01*
X86105329Y-36414117D01*
X86121393Y-36396393D01*
X86139117Y-36380329D01*
X86158330Y-36366079D01*
X86178847Y-36353782D01*
X86200471Y-36343554D01*
X86222993Y-36335496D01*
X86246197Y-36329684D01*
X86269858Y-36326174D01*
X86293750Y-36325000D01*
X87206250Y-36325000D01*
X87230142Y-36326174D01*
X87230142Y-36326174D01*
G37*
D16*
X86750000Y-36812500D03*
G04 #@! TD*
D10*
G04 #@! TO.C,L11*
G36*
X69230142Y-33976174D02*
X69253803Y-33979684D01*
X69277007Y-33985496D01*
X69299529Y-33993554D01*
X69321153Y-34003782D01*
X69341670Y-34016079D01*
X69360883Y-34030329D01*
X69378607Y-34046393D01*
X69394671Y-34064117D01*
X69408921Y-34083330D01*
X69421218Y-34103847D01*
X69431446Y-34125471D01*
X69439504Y-34147993D01*
X69445316Y-34171197D01*
X69448826Y-34194858D01*
X69450000Y-34218750D01*
X69450000Y-34706250D01*
X69448826Y-34730142D01*
X69445316Y-34753803D01*
X69439504Y-34777007D01*
X69431446Y-34799529D01*
X69421218Y-34821153D01*
X69408921Y-34841670D01*
X69394671Y-34860883D01*
X69378607Y-34878607D01*
X69360883Y-34894671D01*
X69341670Y-34908921D01*
X69321153Y-34921218D01*
X69299529Y-34931446D01*
X69277007Y-34939504D01*
X69253803Y-34945316D01*
X69230142Y-34948826D01*
X69206250Y-34950000D01*
X68293750Y-34950000D01*
X68269858Y-34948826D01*
X68246197Y-34945316D01*
X68222993Y-34939504D01*
X68200471Y-34931446D01*
X68178847Y-34921218D01*
X68158330Y-34908921D01*
X68139117Y-34894671D01*
X68121393Y-34878607D01*
X68105329Y-34860883D01*
X68091079Y-34841670D01*
X68078782Y-34821153D01*
X68068554Y-34799529D01*
X68060496Y-34777007D01*
X68054684Y-34753803D01*
X68051174Y-34730142D01*
X68050000Y-34706250D01*
X68050000Y-34218750D01*
X68051174Y-34194858D01*
X68054684Y-34171197D01*
X68060496Y-34147993D01*
X68068554Y-34125471D01*
X68078782Y-34103847D01*
X68091079Y-34083330D01*
X68105329Y-34064117D01*
X68121393Y-34046393D01*
X68139117Y-34030329D01*
X68158330Y-34016079D01*
X68178847Y-34003782D01*
X68200471Y-33993554D01*
X68222993Y-33985496D01*
X68246197Y-33979684D01*
X68269858Y-33976174D01*
X68293750Y-33975000D01*
X69206250Y-33975000D01*
X69230142Y-33976174D01*
X69230142Y-33976174D01*
G37*
D16*
X68750000Y-34462500D03*
D10*
G36*
X69230142Y-35851174D02*
X69253803Y-35854684D01*
X69277007Y-35860496D01*
X69299529Y-35868554D01*
X69321153Y-35878782D01*
X69341670Y-35891079D01*
X69360883Y-35905329D01*
X69378607Y-35921393D01*
X69394671Y-35939117D01*
X69408921Y-35958330D01*
X69421218Y-35978847D01*
X69431446Y-36000471D01*
X69439504Y-36022993D01*
X69445316Y-36046197D01*
X69448826Y-36069858D01*
X69450000Y-36093750D01*
X69450000Y-36581250D01*
X69448826Y-36605142D01*
X69445316Y-36628803D01*
X69439504Y-36652007D01*
X69431446Y-36674529D01*
X69421218Y-36696153D01*
X69408921Y-36716670D01*
X69394671Y-36735883D01*
X69378607Y-36753607D01*
X69360883Y-36769671D01*
X69341670Y-36783921D01*
X69321153Y-36796218D01*
X69299529Y-36806446D01*
X69277007Y-36814504D01*
X69253803Y-36820316D01*
X69230142Y-36823826D01*
X69206250Y-36825000D01*
X68293750Y-36825000D01*
X68269858Y-36823826D01*
X68246197Y-36820316D01*
X68222993Y-36814504D01*
X68200471Y-36806446D01*
X68178847Y-36796218D01*
X68158330Y-36783921D01*
X68139117Y-36769671D01*
X68121393Y-36753607D01*
X68105329Y-36735883D01*
X68091079Y-36716670D01*
X68078782Y-36696153D01*
X68068554Y-36674529D01*
X68060496Y-36652007D01*
X68054684Y-36628803D01*
X68051174Y-36605142D01*
X68050000Y-36581250D01*
X68050000Y-36093750D01*
X68051174Y-36069858D01*
X68054684Y-36046197D01*
X68060496Y-36022993D01*
X68068554Y-36000471D01*
X68078782Y-35978847D01*
X68091079Y-35958330D01*
X68105329Y-35939117D01*
X68121393Y-35921393D01*
X68139117Y-35905329D01*
X68158330Y-35891079D01*
X68178847Y-35878782D01*
X68200471Y-35868554D01*
X68222993Y-35860496D01*
X68246197Y-35854684D01*
X68269858Y-35851174D01*
X68293750Y-35850000D01*
X69206250Y-35850000D01*
X69230142Y-35851174D01*
X69230142Y-35851174D01*
G37*
D16*
X68750000Y-36337500D03*
G04 #@! TD*
D10*
G04 #@! TO.C,LO_C1*
G36*
X90230142Y-42701174D02*
X90253803Y-42704684D01*
X90277007Y-42710496D01*
X90299529Y-42718554D01*
X90321153Y-42728782D01*
X90341670Y-42741079D01*
X90360883Y-42755329D01*
X90378607Y-42771393D01*
X90394671Y-42789117D01*
X90408921Y-42808330D01*
X90421218Y-42828847D01*
X90431446Y-42850471D01*
X90439504Y-42872993D01*
X90445316Y-42896197D01*
X90448826Y-42919858D01*
X90450000Y-42943750D01*
X90450000Y-43431250D01*
X90448826Y-43455142D01*
X90445316Y-43478803D01*
X90439504Y-43502007D01*
X90431446Y-43524529D01*
X90421218Y-43546153D01*
X90408921Y-43566670D01*
X90394671Y-43585883D01*
X90378607Y-43603607D01*
X90360883Y-43619671D01*
X90341670Y-43633921D01*
X90321153Y-43646218D01*
X90299529Y-43656446D01*
X90277007Y-43664504D01*
X90253803Y-43670316D01*
X90230142Y-43673826D01*
X90206250Y-43675000D01*
X89293750Y-43675000D01*
X89269858Y-43673826D01*
X89246197Y-43670316D01*
X89222993Y-43664504D01*
X89200471Y-43656446D01*
X89178847Y-43646218D01*
X89158330Y-43633921D01*
X89139117Y-43619671D01*
X89121393Y-43603607D01*
X89105329Y-43585883D01*
X89091079Y-43566670D01*
X89078782Y-43546153D01*
X89068554Y-43524529D01*
X89060496Y-43502007D01*
X89054684Y-43478803D01*
X89051174Y-43455142D01*
X89050000Y-43431250D01*
X89050000Y-42943750D01*
X89051174Y-42919858D01*
X89054684Y-42896197D01*
X89060496Y-42872993D01*
X89068554Y-42850471D01*
X89078782Y-42828847D01*
X89091079Y-42808330D01*
X89105329Y-42789117D01*
X89121393Y-42771393D01*
X89139117Y-42755329D01*
X89158330Y-42741079D01*
X89178847Y-42728782D01*
X89200471Y-42718554D01*
X89222993Y-42710496D01*
X89246197Y-42704684D01*
X89269858Y-42701174D01*
X89293750Y-42700000D01*
X90206250Y-42700000D01*
X90230142Y-42701174D01*
X90230142Y-42701174D01*
G37*
D16*
X89750000Y-43187500D03*
D10*
G36*
X90230142Y-40826174D02*
X90253803Y-40829684D01*
X90277007Y-40835496D01*
X90299529Y-40843554D01*
X90321153Y-40853782D01*
X90341670Y-40866079D01*
X90360883Y-40880329D01*
X90378607Y-40896393D01*
X90394671Y-40914117D01*
X90408921Y-40933330D01*
X90421218Y-40953847D01*
X90431446Y-40975471D01*
X90439504Y-40997993D01*
X90445316Y-41021197D01*
X90448826Y-41044858D01*
X90450000Y-41068750D01*
X90450000Y-41556250D01*
X90448826Y-41580142D01*
X90445316Y-41603803D01*
X90439504Y-41627007D01*
X90431446Y-41649529D01*
X90421218Y-41671153D01*
X90408921Y-41691670D01*
X90394671Y-41710883D01*
X90378607Y-41728607D01*
X90360883Y-41744671D01*
X90341670Y-41758921D01*
X90321153Y-41771218D01*
X90299529Y-41781446D01*
X90277007Y-41789504D01*
X90253803Y-41795316D01*
X90230142Y-41798826D01*
X90206250Y-41800000D01*
X89293750Y-41800000D01*
X89269858Y-41798826D01*
X89246197Y-41795316D01*
X89222993Y-41789504D01*
X89200471Y-41781446D01*
X89178847Y-41771218D01*
X89158330Y-41758921D01*
X89139117Y-41744671D01*
X89121393Y-41728607D01*
X89105329Y-41710883D01*
X89091079Y-41691670D01*
X89078782Y-41671153D01*
X89068554Y-41649529D01*
X89060496Y-41627007D01*
X89054684Y-41603803D01*
X89051174Y-41580142D01*
X89050000Y-41556250D01*
X89050000Y-41068750D01*
X89051174Y-41044858D01*
X89054684Y-41021197D01*
X89060496Y-40997993D01*
X89068554Y-40975471D01*
X89078782Y-40953847D01*
X89091079Y-40933330D01*
X89105329Y-40914117D01*
X89121393Y-40896393D01*
X89139117Y-40880329D01*
X89158330Y-40866079D01*
X89178847Y-40853782D01*
X89200471Y-40843554D01*
X89222993Y-40835496D01*
X89246197Y-40829684D01*
X89269858Y-40826174D01*
X89293750Y-40825000D01*
X90206250Y-40825000D01*
X90230142Y-40826174D01*
X90230142Y-40826174D01*
G37*
D16*
X89750000Y-41312500D03*
G04 #@! TD*
D10*
G04 #@! TO.C,LO_C2*
G36*
X85955142Y-43551174D02*
X85978803Y-43554684D01*
X86002007Y-43560496D01*
X86024529Y-43568554D01*
X86046153Y-43578782D01*
X86066670Y-43591079D01*
X86085883Y-43605329D01*
X86103607Y-43621393D01*
X86119671Y-43639117D01*
X86133921Y-43658330D01*
X86146218Y-43678847D01*
X86156446Y-43700471D01*
X86164504Y-43722993D01*
X86170316Y-43746197D01*
X86173826Y-43769858D01*
X86175000Y-43793750D01*
X86175000Y-44706250D01*
X86173826Y-44730142D01*
X86170316Y-44753803D01*
X86164504Y-44777007D01*
X86156446Y-44799529D01*
X86146218Y-44821153D01*
X86133921Y-44841670D01*
X86119671Y-44860883D01*
X86103607Y-44878607D01*
X86085883Y-44894671D01*
X86066670Y-44908921D01*
X86046153Y-44921218D01*
X86024529Y-44931446D01*
X86002007Y-44939504D01*
X85978803Y-44945316D01*
X85955142Y-44948826D01*
X85931250Y-44950000D01*
X85443750Y-44950000D01*
X85419858Y-44948826D01*
X85396197Y-44945316D01*
X85372993Y-44939504D01*
X85350471Y-44931446D01*
X85328847Y-44921218D01*
X85308330Y-44908921D01*
X85289117Y-44894671D01*
X85271393Y-44878607D01*
X85255329Y-44860883D01*
X85241079Y-44841670D01*
X85228782Y-44821153D01*
X85218554Y-44799529D01*
X85210496Y-44777007D01*
X85204684Y-44753803D01*
X85201174Y-44730142D01*
X85200000Y-44706250D01*
X85200000Y-43793750D01*
X85201174Y-43769858D01*
X85204684Y-43746197D01*
X85210496Y-43722993D01*
X85218554Y-43700471D01*
X85228782Y-43678847D01*
X85241079Y-43658330D01*
X85255329Y-43639117D01*
X85271393Y-43621393D01*
X85289117Y-43605329D01*
X85308330Y-43591079D01*
X85328847Y-43578782D01*
X85350471Y-43568554D01*
X85372993Y-43560496D01*
X85396197Y-43554684D01*
X85419858Y-43551174D01*
X85443750Y-43550000D01*
X85931250Y-43550000D01*
X85955142Y-43551174D01*
X85955142Y-43551174D01*
G37*
D16*
X85687500Y-44250000D03*
D10*
G36*
X84080142Y-43551174D02*
X84103803Y-43554684D01*
X84127007Y-43560496D01*
X84149529Y-43568554D01*
X84171153Y-43578782D01*
X84191670Y-43591079D01*
X84210883Y-43605329D01*
X84228607Y-43621393D01*
X84244671Y-43639117D01*
X84258921Y-43658330D01*
X84271218Y-43678847D01*
X84281446Y-43700471D01*
X84289504Y-43722993D01*
X84295316Y-43746197D01*
X84298826Y-43769858D01*
X84300000Y-43793750D01*
X84300000Y-44706250D01*
X84298826Y-44730142D01*
X84295316Y-44753803D01*
X84289504Y-44777007D01*
X84281446Y-44799529D01*
X84271218Y-44821153D01*
X84258921Y-44841670D01*
X84244671Y-44860883D01*
X84228607Y-44878607D01*
X84210883Y-44894671D01*
X84191670Y-44908921D01*
X84171153Y-44921218D01*
X84149529Y-44931446D01*
X84127007Y-44939504D01*
X84103803Y-44945316D01*
X84080142Y-44948826D01*
X84056250Y-44950000D01*
X83568750Y-44950000D01*
X83544858Y-44948826D01*
X83521197Y-44945316D01*
X83497993Y-44939504D01*
X83475471Y-44931446D01*
X83453847Y-44921218D01*
X83433330Y-44908921D01*
X83414117Y-44894671D01*
X83396393Y-44878607D01*
X83380329Y-44860883D01*
X83366079Y-44841670D01*
X83353782Y-44821153D01*
X83343554Y-44799529D01*
X83335496Y-44777007D01*
X83329684Y-44753803D01*
X83326174Y-44730142D01*
X83325000Y-44706250D01*
X83325000Y-43793750D01*
X83326174Y-43769858D01*
X83329684Y-43746197D01*
X83335496Y-43722993D01*
X83343554Y-43700471D01*
X83353782Y-43678847D01*
X83366079Y-43658330D01*
X83380329Y-43639117D01*
X83396393Y-43621393D01*
X83414117Y-43605329D01*
X83433330Y-43591079D01*
X83453847Y-43578782D01*
X83475471Y-43568554D01*
X83497993Y-43560496D01*
X83521197Y-43554684D01*
X83544858Y-43551174D01*
X83568750Y-43550000D01*
X84056250Y-43550000D01*
X84080142Y-43551174D01*
X84080142Y-43551174D01*
G37*
D16*
X83812500Y-44250000D03*
G04 #@! TD*
D10*
G04 #@! TO.C,LO_C3*
G36*
X85230142Y-37826174D02*
X85253803Y-37829684D01*
X85277007Y-37835496D01*
X85299529Y-37843554D01*
X85321153Y-37853782D01*
X85341670Y-37866079D01*
X85360883Y-37880329D01*
X85378607Y-37896393D01*
X85394671Y-37914117D01*
X85408921Y-37933330D01*
X85421218Y-37953847D01*
X85431446Y-37975471D01*
X85439504Y-37997993D01*
X85445316Y-38021197D01*
X85448826Y-38044858D01*
X85450000Y-38068750D01*
X85450000Y-38556250D01*
X85448826Y-38580142D01*
X85445316Y-38603803D01*
X85439504Y-38627007D01*
X85431446Y-38649529D01*
X85421218Y-38671153D01*
X85408921Y-38691670D01*
X85394671Y-38710883D01*
X85378607Y-38728607D01*
X85360883Y-38744671D01*
X85341670Y-38758921D01*
X85321153Y-38771218D01*
X85299529Y-38781446D01*
X85277007Y-38789504D01*
X85253803Y-38795316D01*
X85230142Y-38798826D01*
X85206250Y-38800000D01*
X84293750Y-38800000D01*
X84269858Y-38798826D01*
X84246197Y-38795316D01*
X84222993Y-38789504D01*
X84200471Y-38781446D01*
X84178847Y-38771218D01*
X84158330Y-38758921D01*
X84139117Y-38744671D01*
X84121393Y-38728607D01*
X84105329Y-38710883D01*
X84091079Y-38691670D01*
X84078782Y-38671153D01*
X84068554Y-38649529D01*
X84060496Y-38627007D01*
X84054684Y-38603803D01*
X84051174Y-38580142D01*
X84050000Y-38556250D01*
X84050000Y-38068750D01*
X84051174Y-38044858D01*
X84054684Y-38021197D01*
X84060496Y-37997993D01*
X84068554Y-37975471D01*
X84078782Y-37953847D01*
X84091079Y-37933330D01*
X84105329Y-37914117D01*
X84121393Y-37896393D01*
X84139117Y-37880329D01*
X84158330Y-37866079D01*
X84178847Y-37853782D01*
X84200471Y-37843554D01*
X84222993Y-37835496D01*
X84246197Y-37829684D01*
X84269858Y-37826174D01*
X84293750Y-37825000D01*
X85206250Y-37825000D01*
X85230142Y-37826174D01*
X85230142Y-37826174D01*
G37*
D16*
X84750000Y-38312500D03*
D10*
G36*
X85230142Y-39701174D02*
X85253803Y-39704684D01*
X85277007Y-39710496D01*
X85299529Y-39718554D01*
X85321153Y-39728782D01*
X85341670Y-39741079D01*
X85360883Y-39755329D01*
X85378607Y-39771393D01*
X85394671Y-39789117D01*
X85408921Y-39808330D01*
X85421218Y-39828847D01*
X85431446Y-39850471D01*
X85439504Y-39872993D01*
X85445316Y-39896197D01*
X85448826Y-39919858D01*
X85450000Y-39943750D01*
X85450000Y-40431250D01*
X85448826Y-40455142D01*
X85445316Y-40478803D01*
X85439504Y-40502007D01*
X85431446Y-40524529D01*
X85421218Y-40546153D01*
X85408921Y-40566670D01*
X85394671Y-40585883D01*
X85378607Y-40603607D01*
X85360883Y-40619671D01*
X85341670Y-40633921D01*
X85321153Y-40646218D01*
X85299529Y-40656446D01*
X85277007Y-40664504D01*
X85253803Y-40670316D01*
X85230142Y-40673826D01*
X85206250Y-40675000D01*
X84293750Y-40675000D01*
X84269858Y-40673826D01*
X84246197Y-40670316D01*
X84222993Y-40664504D01*
X84200471Y-40656446D01*
X84178847Y-40646218D01*
X84158330Y-40633921D01*
X84139117Y-40619671D01*
X84121393Y-40603607D01*
X84105329Y-40585883D01*
X84091079Y-40566670D01*
X84078782Y-40546153D01*
X84068554Y-40524529D01*
X84060496Y-40502007D01*
X84054684Y-40478803D01*
X84051174Y-40455142D01*
X84050000Y-40431250D01*
X84050000Y-39943750D01*
X84051174Y-39919858D01*
X84054684Y-39896197D01*
X84060496Y-39872993D01*
X84068554Y-39850471D01*
X84078782Y-39828847D01*
X84091079Y-39808330D01*
X84105329Y-39789117D01*
X84121393Y-39771393D01*
X84139117Y-39755329D01*
X84158330Y-39741079D01*
X84178847Y-39728782D01*
X84200471Y-39718554D01*
X84222993Y-39710496D01*
X84246197Y-39704684D01*
X84269858Y-39701174D01*
X84293750Y-39700000D01*
X85206250Y-39700000D01*
X85230142Y-39701174D01*
X85230142Y-39701174D01*
G37*
D16*
X84750000Y-40187500D03*
G04 #@! TD*
D10*
G04 #@! TO.C,LO_C4*
G36*
X83230142Y-37826174D02*
X83253803Y-37829684D01*
X83277007Y-37835496D01*
X83299529Y-37843554D01*
X83321153Y-37853782D01*
X83341670Y-37866079D01*
X83360883Y-37880329D01*
X83378607Y-37896393D01*
X83394671Y-37914117D01*
X83408921Y-37933330D01*
X83421218Y-37953847D01*
X83431446Y-37975471D01*
X83439504Y-37997993D01*
X83445316Y-38021197D01*
X83448826Y-38044858D01*
X83450000Y-38068750D01*
X83450000Y-38556250D01*
X83448826Y-38580142D01*
X83445316Y-38603803D01*
X83439504Y-38627007D01*
X83431446Y-38649529D01*
X83421218Y-38671153D01*
X83408921Y-38691670D01*
X83394671Y-38710883D01*
X83378607Y-38728607D01*
X83360883Y-38744671D01*
X83341670Y-38758921D01*
X83321153Y-38771218D01*
X83299529Y-38781446D01*
X83277007Y-38789504D01*
X83253803Y-38795316D01*
X83230142Y-38798826D01*
X83206250Y-38800000D01*
X82293750Y-38800000D01*
X82269858Y-38798826D01*
X82246197Y-38795316D01*
X82222993Y-38789504D01*
X82200471Y-38781446D01*
X82178847Y-38771218D01*
X82158330Y-38758921D01*
X82139117Y-38744671D01*
X82121393Y-38728607D01*
X82105329Y-38710883D01*
X82091079Y-38691670D01*
X82078782Y-38671153D01*
X82068554Y-38649529D01*
X82060496Y-38627007D01*
X82054684Y-38603803D01*
X82051174Y-38580142D01*
X82050000Y-38556250D01*
X82050000Y-38068750D01*
X82051174Y-38044858D01*
X82054684Y-38021197D01*
X82060496Y-37997993D01*
X82068554Y-37975471D01*
X82078782Y-37953847D01*
X82091079Y-37933330D01*
X82105329Y-37914117D01*
X82121393Y-37896393D01*
X82139117Y-37880329D01*
X82158330Y-37866079D01*
X82178847Y-37853782D01*
X82200471Y-37843554D01*
X82222993Y-37835496D01*
X82246197Y-37829684D01*
X82269858Y-37826174D01*
X82293750Y-37825000D01*
X83206250Y-37825000D01*
X83230142Y-37826174D01*
X83230142Y-37826174D01*
G37*
D16*
X82750000Y-38312500D03*
D10*
G36*
X83230142Y-39701174D02*
X83253803Y-39704684D01*
X83277007Y-39710496D01*
X83299529Y-39718554D01*
X83321153Y-39728782D01*
X83341670Y-39741079D01*
X83360883Y-39755329D01*
X83378607Y-39771393D01*
X83394671Y-39789117D01*
X83408921Y-39808330D01*
X83421218Y-39828847D01*
X83431446Y-39850471D01*
X83439504Y-39872993D01*
X83445316Y-39896197D01*
X83448826Y-39919858D01*
X83450000Y-39943750D01*
X83450000Y-40431250D01*
X83448826Y-40455142D01*
X83445316Y-40478803D01*
X83439504Y-40502007D01*
X83431446Y-40524529D01*
X83421218Y-40546153D01*
X83408921Y-40566670D01*
X83394671Y-40585883D01*
X83378607Y-40603607D01*
X83360883Y-40619671D01*
X83341670Y-40633921D01*
X83321153Y-40646218D01*
X83299529Y-40656446D01*
X83277007Y-40664504D01*
X83253803Y-40670316D01*
X83230142Y-40673826D01*
X83206250Y-40675000D01*
X82293750Y-40675000D01*
X82269858Y-40673826D01*
X82246197Y-40670316D01*
X82222993Y-40664504D01*
X82200471Y-40656446D01*
X82178847Y-40646218D01*
X82158330Y-40633921D01*
X82139117Y-40619671D01*
X82121393Y-40603607D01*
X82105329Y-40585883D01*
X82091079Y-40566670D01*
X82078782Y-40546153D01*
X82068554Y-40524529D01*
X82060496Y-40502007D01*
X82054684Y-40478803D01*
X82051174Y-40455142D01*
X82050000Y-40431250D01*
X82050000Y-39943750D01*
X82051174Y-39919858D01*
X82054684Y-39896197D01*
X82060496Y-39872993D01*
X82068554Y-39850471D01*
X82078782Y-39828847D01*
X82091079Y-39808330D01*
X82105329Y-39789117D01*
X82121393Y-39771393D01*
X82139117Y-39755329D01*
X82158330Y-39741079D01*
X82178847Y-39728782D01*
X82200471Y-39718554D01*
X82222993Y-39710496D01*
X82246197Y-39704684D01*
X82269858Y-39701174D01*
X82293750Y-39700000D01*
X83206250Y-39700000D01*
X83230142Y-39701174D01*
X83230142Y-39701174D01*
G37*
D16*
X82750000Y-40187500D03*
G04 #@! TD*
D10*
G04 #@! TO.C,LO_C5*
G36*
X71580142Y-41801174D02*
X71603803Y-41804684D01*
X71627007Y-41810496D01*
X71649529Y-41818554D01*
X71671153Y-41828782D01*
X71691670Y-41841079D01*
X71710883Y-41855329D01*
X71728607Y-41871393D01*
X71744671Y-41889117D01*
X71758921Y-41908330D01*
X71771218Y-41928847D01*
X71781446Y-41950471D01*
X71789504Y-41972993D01*
X71795316Y-41996197D01*
X71798826Y-42019858D01*
X71800000Y-42043750D01*
X71800000Y-42956250D01*
X71798826Y-42980142D01*
X71795316Y-43003803D01*
X71789504Y-43027007D01*
X71781446Y-43049529D01*
X71771218Y-43071153D01*
X71758921Y-43091670D01*
X71744671Y-43110883D01*
X71728607Y-43128607D01*
X71710883Y-43144671D01*
X71691670Y-43158921D01*
X71671153Y-43171218D01*
X71649529Y-43181446D01*
X71627007Y-43189504D01*
X71603803Y-43195316D01*
X71580142Y-43198826D01*
X71556250Y-43200000D01*
X71068750Y-43200000D01*
X71044858Y-43198826D01*
X71021197Y-43195316D01*
X70997993Y-43189504D01*
X70975471Y-43181446D01*
X70953847Y-43171218D01*
X70933330Y-43158921D01*
X70914117Y-43144671D01*
X70896393Y-43128607D01*
X70880329Y-43110883D01*
X70866079Y-43091670D01*
X70853782Y-43071153D01*
X70843554Y-43049529D01*
X70835496Y-43027007D01*
X70829684Y-43003803D01*
X70826174Y-42980142D01*
X70825000Y-42956250D01*
X70825000Y-42043750D01*
X70826174Y-42019858D01*
X70829684Y-41996197D01*
X70835496Y-41972993D01*
X70843554Y-41950471D01*
X70853782Y-41928847D01*
X70866079Y-41908330D01*
X70880329Y-41889117D01*
X70896393Y-41871393D01*
X70914117Y-41855329D01*
X70933330Y-41841079D01*
X70953847Y-41828782D01*
X70975471Y-41818554D01*
X70997993Y-41810496D01*
X71021197Y-41804684D01*
X71044858Y-41801174D01*
X71068750Y-41800000D01*
X71556250Y-41800000D01*
X71580142Y-41801174D01*
X71580142Y-41801174D01*
G37*
D16*
X71312500Y-42500000D03*
D10*
G36*
X73455142Y-41801174D02*
X73478803Y-41804684D01*
X73502007Y-41810496D01*
X73524529Y-41818554D01*
X73546153Y-41828782D01*
X73566670Y-41841079D01*
X73585883Y-41855329D01*
X73603607Y-41871393D01*
X73619671Y-41889117D01*
X73633921Y-41908330D01*
X73646218Y-41928847D01*
X73656446Y-41950471D01*
X73664504Y-41972993D01*
X73670316Y-41996197D01*
X73673826Y-42019858D01*
X73675000Y-42043750D01*
X73675000Y-42956250D01*
X73673826Y-42980142D01*
X73670316Y-43003803D01*
X73664504Y-43027007D01*
X73656446Y-43049529D01*
X73646218Y-43071153D01*
X73633921Y-43091670D01*
X73619671Y-43110883D01*
X73603607Y-43128607D01*
X73585883Y-43144671D01*
X73566670Y-43158921D01*
X73546153Y-43171218D01*
X73524529Y-43181446D01*
X73502007Y-43189504D01*
X73478803Y-43195316D01*
X73455142Y-43198826D01*
X73431250Y-43200000D01*
X72943750Y-43200000D01*
X72919858Y-43198826D01*
X72896197Y-43195316D01*
X72872993Y-43189504D01*
X72850471Y-43181446D01*
X72828847Y-43171218D01*
X72808330Y-43158921D01*
X72789117Y-43144671D01*
X72771393Y-43128607D01*
X72755329Y-43110883D01*
X72741079Y-43091670D01*
X72728782Y-43071153D01*
X72718554Y-43049529D01*
X72710496Y-43027007D01*
X72704684Y-43003803D01*
X72701174Y-42980142D01*
X72700000Y-42956250D01*
X72700000Y-42043750D01*
X72701174Y-42019858D01*
X72704684Y-41996197D01*
X72710496Y-41972993D01*
X72718554Y-41950471D01*
X72728782Y-41928847D01*
X72741079Y-41908330D01*
X72755329Y-41889117D01*
X72771393Y-41871393D01*
X72789117Y-41855329D01*
X72808330Y-41841079D01*
X72828847Y-41828782D01*
X72850471Y-41818554D01*
X72872993Y-41810496D01*
X72896197Y-41804684D01*
X72919858Y-41801174D01*
X72943750Y-41800000D01*
X73431250Y-41800000D01*
X73455142Y-41801174D01*
X73455142Y-41801174D01*
G37*
D16*
X73187500Y-42500000D03*
G04 #@! TD*
D10*
G04 #@! TO.C,LO_L1*
G36*
X88330142Y-42701174D02*
X88353803Y-42704684D01*
X88377007Y-42710496D01*
X88399529Y-42718554D01*
X88421153Y-42728782D01*
X88441670Y-42741079D01*
X88460883Y-42755329D01*
X88478607Y-42771393D01*
X88494671Y-42789117D01*
X88508921Y-42808330D01*
X88521218Y-42828847D01*
X88531446Y-42850471D01*
X88539504Y-42872993D01*
X88545316Y-42896197D01*
X88548826Y-42919858D01*
X88550000Y-42943750D01*
X88550000Y-43431250D01*
X88548826Y-43455142D01*
X88545316Y-43478803D01*
X88539504Y-43502007D01*
X88531446Y-43524529D01*
X88521218Y-43546153D01*
X88508921Y-43566670D01*
X88494671Y-43585883D01*
X88478607Y-43603607D01*
X88460883Y-43619671D01*
X88441670Y-43633921D01*
X88421153Y-43646218D01*
X88399529Y-43656446D01*
X88377007Y-43664504D01*
X88353803Y-43670316D01*
X88330142Y-43673826D01*
X88306250Y-43675000D01*
X87393750Y-43675000D01*
X87369858Y-43673826D01*
X87346197Y-43670316D01*
X87322993Y-43664504D01*
X87300471Y-43656446D01*
X87278847Y-43646218D01*
X87258330Y-43633921D01*
X87239117Y-43619671D01*
X87221393Y-43603607D01*
X87205329Y-43585883D01*
X87191079Y-43566670D01*
X87178782Y-43546153D01*
X87168554Y-43524529D01*
X87160496Y-43502007D01*
X87154684Y-43478803D01*
X87151174Y-43455142D01*
X87150000Y-43431250D01*
X87150000Y-42943750D01*
X87151174Y-42919858D01*
X87154684Y-42896197D01*
X87160496Y-42872993D01*
X87168554Y-42850471D01*
X87178782Y-42828847D01*
X87191079Y-42808330D01*
X87205329Y-42789117D01*
X87221393Y-42771393D01*
X87239117Y-42755329D01*
X87258330Y-42741079D01*
X87278847Y-42728782D01*
X87300471Y-42718554D01*
X87322993Y-42710496D01*
X87346197Y-42704684D01*
X87369858Y-42701174D01*
X87393750Y-42700000D01*
X88306250Y-42700000D01*
X88330142Y-42701174D01*
X88330142Y-42701174D01*
G37*
D16*
X87850000Y-43187500D03*
D10*
G36*
X88330142Y-40826174D02*
X88353803Y-40829684D01*
X88377007Y-40835496D01*
X88399529Y-40843554D01*
X88421153Y-40853782D01*
X88441670Y-40866079D01*
X88460883Y-40880329D01*
X88478607Y-40896393D01*
X88494671Y-40914117D01*
X88508921Y-40933330D01*
X88521218Y-40953847D01*
X88531446Y-40975471D01*
X88539504Y-40997993D01*
X88545316Y-41021197D01*
X88548826Y-41044858D01*
X88550000Y-41068750D01*
X88550000Y-41556250D01*
X88548826Y-41580142D01*
X88545316Y-41603803D01*
X88539504Y-41627007D01*
X88531446Y-41649529D01*
X88521218Y-41671153D01*
X88508921Y-41691670D01*
X88494671Y-41710883D01*
X88478607Y-41728607D01*
X88460883Y-41744671D01*
X88441670Y-41758921D01*
X88421153Y-41771218D01*
X88399529Y-41781446D01*
X88377007Y-41789504D01*
X88353803Y-41795316D01*
X88330142Y-41798826D01*
X88306250Y-41800000D01*
X87393750Y-41800000D01*
X87369858Y-41798826D01*
X87346197Y-41795316D01*
X87322993Y-41789504D01*
X87300471Y-41781446D01*
X87278847Y-41771218D01*
X87258330Y-41758921D01*
X87239117Y-41744671D01*
X87221393Y-41728607D01*
X87205329Y-41710883D01*
X87191079Y-41691670D01*
X87178782Y-41671153D01*
X87168554Y-41649529D01*
X87160496Y-41627007D01*
X87154684Y-41603803D01*
X87151174Y-41580142D01*
X87150000Y-41556250D01*
X87150000Y-41068750D01*
X87151174Y-41044858D01*
X87154684Y-41021197D01*
X87160496Y-40997993D01*
X87168554Y-40975471D01*
X87178782Y-40953847D01*
X87191079Y-40933330D01*
X87205329Y-40914117D01*
X87221393Y-40896393D01*
X87239117Y-40880329D01*
X87258330Y-40866079D01*
X87278847Y-40853782D01*
X87300471Y-40843554D01*
X87322993Y-40835496D01*
X87346197Y-40829684D01*
X87369858Y-40826174D01*
X87393750Y-40825000D01*
X88306250Y-40825000D01*
X88330142Y-40826174D01*
X88330142Y-40826174D01*
G37*
D16*
X87850000Y-41312500D03*
G04 #@! TD*
D10*
G04 #@! TO.C,LO_L2*
G36*
X85955142Y-41551174D02*
X85978803Y-41554684D01*
X86002007Y-41560496D01*
X86024529Y-41568554D01*
X86046153Y-41578782D01*
X86066670Y-41591079D01*
X86085883Y-41605329D01*
X86103607Y-41621393D01*
X86119671Y-41639117D01*
X86133921Y-41658330D01*
X86146218Y-41678847D01*
X86156446Y-41700471D01*
X86164504Y-41722993D01*
X86170316Y-41746197D01*
X86173826Y-41769858D01*
X86175000Y-41793750D01*
X86175000Y-42706250D01*
X86173826Y-42730142D01*
X86170316Y-42753803D01*
X86164504Y-42777007D01*
X86156446Y-42799529D01*
X86146218Y-42821153D01*
X86133921Y-42841670D01*
X86119671Y-42860883D01*
X86103607Y-42878607D01*
X86085883Y-42894671D01*
X86066670Y-42908921D01*
X86046153Y-42921218D01*
X86024529Y-42931446D01*
X86002007Y-42939504D01*
X85978803Y-42945316D01*
X85955142Y-42948826D01*
X85931250Y-42950000D01*
X85443750Y-42950000D01*
X85419858Y-42948826D01*
X85396197Y-42945316D01*
X85372993Y-42939504D01*
X85350471Y-42931446D01*
X85328847Y-42921218D01*
X85308330Y-42908921D01*
X85289117Y-42894671D01*
X85271393Y-42878607D01*
X85255329Y-42860883D01*
X85241079Y-42841670D01*
X85228782Y-42821153D01*
X85218554Y-42799529D01*
X85210496Y-42777007D01*
X85204684Y-42753803D01*
X85201174Y-42730142D01*
X85200000Y-42706250D01*
X85200000Y-41793750D01*
X85201174Y-41769858D01*
X85204684Y-41746197D01*
X85210496Y-41722993D01*
X85218554Y-41700471D01*
X85228782Y-41678847D01*
X85241079Y-41658330D01*
X85255329Y-41639117D01*
X85271393Y-41621393D01*
X85289117Y-41605329D01*
X85308330Y-41591079D01*
X85328847Y-41578782D01*
X85350471Y-41568554D01*
X85372993Y-41560496D01*
X85396197Y-41554684D01*
X85419858Y-41551174D01*
X85443750Y-41550000D01*
X85931250Y-41550000D01*
X85955142Y-41551174D01*
X85955142Y-41551174D01*
G37*
D16*
X85687500Y-42250000D03*
D10*
G36*
X84080142Y-41551174D02*
X84103803Y-41554684D01*
X84127007Y-41560496D01*
X84149529Y-41568554D01*
X84171153Y-41578782D01*
X84191670Y-41591079D01*
X84210883Y-41605329D01*
X84228607Y-41621393D01*
X84244671Y-41639117D01*
X84258921Y-41658330D01*
X84271218Y-41678847D01*
X84281446Y-41700471D01*
X84289504Y-41722993D01*
X84295316Y-41746197D01*
X84298826Y-41769858D01*
X84300000Y-41793750D01*
X84300000Y-42706250D01*
X84298826Y-42730142D01*
X84295316Y-42753803D01*
X84289504Y-42777007D01*
X84281446Y-42799529D01*
X84271218Y-42821153D01*
X84258921Y-42841670D01*
X84244671Y-42860883D01*
X84228607Y-42878607D01*
X84210883Y-42894671D01*
X84191670Y-42908921D01*
X84171153Y-42921218D01*
X84149529Y-42931446D01*
X84127007Y-42939504D01*
X84103803Y-42945316D01*
X84080142Y-42948826D01*
X84056250Y-42950000D01*
X83568750Y-42950000D01*
X83544858Y-42948826D01*
X83521197Y-42945316D01*
X83497993Y-42939504D01*
X83475471Y-42931446D01*
X83453847Y-42921218D01*
X83433330Y-42908921D01*
X83414117Y-42894671D01*
X83396393Y-42878607D01*
X83380329Y-42860883D01*
X83366079Y-42841670D01*
X83353782Y-42821153D01*
X83343554Y-42799529D01*
X83335496Y-42777007D01*
X83329684Y-42753803D01*
X83326174Y-42730142D01*
X83325000Y-42706250D01*
X83325000Y-41793750D01*
X83326174Y-41769858D01*
X83329684Y-41746197D01*
X83335496Y-41722993D01*
X83343554Y-41700471D01*
X83353782Y-41678847D01*
X83366079Y-41658330D01*
X83380329Y-41639117D01*
X83396393Y-41621393D01*
X83414117Y-41605329D01*
X83433330Y-41591079D01*
X83453847Y-41578782D01*
X83475471Y-41568554D01*
X83497993Y-41560496D01*
X83521197Y-41554684D01*
X83544858Y-41551174D01*
X83568750Y-41550000D01*
X84056250Y-41550000D01*
X84080142Y-41551174D01*
X84080142Y-41551174D01*
G37*
D16*
X83812500Y-42250000D03*
G04 #@! TD*
D10*
G04 #@! TO.C,LO_L3*
G36*
X75780142Y-40926174D02*
X75803803Y-40929684D01*
X75827007Y-40935496D01*
X75849529Y-40943554D01*
X75871153Y-40953782D01*
X75891670Y-40966079D01*
X75910883Y-40980329D01*
X75928607Y-40996393D01*
X75944671Y-41014117D01*
X75958921Y-41033330D01*
X75971218Y-41053847D01*
X75981446Y-41075471D01*
X75989504Y-41097993D01*
X75995316Y-41121197D01*
X75998826Y-41144858D01*
X76000000Y-41168750D01*
X76000000Y-41656250D01*
X75998826Y-41680142D01*
X75995316Y-41703803D01*
X75989504Y-41727007D01*
X75981446Y-41749529D01*
X75971218Y-41771153D01*
X75958921Y-41791670D01*
X75944671Y-41810883D01*
X75928607Y-41828607D01*
X75910883Y-41844671D01*
X75891670Y-41858921D01*
X75871153Y-41871218D01*
X75849529Y-41881446D01*
X75827007Y-41889504D01*
X75803803Y-41895316D01*
X75780142Y-41898826D01*
X75756250Y-41900000D01*
X74843750Y-41900000D01*
X74819858Y-41898826D01*
X74796197Y-41895316D01*
X74772993Y-41889504D01*
X74750471Y-41881446D01*
X74728847Y-41871218D01*
X74708330Y-41858921D01*
X74689117Y-41844671D01*
X74671393Y-41828607D01*
X74655329Y-41810883D01*
X74641079Y-41791670D01*
X74628782Y-41771153D01*
X74618554Y-41749529D01*
X74610496Y-41727007D01*
X74604684Y-41703803D01*
X74601174Y-41680142D01*
X74600000Y-41656250D01*
X74600000Y-41168750D01*
X74601174Y-41144858D01*
X74604684Y-41121197D01*
X74610496Y-41097993D01*
X74618554Y-41075471D01*
X74628782Y-41053847D01*
X74641079Y-41033330D01*
X74655329Y-41014117D01*
X74671393Y-40996393D01*
X74689117Y-40980329D01*
X74708330Y-40966079D01*
X74728847Y-40953782D01*
X74750471Y-40943554D01*
X74772993Y-40935496D01*
X74796197Y-40929684D01*
X74819858Y-40926174D01*
X74843750Y-40925000D01*
X75756250Y-40925000D01*
X75780142Y-40926174D01*
X75780142Y-40926174D01*
G37*
D16*
X75300000Y-41412500D03*
D10*
G36*
X75780142Y-42801174D02*
X75803803Y-42804684D01*
X75827007Y-42810496D01*
X75849529Y-42818554D01*
X75871153Y-42828782D01*
X75891670Y-42841079D01*
X75910883Y-42855329D01*
X75928607Y-42871393D01*
X75944671Y-42889117D01*
X75958921Y-42908330D01*
X75971218Y-42928847D01*
X75981446Y-42950471D01*
X75989504Y-42972993D01*
X75995316Y-42996197D01*
X75998826Y-43019858D01*
X76000000Y-43043750D01*
X76000000Y-43531250D01*
X75998826Y-43555142D01*
X75995316Y-43578803D01*
X75989504Y-43602007D01*
X75981446Y-43624529D01*
X75971218Y-43646153D01*
X75958921Y-43666670D01*
X75944671Y-43685883D01*
X75928607Y-43703607D01*
X75910883Y-43719671D01*
X75891670Y-43733921D01*
X75871153Y-43746218D01*
X75849529Y-43756446D01*
X75827007Y-43764504D01*
X75803803Y-43770316D01*
X75780142Y-43773826D01*
X75756250Y-43775000D01*
X74843750Y-43775000D01*
X74819858Y-43773826D01*
X74796197Y-43770316D01*
X74772993Y-43764504D01*
X74750471Y-43756446D01*
X74728847Y-43746218D01*
X74708330Y-43733921D01*
X74689117Y-43719671D01*
X74671393Y-43703607D01*
X74655329Y-43685883D01*
X74641079Y-43666670D01*
X74628782Y-43646153D01*
X74618554Y-43624529D01*
X74610496Y-43602007D01*
X74604684Y-43578803D01*
X74601174Y-43555142D01*
X74600000Y-43531250D01*
X74600000Y-43043750D01*
X74601174Y-43019858D01*
X74604684Y-42996197D01*
X74610496Y-42972993D01*
X74618554Y-42950471D01*
X74628782Y-42928847D01*
X74641079Y-42908330D01*
X74655329Y-42889117D01*
X74671393Y-42871393D01*
X74689117Y-42855329D01*
X74708330Y-42841079D01*
X74728847Y-42828782D01*
X74750471Y-42818554D01*
X74772993Y-42810496D01*
X74796197Y-42804684D01*
X74819858Y-42801174D01*
X74843750Y-42800000D01*
X75756250Y-42800000D01*
X75780142Y-42801174D01*
X75780142Y-42801174D01*
G37*
D16*
X75300000Y-43287500D03*
G04 #@! TD*
D17*
G04 #@! TO.C,LO_Y1*
X97600000Y-40100000D03*
X97600000Y-37900000D03*
X95900000Y-37900000D03*
X95900000Y-40100000D03*
G04 #@! TD*
D10*
G04 #@! TO.C,RF_C1*
G36*
X83205142Y-47301174D02*
X83228803Y-47304684D01*
X83252007Y-47310496D01*
X83274529Y-47318554D01*
X83296153Y-47328782D01*
X83316670Y-47341079D01*
X83335883Y-47355329D01*
X83353607Y-47371393D01*
X83369671Y-47389117D01*
X83383921Y-47408330D01*
X83396218Y-47428847D01*
X83406446Y-47450471D01*
X83414504Y-47472993D01*
X83420316Y-47496197D01*
X83423826Y-47519858D01*
X83425000Y-47543750D01*
X83425000Y-48456250D01*
X83423826Y-48480142D01*
X83420316Y-48503803D01*
X83414504Y-48527007D01*
X83406446Y-48549529D01*
X83396218Y-48571153D01*
X83383921Y-48591670D01*
X83369671Y-48610883D01*
X83353607Y-48628607D01*
X83335883Y-48644671D01*
X83316670Y-48658921D01*
X83296153Y-48671218D01*
X83274529Y-48681446D01*
X83252007Y-48689504D01*
X83228803Y-48695316D01*
X83205142Y-48698826D01*
X83181250Y-48700000D01*
X82693750Y-48700000D01*
X82669858Y-48698826D01*
X82646197Y-48695316D01*
X82622993Y-48689504D01*
X82600471Y-48681446D01*
X82578847Y-48671218D01*
X82558330Y-48658921D01*
X82539117Y-48644671D01*
X82521393Y-48628607D01*
X82505329Y-48610883D01*
X82491079Y-48591670D01*
X82478782Y-48571153D01*
X82468554Y-48549529D01*
X82460496Y-48527007D01*
X82454684Y-48503803D01*
X82451174Y-48480142D01*
X82450000Y-48456250D01*
X82450000Y-47543750D01*
X82451174Y-47519858D01*
X82454684Y-47496197D01*
X82460496Y-47472993D01*
X82468554Y-47450471D01*
X82478782Y-47428847D01*
X82491079Y-47408330D01*
X82505329Y-47389117D01*
X82521393Y-47371393D01*
X82539117Y-47355329D01*
X82558330Y-47341079D01*
X82578847Y-47328782D01*
X82600471Y-47318554D01*
X82622993Y-47310496D01*
X82646197Y-47304684D01*
X82669858Y-47301174D01*
X82693750Y-47300000D01*
X83181250Y-47300000D01*
X83205142Y-47301174D01*
X83205142Y-47301174D01*
G37*
D16*
X82937500Y-48000000D03*
D10*
G36*
X81330142Y-47301174D02*
X81353803Y-47304684D01*
X81377007Y-47310496D01*
X81399529Y-47318554D01*
X81421153Y-47328782D01*
X81441670Y-47341079D01*
X81460883Y-47355329D01*
X81478607Y-47371393D01*
X81494671Y-47389117D01*
X81508921Y-47408330D01*
X81521218Y-47428847D01*
X81531446Y-47450471D01*
X81539504Y-47472993D01*
X81545316Y-47496197D01*
X81548826Y-47519858D01*
X81550000Y-47543750D01*
X81550000Y-48456250D01*
X81548826Y-48480142D01*
X81545316Y-48503803D01*
X81539504Y-48527007D01*
X81531446Y-48549529D01*
X81521218Y-48571153D01*
X81508921Y-48591670D01*
X81494671Y-48610883D01*
X81478607Y-48628607D01*
X81460883Y-48644671D01*
X81441670Y-48658921D01*
X81421153Y-48671218D01*
X81399529Y-48681446D01*
X81377007Y-48689504D01*
X81353803Y-48695316D01*
X81330142Y-48698826D01*
X81306250Y-48700000D01*
X80818750Y-48700000D01*
X80794858Y-48698826D01*
X80771197Y-48695316D01*
X80747993Y-48689504D01*
X80725471Y-48681446D01*
X80703847Y-48671218D01*
X80683330Y-48658921D01*
X80664117Y-48644671D01*
X80646393Y-48628607D01*
X80630329Y-48610883D01*
X80616079Y-48591670D01*
X80603782Y-48571153D01*
X80593554Y-48549529D01*
X80585496Y-48527007D01*
X80579684Y-48503803D01*
X80576174Y-48480142D01*
X80575000Y-48456250D01*
X80575000Y-47543750D01*
X80576174Y-47519858D01*
X80579684Y-47496197D01*
X80585496Y-47472993D01*
X80593554Y-47450471D01*
X80603782Y-47428847D01*
X80616079Y-47408330D01*
X80630329Y-47389117D01*
X80646393Y-47371393D01*
X80664117Y-47355329D01*
X80683330Y-47341079D01*
X80703847Y-47328782D01*
X80725471Y-47318554D01*
X80747993Y-47310496D01*
X80771197Y-47304684D01*
X80794858Y-47301174D01*
X80818750Y-47300000D01*
X81306250Y-47300000D01*
X81330142Y-47301174D01*
X81330142Y-47301174D01*
G37*
D16*
X81062500Y-48000000D03*
G04 #@! TD*
D10*
G04 #@! TO.C,RF_C2*
G36*
X76960719Y-48675362D02*
X76984380Y-48678872D01*
X77007584Y-48684684D01*
X77030106Y-48692742D01*
X77051730Y-48702970D01*
X77072247Y-48715267D01*
X77091460Y-48729517D01*
X77109184Y-48745581D01*
X77754419Y-49390816D01*
X77770483Y-49408540D01*
X77784733Y-49427753D01*
X77797030Y-49448270D01*
X77807258Y-49469894D01*
X77815316Y-49492416D01*
X77821128Y-49515620D01*
X77824638Y-49539281D01*
X77825812Y-49563173D01*
X77824638Y-49587065D01*
X77821128Y-49610726D01*
X77815316Y-49633930D01*
X77807258Y-49656452D01*
X77797030Y-49678076D01*
X77784733Y-49698593D01*
X77770483Y-49717806D01*
X77754419Y-49735530D01*
X77409704Y-50080245D01*
X77391980Y-50096309D01*
X77372767Y-50110559D01*
X77352250Y-50122856D01*
X77330626Y-50133084D01*
X77308104Y-50141142D01*
X77284900Y-50146954D01*
X77261239Y-50150464D01*
X77237347Y-50151638D01*
X77213455Y-50150464D01*
X77189794Y-50146954D01*
X77166590Y-50141142D01*
X77144068Y-50133084D01*
X77122444Y-50122856D01*
X77101927Y-50110559D01*
X77082714Y-50096309D01*
X77064990Y-50080245D01*
X76419755Y-49435010D01*
X76403691Y-49417286D01*
X76389441Y-49398073D01*
X76377144Y-49377556D01*
X76366916Y-49355932D01*
X76358858Y-49333410D01*
X76353046Y-49310206D01*
X76349536Y-49286545D01*
X76348362Y-49262653D01*
X76349536Y-49238761D01*
X76353046Y-49215100D01*
X76358858Y-49191896D01*
X76366916Y-49169374D01*
X76377144Y-49147750D01*
X76389441Y-49127233D01*
X76403691Y-49108020D01*
X76419755Y-49090296D01*
X76764470Y-48745581D01*
X76782194Y-48729517D01*
X76801407Y-48715267D01*
X76821924Y-48702970D01*
X76843548Y-48692742D01*
X76866070Y-48684684D01*
X76889274Y-48678872D01*
X76912935Y-48675362D01*
X76936827Y-48674188D01*
X76960719Y-48675362D01*
X76960719Y-48675362D01*
G37*
D16*
X77087087Y-49412913D03*
D10*
G36*
X78286545Y-47349536D02*
X78310206Y-47353046D01*
X78333410Y-47358858D01*
X78355932Y-47366916D01*
X78377556Y-47377144D01*
X78398073Y-47389441D01*
X78417286Y-47403691D01*
X78435010Y-47419755D01*
X79080245Y-48064990D01*
X79096309Y-48082714D01*
X79110559Y-48101927D01*
X79122856Y-48122444D01*
X79133084Y-48144068D01*
X79141142Y-48166590D01*
X79146954Y-48189794D01*
X79150464Y-48213455D01*
X79151638Y-48237347D01*
X79150464Y-48261239D01*
X79146954Y-48284900D01*
X79141142Y-48308104D01*
X79133084Y-48330626D01*
X79122856Y-48352250D01*
X79110559Y-48372767D01*
X79096309Y-48391980D01*
X79080245Y-48409704D01*
X78735530Y-48754419D01*
X78717806Y-48770483D01*
X78698593Y-48784733D01*
X78678076Y-48797030D01*
X78656452Y-48807258D01*
X78633930Y-48815316D01*
X78610726Y-48821128D01*
X78587065Y-48824638D01*
X78563173Y-48825812D01*
X78539281Y-48824638D01*
X78515620Y-48821128D01*
X78492416Y-48815316D01*
X78469894Y-48807258D01*
X78448270Y-48797030D01*
X78427753Y-48784733D01*
X78408540Y-48770483D01*
X78390816Y-48754419D01*
X77745581Y-48109184D01*
X77729517Y-48091460D01*
X77715267Y-48072247D01*
X77702970Y-48051730D01*
X77692742Y-48030106D01*
X77684684Y-48007584D01*
X77678872Y-47984380D01*
X77675362Y-47960719D01*
X77674188Y-47936827D01*
X77675362Y-47912935D01*
X77678872Y-47889274D01*
X77684684Y-47866070D01*
X77692742Y-47843548D01*
X77702970Y-47821924D01*
X77715267Y-47801407D01*
X77729517Y-47782194D01*
X77745581Y-47764470D01*
X78090296Y-47419755D01*
X78108020Y-47403691D01*
X78127233Y-47389441D01*
X78147750Y-47377144D01*
X78169374Y-47366916D01*
X78191896Y-47358858D01*
X78215100Y-47353046D01*
X78238761Y-47349536D01*
X78262653Y-47348362D01*
X78286545Y-47349536D01*
X78286545Y-47349536D01*
G37*
D16*
X78412913Y-48087087D03*
G04 #@! TD*
D10*
G04 #@! TO.C,RF_L1*
G36*
X76286545Y-45849536D02*
X76310206Y-45853046D01*
X76333410Y-45858858D01*
X76355932Y-45866916D01*
X76377556Y-45877144D01*
X76398073Y-45889441D01*
X76417286Y-45903691D01*
X76435010Y-45919755D01*
X77080245Y-46564990D01*
X77096309Y-46582714D01*
X77110559Y-46601927D01*
X77122856Y-46622444D01*
X77133084Y-46644068D01*
X77141142Y-46666590D01*
X77146954Y-46689794D01*
X77150464Y-46713455D01*
X77151638Y-46737347D01*
X77150464Y-46761239D01*
X77146954Y-46784900D01*
X77141142Y-46808104D01*
X77133084Y-46830626D01*
X77122856Y-46852250D01*
X77110559Y-46872767D01*
X77096309Y-46891980D01*
X77080245Y-46909704D01*
X76735530Y-47254419D01*
X76717806Y-47270483D01*
X76698593Y-47284733D01*
X76678076Y-47297030D01*
X76656452Y-47307258D01*
X76633930Y-47315316D01*
X76610726Y-47321128D01*
X76587065Y-47324638D01*
X76563173Y-47325812D01*
X76539281Y-47324638D01*
X76515620Y-47321128D01*
X76492416Y-47315316D01*
X76469894Y-47307258D01*
X76448270Y-47297030D01*
X76427753Y-47284733D01*
X76408540Y-47270483D01*
X76390816Y-47254419D01*
X75745581Y-46609184D01*
X75729517Y-46591460D01*
X75715267Y-46572247D01*
X75702970Y-46551730D01*
X75692742Y-46530106D01*
X75684684Y-46507584D01*
X75678872Y-46484380D01*
X75675362Y-46460719D01*
X75674188Y-46436827D01*
X75675362Y-46412935D01*
X75678872Y-46389274D01*
X75684684Y-46366070D01*
X75692742Y-46343548D01*
X75702970Y-46321924D01*
X75715267Y-46301407D01*
X75729517Y-46282194D01*
X75745581Y-46264470D01*
X76090296Y-45919755D01*
X76108020Y-45903691D01*
X76127233Y-45889441D01*
X76147750Y-45877144D01*
X76169374Y-45866916D01*
X76191896Y-45858858D01*
X76215100Y-45853046D01*
X76238761Y-45849536D01*
X76262653Y-45848362D01*
X76286545Y-45849536D01*
X76286545Y-45849536D01*
G37*
D16*
X76412913Y-46587087D03*
D10*
G36*
X74960719Y-47175362D02*
X74984380Y-47178872D01*
X75007584Y-47184684D01*
X75030106Y-47192742D01*
X75051730Y-47202970D01*
X75072247Y-47215267D01*
X75091460Y-47229517D01*
X75109184Y-47245581D01*
X75754419Y-47890816D01*
X75770483Y-47908540D01*
X75784733Y-47927753D01*
X75797030Y-47948270D01*
X75807258Y-47969894D01*
X75815316Y-47992416D01*
X75821128Y-48015620D01*
X75824638Y-48039281D01*
X75825812Y-48063173D01*
X75824638Y-48087065D01*
X75821128Y-48110726D01*
X75815316Y-48133930D01*
X75807258Y-48156452D01*
X75797030Y-48178076D01*
X75784733Y-48198593D01*
X75770483Y-48217806D01*
X75754419Y-48235530D01*
X75409704Y-48580245D01*
X75391980Y-48596309D01*
X75372767Y-48610559D01*
X75352250Y-48622856D01*
X75330626Y-48633084D01*
X75308104Y-48641142D01*
X75284900Y-48646954D01*
X75261239Y-48650464D01*
X75237347Y-48651638D01*
X75213455Y-48650464D01*
X75189794Y-48646954D01*
X75166590Y-48641142D01*
X75144068Y-48633084D01*
X75122444Y-48622856D01*
X75101927Y-48610559D01*
X75082714Y-48596309D01*
X75064990Y-48580245D01*
X74419755Y-47935010D01*
X74403691Y-47917286D01*
X74389441Y-47898073D01*
X74377144Y-47877556D01*
X74366916Y-47855932D01*
X74358858Y-47833410D01*
X74353046Y-47810206D01*
X74349536Y-47786545D01*
X74348362Y-47762653D01*
X74349536Y-47738761D01*
X74353046Y-47715100D01*
X74358858Y-47691896D01*
X74366916Y-47669374D01*
X74377144Y-47647750D01*
X74389441Y-47627233D01*
X74403691Y-47608020D01*
X74419755Y-47590296D01*
X74764470Y-47245581D01*
X74782194Y-47229517D01*
X74801407Y-47215267D01*
X74821924Y-47202970D01*
X74843548Y-47192742D01*
X74866070Y-47184684D01*
X74889274Y-47178872D01*
X74912935Y-47175362D01*
X74936827Y-47174188D01*
X74960719Y-47175362D01*
X74960719Y-47175362D01*
G37*
D16*
X75087087Y-47912913D03*
G04 #@! TD*
D10*
G04 #@! TO.C,C14*
G36*
X66749504Y-47626204D02*
X66773773Y-47629804D01*
X66797571Y-47635765D01*
X66820671Y-47644030D01*
X66842849Y-47654520D01*
X66863893Y-47667133D01*
X66883598Y-47681747D01*
X66901777Y-47698223D01*
X66918253Y-47716402D01*
X66932867Y-47736107D01*
X66945480Y-47757151D01*
X66955970Y-47779329D01*
X66964235Y-47802429D01*
X66970196Y-47826227D01*
X66973796Y-47850496D01*
X66975000Y-47875000D01*
X66975000Y-49125000D01*
X66973796Y-49149504D01*
X66970196Y-49173773D01*
X66964235Y-49197571D01*
X66955970Y-49220671D01*
X66945480Y-49242849D01*
X66932867Y-49263893D01*
X66918253Y-49283598D01*
X66901777Y-49301777D01*
X66883598Y-49318253D01*
X66863893Y-49332867D01*
X66842849Y-49345480D01*
X66820671Y-49355970D01*
X66797571Y-49364235D01*
X66773773Y-49370196D01*
X66749504Y-49373796D01*
X66725000Y-49375000D01*
X65975000Y-49375000D01*
X65950496Y-49373796D01*
X65926227Y-49370196D01*
X65902429Y-49364235D01*
X65879329Y-49355970D01*
X65857151Y-49345480D01*
X65836107Y-49332867D01*
X65816402Y-49318253D01*
X65798223Y-49301777D01*
X65781747Y-49283598D01*
X65767133Y-49263893D01*
X65754520Y-49242849D01*
X65744030Y-49220671D01*
X65735765Y-49197571D01*
X65729804Y-49173773D01*
X65726204Y-49149504D01*
X65725000Y-49125000D01*
X65725000Y-47875000D01*
X65726204Y-47850496D01*
X65729804Y-47826227D01*
X65735765Y-47802429D01*
X65744030Y-47779329D01*
X65754520Y-47757151D01*
X65767133Y-47736107D01*
X65781747Y-47716402D01*
X65798223Y-47698223D01*
X65816402Y-47681747D01*
X65836107Y-47667133D01*
X65857151Y-47654520D01*
X65879329Y-47644030D01*
X65902429Y-47635765D01*
X65926227Y-47629804D01*
X65950496Y-47626204D01*
X65975000Y-47625000D01*
X66725000Y-47625000D01*
X66749504Y-47626204D01*
X66749504Y-47626204D01*
G37*
D18*
X66350000Y-48500000D03*
D10*
G36*
X69549504Y-47626204D02*
X69573773Y-47629804D01*
X69597571Y-47635765D01*
X69620671Y-47644030D01*
X69642849Y-47654520D01*
X69663893Y-47667133D01*
X69683598Y-47681747D01*
X69701777Y-47698223D01*
X69718253Y-47716402D01*
X69732867Y-47736107D01*
X69745480Y-47757151D01*
X69755970Y-47779329D01*
X69764235Y-47802429D01*
X69770196Y-47826227D01*
X69773796Y-47850496D01*
X69775000Y-47875000D01*
X69775000Y-49125000D01*
X69773796Y-49149504D01*
X69770196Y-49173773D01*
X69764235Y-49197571D01*
X69755970Y-49220671D01*
X69745480Y-49242849D01*
X69732867Y-49263893D01*
X69718253Y-49283598D01*
X69701777Y-49301777D01*
X69683598Y-49318253D01*
X69663893Y-49332867D01*
X69642849Y-49345480D01*
X69620671Y-49355970D01*
X69597571Y-49364235D01*
X69573773Y-49370196D01*
X69549504Y-49373796D01*
X69525000Y-49375000D01*
X68775000Y-49375000D01*
X68750496Y-49373796D01*
X68726227Y-49370196D01*
X68702429Y-49364235D01*
X68679329Y-49355970D01*
X68657151Y-49345480D01*
X68636107Y-49332867D01*
X68616402Y-49318253D01*
X68598223Y-49301777D01*
X68581747Y-49283598D01*
X68567133Y-49263893D01*
X68554520Y-49242849D01*
X68544030Y-49220671D01*
X68535765Y-49197571D01*
X68529804Y-49173773D01*
X68526204Y-49149504D01*
X68525000Y-49125000D01*
X68525000Y-47875000D01*
X68526204Y-47850496D01*
X68529804Y-47826227D01*
X68535765Y-47802429D01*
X68544030Y-47779329D01*
X68554520Y-47757151D01*
X68567133Y-47736107D01*
X68581747Y-47716402D01*
X68598223Y-47698223D01*
X68616402Y-47681747D01*
X68636107Y-47667133D01*
X68657151Y-47654520D01*
X68679329Y-47644030D01*
X68702429Y-47635765D01*
X68726227Y-47629804D01*
X68750496Y-47626204D01*
X68775000Y-47625000D01*
X69525000Y-47625000D01*
X69549504Y-47626204D01*
X69549504Y-47626204D01*
G37*
D18*
X69150000Y-48500000D03*
G04 #@! TD*
M02*
