M48
;DRILL file {KiCad (5.0.2-5)-5} date Thursday, November 21, 2019 at 03:56:24 PM
;FORMAT={-:-/ absolute / inch / decimal}
FMAT,2
INCH,TZ
T1C0.0118
T2C0.0157
T3C0.0315
T4C0.0394
T5C0.0984
%
G90
G05
T1
X2.5945Y-1.4055
X3.7244Y-1.4862
T2
X2.0079Y-1.3878
X2.0079Y-1.5453
X2.0079Y-1.7028
X2.0079Y-1.8602
X2.1555Y-1.4469
X2.1555Y-1.5256
X2.1555Y-1.6043
X2.1555Y-1.6831
X2.1555Y-1.7618
X2.1654Y-1.3681
X2.1654Y-1.8504
X2.2047Y-1.2992
X2.2047Y-1.9291
X2.2638Y-1.2402
X2.2933Y-1.9587
X2.3327Y-1.2106
X2.3622Y-1.3287
X2.372Y-1.6831
X2.376Y-1.5984
X2.4114Y-1.2106
X2.4409Y-1.3287
X2.4803Y-1.7756
X2.4803Y-1.8504
X2.4803Y-1.9193
X2.4902Y-1.2106
X2.4902Y-1.4469
X2.5Y-1.378
X2.5295Y-1.5059
X2.5295Y-1.5886
X2.5295Y-1.6339
X2.5689Y-1.7421
X2.6181Y-1.2992
X2.6476Y-1.5059
X2.6476Y-1.6043
X2.6476Y-1.7224
X2.6969Y-1.2992
X2.7067Y-2.0374
X2.7362Y-1.8406
X2.7559Y-1.4862
X2.7638Y-1.7717
X2.7756Y-1.2992
X2.7854Y-1.9094
X2.8248Y-1.7323
X2.8346Y-1.3976
X2.8346Y-1.4862
X2.8543Y-1.2992
X2.8642Y-2.0374
X2.8839Y-1.437
X2.9035Y-1.7323
X2.9035Y-1.9094
X2.9331Y-1.2992
X2.9331Y-1.3878
X2.9409Y-1.8169
X2.9724Y-1.5846
X2.9823Y-1.3386
X3.002Y-1.7618
X3.0157Y-1.8917
X3.0315Y-2.0512
X3.061Y-1.4862
X3.063Y-1.2894
X3.0709Y-1.811
X3.0807Y-1.9783
X3.0906Y-1.4075
X3.0906Y-1.5846
X3.1004Y-1.7028
X3.1398Y-1.3681
X3.1496Y-1.811
X3.189Y-2.0374
X3.1988Y-1.4862
X3.1988Y-1.5846
X3.2087Y-1.9685
X3.2283Y-1.811
X3.2382Y-1.7421
X3.2677Y-1.2657
X3.3071Y-1.811
X3.3366Y-1.3287
X3.3465Y-2.0374
X3.3681Y-1.2638
X3.3858Y-1.811
X3.3957Y-1.5748
X3.435Y-1.5748
X3.437Y-1.3917
X3.4646Y-1.811
X3.4685Y-1.2638
X3.4843Y-1.9291
X3.5138Y-2.0374
X3.5335Y-1.7717
X3.5551Y-1.5689
X3.5866Y-1.3071
X3.6024Y-1.6634
X3.6024Y-1.7323
X3.6122Y-1.5217
X3.6516Y-1.8898
X3.6713Y-1.4173
X3.6811Y-1.3189
X3.6811Y-1.7323
X3.6811Y-2.0374
X3.7205Y-1.5846
X3.75Y-1.6437
X3.75Y-1.9587
X3.7598Y-1.3484
X3.7598Y-1.7323
X3.7795Y-1.2402
X3.7992Y-1.6437
X3.8189Y-1.4272
X3.8189Y-1.8799
X3.8386Y-1.7323
X3.8681Y-1.4272
X3.9173Y-1.5551
X3.9173Y-1.7126
X3.9173Y-1.8701
T3
X3.4055Y-1.8701
X3.4055Y-1.9488
T4
X2.6185Y-1.2311
X2.7185Y-1.2311
X2.8185Y-1.2311
X2.9185Y-1.2311
X3.0185Y-1.2311
X3.1185Y-1.2311
X3.2185Y-1.2311
X3.3185Y-1.2311
X3.4185Y-1.2311
X3.5185Y-1.2311
X3.6185Y-1.2311
X3.7185Y-1.2311
X2.2185Y-2.0311
X2.3185Y-2.0311
X2.4185Y-2.0311
X2.5185Y-2.0311
T5
X2.0685Y-1.2811
X2.0685Y-1.9811
T0
M30
