G04 #@! TF.GenerationSoftware,KiCad,Pcbnew,(5.0.2-5)-5*
G04 #@! TF.CreationDate,2019-11-21T15:56:31-05:00*
G04 #@! TF.ProjectId,NEMA0183,4e454d41-3031-4383-932e-6b696361645f,rev?*
G04 #@! TF.SameCoordinates,Original*
G04 #@! TF.FileFunction,Legend,Bot*
G04 #@! TF.FilePolarity,Positive*
%FSLAX46Y46*%
G04 Gerber Fmt 4.6, Leading zero omitted, Abs format (unit mm)*
G04 Created by KiCad (PCBNEW (5.0.2-5)-5) date Thursday, November 21, 2019 at 03:56:31 PM*
%MOMM*%
%LPD*%
G01*
G04 APERTURE LIST*
%ADD10C,0.120000*%
%ADD11C,0.150000*%
G04 APERTURE END LIST*
D10*
G04 #@! TO.C,J3*
X65300000Y-50260000D02*
X65300000Y-52920000D01*
X57620000Y-50260000D02*
X65300000Y-50260000D01*
X57620000Y-52920000D02*
X65300000Y-52920000D01*
X57620000Y-50260000D02*
X57620000Y-52920000D01*
X56350000Y-50260000D02*
X55020000Y-50260000D01*
X55020000Y-50260000D02*
X55020000Y-51590000D01*
G04 #@! TO.C,I2C_R1*
X81813221Y-34482687D02*
X82182687Y-34113221D01*
X82817313Y-35486779D02*
X83186779Y-35117313D01*
G04 #@! TO.C,J2*
X95780000Y-29940000D02*
X95780000Y-32600000D01*
X67780000Y-29940000D02*
X95780000Y-29940000D01*
X67780000Y-32600000D02*
X95780000Y-32600000D01*
X67780000Y-29940000D02*
X67780000Y-32600000D01*
X66510000Y-29940000D02*
X65180000Y-29940000D01*
X65180000Y-29940000D02*
X65180000Y-31270000D01*
G04 #@! TO.C,I2C_R2*
X85182687Y-34513221D02*
X84813221Y-34882687D01*
X86186779Y-35517313D02*
X85817313Y-35886779D01*
G04 #@! TO.C,I2C_R1*
D11*
X81287816Y-36651946D02*
X80580709Y-35944840D01*
X80345007Y-36315229D02*
X80277663Y-36315229D01*
X80176648Y-36348901D01*
X80008289Y-36517259D01*
X79974618Y-36618275D01*
X79974618Y-36685618D01*
X80008289Y-36786633D01*
X80075633Y-36853977D01*
X80210320Y-36921320D01*
X81018442Y-36921320D01*
X80580709Y-37359053D01*
X79806259Y-37998816D02*
X79873602Y-37998816D01*
X80008289Y-37931473D01*
X80075633Y-37864129D01*
X80142976Y-37729442D01*
X80142976Y-37594755D01*
X80109305Y-37493740D01*
X80008289Y-37325381D01*
X79907274Y-37224366D01*
X79738915Y-37123351D01*
X79637900Y-37089679D01*
X79503213Y-37089679D01*
X79368526Y-37157023D01*
X79301183Y-37224366D01*
X79233839Y-37359053D01*
X79233839Y-37426397D01*
X79806259Y-38268190D02*
X79267511Y-38806938D01*
X78627748Y-39312015D02*
X78526732Y-38739595D01*
X79031809Y-38907954D02*
X78324702Y-38200847D01*
X78055328Y-38470221D01*
X78021656Y-38571236D01*
X78021656Y-38638580D01*
X78055328Y-38739595D01*
X78156343Y-38840610D01*
X78257358Y-38874282D01*
X78324702Y-38874282D01*
X78425717Y-38840610D01*
X78695091Y-38571236D01*
X77954313Y-39985450D02*
X78358374Y-39581389D01*
X78156343Y-39783419D02*
X77449236Y-39076312D01*
X77617595Y-39109984D01*
X77752282Y-39109984D01*
X77853297Y-39076312D01*
G04 #@! TO.C,I2C_R2*
X84287816Y-37051946D02*
X83580709Y-36344840D01*
X83345007Y-36715229D02*
X83277663Y-36715229D01*
X83176648Y-36748901D01*
X83008289Y-36917259D01*
X82974618Y-37018275D01*
X82974618Y-37085618D01*
X83008289Y-37186633D01*
X83075633Y-37253977D01*
X83210320Y-37321320D01*
X84018442Y-37321320D01*
X83580709Y-37759053D01*
X82806259Y-38398816D02*
X82873602Y-38398816D01*
X83008289Y-38331473D01*
X83075633Y-38264129D01*
X83142976Y-38129442D01*
X83142976Y-37994755D01*
X83109305Y-37893740D01*
X83008289Y-37725381D01*
X82907274Y-37624366D01*
X82738915Y-37523351D01*
X82637900Y-37489679D01*
X82503213Y-37489679D01*
X82368526Y-37557023D01*
X82301183Y-37624366D01*
X82233839Y-37759053D01*
X82233839Y-37826397D01*
X82806259Y-38668190D02*
X82267511Y-39206938D01*
X81627748Y-39712015D02*
X81526732Y-39139595D01*
X82031809Y-39307954D02*
X81324702Y-38600847D01*
X81055328Y-38870221D01*
X81021656Y-38971236D01*
X81021656Y-39038580D01*
X81055328Y-39139595D01*
X81156343Y-39240610D01*
X81257358Y-39274282D01*
X81324702Y-39274282D01*
X81425717Y-39240610D01*
X81695091Y-38971236D01*
X80718610Y-39341625D02*
X80651267Y-39341625D01*
X80550252Y-39375297D01*
X80381893Y-39543656D01*
X80348221Y-39644671D01*
X80348221Y-39712015D01*
X80381893Y-39813030D01*
X80449236Y-39880373D01*
X80583923Y-39947717D01*
X81392045Y-39947717D01*
X80954313Y-40385450D01*
G04 #@! TD*
M02*
